<svg width="99" height="136" viewBox="0 0 99 136" fill="none" xmlns="http://www.w3.org/2000/svg">
<g clip-path="url(#clip0_2006_371)">
<path d="M67.2655 39.481C66.6071 38.9947 65.8183 38.4498 64.9209 37.8616C64.5819 37.6395 64.1271 37.734 63.9048 38.073C63.6826 38.412 63.7772 38.8669 64.1162 39.0892C64.9907 39.6625 65.7569 40.1916 66.3934 40.6617C69.468 42.9329 70.5834 44.9142 70.7092 48.5323H64.2063C64.1659 47.002 64.0204 45.4491 64.0132 45.3736C63.9749 44.9701 63.6169 44.6731 63.2134 44.7123C62.8099 44.7505 62.5138 45.1085 62.552 45.512C62.5537 45.5298 62.6967 47.0563 62.7379 48.5323H39.7616C39.8028 47.0562 39.9458 45.5298 39.9476 45.5119C39.9857 45.1084 39.6896 44.7504 39.2861 44.7122C38.8823 44.6735 38.5246 44.9701 38.4864 45.3735C38.4793 45.4491 38.3337 47.0019 38.2934 48.5322H33.7246C34.0463 48.0137 34.2872 47.3648 34.4403 46.595L34.4407 46.5957C35.9339 46.3398 37.0741 45.0369 37.0741 43.4719C37.0741 42.4222 36.5609 41.4904 35.7727 40.9132C35.8813 40.8295 35.9926 40.7456 36.1062 40.6616C39.1533 38.4107 44.2138 35.5114 46.3045 34.3383C46.835 36.5782 48.8501 38.2503 51.2499 38.2503C53.6497 38.2503 55.665 36.5781 56.1954 34.3382C57.3728 34.9984 59.4905 36.2051 61.6508 37.53C62.0192 37.7559 62.5154 37.6062 62.6989 37.216C62.856 36.8822 62.7323 36.4715 62.4181 36.2788C59.8147 34.6822 57.2725 33.2557 56.3331 32.7343V31.7022C58.2448 30.5228 59.719 28.6996 60.4506 26.537C60.4787 26.5377 60.5069 26.5392 60.5351 26.5392C62.5899 26.5392 64.2617 24.8674 64.2617 22.8125C64.2617 22.0103 64.0061 21.2672 63.5732 20.6584C63.9109 19.3213 64.1144 17.9769 64.1749 16.6566C64.1935 16.2518 63.8803 15.9085 63.4755 15.8899C63.0711 15.8722 62.7274 16.1846 62.7088 16.5894C62.6641 17.5641 62.5351 18.5544 62.3258 19.5453C61.794 19.2526 61.1837 19.0857 60.5351 19.0857C60.4846 19.0857 60.4338 19.0876 60.3831 19.0896C59.6014 18.6623 56.2299 16.6279 55.7996 13.1577C57.0102 12.9676 58.2226 12.6756 59.3063 12.2345C60.4076 11.7863 61.2242 11.2457 61.827 10.6641C62.197 11.6596 62.4561 12.7047 62.5969 13.7853C62.6492 14.187 63.0324 14.4765 63.433 14.4162C63.8231 14.3575 64.1033 13.9875 64.0522 13.5957C63.8562 12.091 63.4533 10.6463 62.8548 9.29502C63.2697 8.48564 63.4013 7.67138 63.4016 6.96787C63.4021 5.65459 62.8475 4.51211 61.7977 3.66406C60.8986 2.93779 59.6482 2.43496 58.1817 2.21015C56.8859 2.01142 55.5109 2.04453 54.31 2.30322C54.054 2.3584 53.8104 2.38506 53.5756 2.38916C53.8358 2.01035 54.1909 1.60517 54.6204 1.39043C54.9829 1.20918 55.1299 0.768356 54.9486 0.405856C54.7674 0.0433564 54.3265 -0.103714 53.9641 0.0777314C53.0147 0.552341 52.3719 1.4792 52.0255 2.10117C51.6312 1.958 51.239 1.77549 50.8268 1.58271C49.3497 0.892185 47.6755 0.109567 45.102 0.771384C41.4744 1.7042 38.8269 4.86347 39.2002 7.81396C39.2555 8.25088 39.3853 8.75547 39.6514 9.28066C37.7757 13.4979 38.1824 17.7201 38.9257 20.6598C38.4934 21.2683 38.2382 22.0109 38.2382 22.8125C38.2382 24.8674 39.91 26.5392 41.9648 26.5392C41.993 26.5392 42.0212 26.5376 42.0493 26.537C42.7809 28.6996 44.2552 30.5228 46.1668 31.7023V32.7339C44.6058 33.5986 38.7321 36.8974 35.2342 39.4812C34.8508 39.7645 34.5033 40.0391 34.1778 40.3145C34.0811 40.3062 33.9839 40.3013 33.8868 40.302C33.8453 40.3024 33.7869 40.3155 33.7581 40.2919C33.7276 40.2669 33.7027 40.2019 33.6812 40.1686L34.4656 28.7896C34.4732 28.6784 34.4544 28.5628 34.412 28.4597L33.1955 25.5061C33.7303 24.9548 34.0381 24.2091 34.0381 23.4162C34.0381 23.0012 33.9117 22.2172 32.8189 20.2093C32.248 19.1602 31.686 18.2811 31.6624 18.2441C31.3788 17.8013 30.7101 17.8013 30.4265 18.2441C30.4028 18.2811 29.8408 19.1602 29.2699 20.2093C28.1771 22.2173 28.0508 23.0012 28.0508 23.4162C28.0508 24.2091 28.3586 24.9548 28.8934 25.5061L27.6769 28.4597C27.6345 28.5627 27.6156 28.6784 27.6232 28.7896L27.8601 32.2244C27.8879 32.6287 28.2383 32.9332 28.6427 32.9061C29.047 32.8781 29.3522 32.5278 29.3243 32.1234L29.1416 29.4729H32.9474L32.292 38.9788C31.9482 38.8407 31.57 38.7697 31.1591 38.7697C30.6852 38.7697 30.2292 38.8695 29.8019 39.0515L29.5261 35.0518C29.4981 34.6474 29.147 34.3424 28.7435 34.3701C28.3392 34.398 28.0339 34.7483 28.0618 35.1527L28.3994 40.0494C27.4305 41.0801 26.8115 42.6409 26.8115 44.3851C26.8115 47.4178 28.683 49.8951 31.0126 49.9954C31.0208 49.9984 31.0312 50.0002 31.0444 50.0002H71.4554C71.8606 50.0002 72.1893 49.6716 72.1893 49.2663C72.1892 44.6695 70.9468 42.2004 67.2655 39.481ZM60.9593 23.4327V20.5939C62.0026 20.7932 62.7939 21.7119 62.7939 22.8124C62.7939 23.9602 61.9332 24.9102 60.8235 25.0523C60.9123 24.5254 60.9593 23.9845 60.9593 23.4327ZM54.8652 33.1672C54.8652 35.1607 53.2434 36.7825 51.2498 36.7825C49.2563 36.7825 47.6345 35.1606 47.6345 33.1672V32.4422C48.7526 32.8926 49.9724 33.1421 51.2498 33.1421C52.5272 33.1421 53.7471 32.8925 54.8652 32.4422V33.1672ZM45.4673 2.19277C46.0203 2.05058 46.5183 1.99013 46.9776 1.99013C48.2324 1.99013 49.1984 2.4417 50.205 2.9122C51.4838 3.51006 52.8061 4.12822 54.6188 3.73799C57.1767 3.18711 59.7022 3.8581 60.8752 4.80566C61.5878 5.38134 61.934 6.08838 61.9337 6.96718C61.933 8.72588 60.8926 10.0041 58.753 10.8749C56.9176 11.6219 54.323 12.0167 51.2498 12.0167C44.9639 12.0167 41.0036 10.3767 40.6562 7.62959C40.3771 5.4249 42.5804 2.93506 45.4673 2.19277ZM39.7057 22.8124C39.7057 21.7119 40.497 20.7932 41.5403 20.5939V23.4327C41.5403 23.9845 41.5873 24.5254 41.6762 25.0523C40.5664 24.9101 39.7057 23.9602 39.7057 22.8124ZM41.9646 19.0856C41.3156 19.0856 40.7051 19.2527 40.173 19.5457C39.6538 17.0936 39.4661 13.8855 40.6771 10.6476C41.1227 11.0767 41.6938 11.4926 42.4259 11.8697C43.5807 12.4646 45.0105 12.8961 46.6995 13.1627C46.2665 16.6309 42.8956 18.6638 42.1167 19.0895C42.0659 19.0875 42.0151 19.0856 41.9646 19.0856ZM43.008 23.4327V20.2754C44.2255 19.5838 47.6779 17.2937 48.1585 13.345C49.1197 13.4369 50.1494 13.4845 51.2497 13.4845C52.1604 13.4845 53.2267 13.4495 54.3407 13.3414C54.8204 17.2846 58.2752 19.5812 59.4915 20.2745V23.4326C59.4915 27.9771 55.7942 31.6743 51.2497 31.6743C46.7052 31.6743 43.008 27.9772 43.008 23.4327ZM34.4229 41.8518C35.1084 42.0719 35.6063 42.7143 35.6063 43.472C35.6063 44.1535 35.2037 44.7429 34.6239 45.0145L34.6237 45.0147C34.6329 44.8103 34.6378 44.6005 34.6378 44.3849C34.6378 43.4223 34.5447 42.5715 34.3666 41.8406L34.4229 41.8518ZM31.0443 20.0468C31.8575 21.4382 32.5703 22.9061 32.5703 23.416C32.5703 23.8601 32.3842 24.274 32.0647 24.5591H30.0239C29.7045 24.274 29.5184 23.8601 29.5184 23.416C29.5184 22.9061 30.2312 21.4382 31.0443 20.0468ZM29.4512 28.0051L30.266 26.0269H31.8227L32.6375 28.0051H29.4512ZM31.159 48.5322C29.571 48.5322 28.2791 46.6717 28.2791 44.3848C28.2791 42.0978 29.571 40.2373 31.159 40.2373C31.9101 40.2373 33.17 40.7762 33.17 44.3848C33.1701 47.9934 31.9101 48.5322 31.159 48.5322Z" fill="#073141"/>
<path d="M46.9007 19.0857C46.1567 19.0857 45.5957 19.8337 45.5957 20.8256C45.5957 21.8175 46.1567 22.5656 46.9007 22.5656C47.6445 22.5656 48.2056 21.8175 48.2056 20.8256C48.2056 19.8337 47.6445 19.0857 46.9007 19.0857Z" fill="#073141"/>
<path d="M55.5988 22.5656C56.3428 22.5656 56.9037 21.8175 56.9037 20.8256C56.9037 19.8337 56.3427 19.0857 55.5988 19.0857C54.855 19.0857 54.2939 19.8337 54.2939 20.8256C54.2939 21.8175 54.8549 22.5656 55.5988 22.5656Z" fill="#073141"/>
<path d="M54.8196 26.1813C54.9739 25.8065 54.7952 25.3777 54.4205 25.2233C54.0455 25.0688 53.6168 25.2477 53.4625 25.6225C53.4585 25.6322 53.0216 26.5877 51.4688 26.5877C49.916 26.5877 49.4791 25.6322 49.4752 25.6225C49.3209 25.2477 48.8922 25.0689 48.5172 25.2233C48.1424 25.3776 47.9637 25.8065 48.118 26.1813C48.1494 26.2578 48.9189 28.0554 51.4687 28.0554C54.0186 28.0554 54.7882 26.2578 54.8196 26.1813Z" fill="#073141"/>
</g>
<path d="M28.0036 79H25.4723L30.081 65.9091H33.0085L37.6236 79H35.0923L31.5959 68.5938H31.4936L28.0036 79ZM28.0866 73.8672H34.9901V75.772H28.0866V73.8672ZM39.2456 79V69.1818H41.4892V70.8182H41.5914C41.7704 70.2514 42.0772 69.8146 42.5119 69.5078C42.9508 69.1967 43.4515 69.0412 44.014 69.0412C44.1419 69.0412 44.2846 69.0476 44.4423 69.0604C44.6042 69.0689 44.7385 69.0838 44.845 69.1051V71.2337C44.747 71.1996 44.5914 71.1697 44.3784 71.1442C44.1696 71.1143 43.9672 71.0994 43.7711 71.0994C43.3493 71.0994 42.97 71.1911 42.6333 71.3743C42.301 71.5533 42.0389 71.8026 41.8471 72.1222C41.6554 72.4418 41.5595 72.8104 41.5595 73.228V79H39.2456ZM51.8123 69.1818V70.9716H46.1681V69.1818H51.8123ZM47.5616 66.8295H49.8755V76.0469C49.8755 76.358 49.9224 76.5966 50.0162 76.7628C50.1142 76.9247 50.242 77.0355 50.3997 77.0952C50.5574 77.1548 50.7321 77.1847 50.9238 77.1847C51.0687 77.1847 51.2008 77.174 51.3201 77.1527C51.4437 77.1314 51.5375 77.1122 51.6014 77.0952L51.9913 78.9041C51.8677 78.9467 51.6909 78.9936 51.4608 79.0447C51.2349 79.0959 50.9579 79.1257 50.6298 79.1342C50.0502 79.1513 49.5282 79.0639 49.0637 78.8722C48.5993 78.6761 48.2306 78.3736 47.9579 77.9645C47.6895 77.5554 47.5574 77.044 47.5616 76.4304V66.8295ZM53.7475 79V69.1818H56.0614V79H53.7475ZM54.9109 67.7884C54.5444 67.7884 54.229 67.6669 53.9648 67.424C53.7006 67.1768 53.5685 66.8807 53.5685 66.5355C53.5685 66.1861 53.7006 65.8899 53.9648 65.647C54.229 65.3999 54.5444 65.2763 54.9109 65.2763C55.2816 65.2763 55.5969 65.3999 55.8569 65.647C56.1211 65.8899 56.2532 66.1861 56.2532 66.5355C56.2532 66.8807 56.1211 67.1768 55.8569 67.424C55.5969 67.6669 55.2816 67.7884 54.9109 67.7884ZM66.2008 71.777L64.0914 72.0071C64.0318 71.794 63.9274 71.5938 63.7782 71.4062C63.6333 71.2188 63.4373 71.0675 63.1902 70.9524C62.943 70.8374 62.6404 70.7798 62.2825 70.7798C61.801 70.7798 61.3961 70.8842 61.068 71.093C60.7441 71.3018 60.5843 71.5724 60.5886 71.9048C60.5843 72.1903 60.6887 72.4226 60.9018 72.6016C61.1191 72.7805 61.4771 72.9276 61.9757 73.0426L63.6504 73.4006C64.5794 73.6009 65.2697 73.9183 65.7214 74.353C66.1774 74.7876 66.4075 75.3565 66.4118 76.0597C66.4075 76.6776 66.2264 77.223 65.8684 77.696C65.5147 78.1648 65.0225 78.5312 64.3919 78.7955C63.7612 79.0597 63.0368 79.1918 62.2186 79.1918C61.0169 79.1918 60.0495 78.9403 59.3166 78.4375C58.5836 77.9304 58.1468 77.2251 58.0062 76.3217L60.2626 76.1044C60.3649 76.5476 60.5822 76.8821 60.9146 77.108C61.247 77.3338 61.6795 77.4467 62.2122 77.4467C62.7619 77.4467 63.2029 77.3338 63.5353 77.108C63.872 76.8821 64.0403 76.603 64.0403 76.2706C64.0403 75.9893 63.9316 75.7571 63.7143 75.5739C63.5012 75.3906 63.1689 75.25 62.7172 75.152L61.0424 74.8004C60.1007 74.6044 59.4039 74.2741 58.9522 73.8097C58.5005 73.3409 58.2768 72.7486 58.2811 72.0327C58.2768 71.4276 58.4409 70.9034 58.7733 70.4602C59.1099 70.0128 59.5765 69.6676 60.1731 69.4247C60.774 69.1776 61.4664 69.054 62.2505 69.054C63.4011 69.054 64.3066 69.299 64.9672 69.7891C65.6319 70.2791 66.0431 70.9418 66.2008 71.777ZM73.2225 69.1818V70.9716H67.5783V69.1818H73.2225ZM68.9718 66.8295H71.2857V76.0469C71.2857 76.358 71.3326 76.5966 71.4263 76.7628C71.5243 76.9247 71.6522 77.0355 71.8098 77.0952C71.9675 77.1548 72.1422 77.1847 72.334 77.1847C72.4789 77.1847 72.611 77.174 72.7303 77.1527C72.8539 77.1314 72.9476 77.1122 73.0115 77.0952L73.4015 78.9041C73.2779 78.9467 73.101 78.9936 72.8709 79.0447C72.6451 79.0959 72.3681 79.1257 72.04 79.1342C71.4604 79.1513 70.9384 79.0639 70.4739 78.8722C70.0094 78.6761 69.6408 78.3736 69.3681 77.9645C69.0996 77.5554 68.9675 77.044 68.9718 76.4304V66.8295Z" fill="#073141"/>
<g clip-path="url(#clip1_2006_371)">
<path d="M19.5369 106.727V130H16.0142V110.25H15.8778L10.3097 113.886V110.523L16.1165 106.727H19.5369ZM33.9347 130.386C32.1392 130.379 30.6051 129.905 29.3324 128.966C28.0597 128.027 27.0862 126.659 26.4119 124.864C25.7377 123.068 25.4006 120.905 25.4006 118.375C25.4006 115.852 25.7377 113.697 26.4119 111.909C27.0938 110.121 28.071 108.758 29.3438 107.818C30.6241 106.879 32.1544 106.409 33.9347 106.409C35.715 106.409 37.2415 106.883 38.5142 107.83C39.7869 108.769 40.7604 110.133 41.4347 111.92C42.1165 113.701 42.4574 115.852 42.4574 118.375C42.4574 120.913 42.1203 123.08 41.446 124.875C40.7718 126.663 39.7983 128.03 38.5256 128.977C37.2528 129.917 35.7225 130.386 33.9347 130.386ZM33.9347 127.352C35.5104 127.352 36.7415 126.583 37.6278 125.045C38.5218 123.508 38.9688 121.284 38.9688 118.375C38.9688 116.443 38.7642 114.811 38.3551 113.477C37.9536 112.136 37.3741 111.121 36.6165 110.432C35.8665 109.735 34.9725 109.386 33.9347 109.386C32.3665 109.386 31.1354 110.159 30.2415 111.705C29.3475 113.25 28.8968 115.473 28.8892 118.375C28.8892 120.314 29.09 121.955 29.4915 123.295C29.9006 124.629 30.4801 125.64 31.2301 126.33C31.9801 127.011 32.8816 127.352 33.9347 127.352ZM54.5909 130.386C52.7955 130.379 51.2614 129.905 49.9886 128.966C48.7159 128.027 47.7424 126.659 47.0682 124.864C46.3939 123.068 46.0568 120.905 46.0568 118.375C46.0568 115.852 46.3939 113.697 47.0682 111.909C47.75 110.121 48.7273 108.758 50 107.818C51.2803 106.879 52.8106 106.409 54.5909 106.409C56.3712 106.409 57.8977 106.883 59.1705 107.83C60.4432 108.769 61.4167 110.133 62.0909 111.92C62.7727 113.701 63.1136 115.852 63.1136 118.375C63.1136 120.913 62.7765 123.08 62.1023 124.875C61.428 126.663 60.4545 128.03 59.1818 128.977C57.9091 129.917 56.3788 130.386 54.5909 130.386ZM54.5909 127.352C56.1667 127.352 57.3977 126.583 58.2841 125.045C59.178 123.508 59.625 121.284 59.625 118.375C59.625 116.443 59.4205 114.811 59.0114 113.477C58.6098 112.136 58.0303 111.121 57.2727 110.432C56.5227 109.735 55.6288 109.386 54.5909 109.386C53.0227 109.386 51.7917 110.159 50.8977 111.705C50.0038 113.25 49.553 115.473 49.5455 118.375C49.5455 120.314 49.7462 121.955 50.1477 123.295C50.5568 124.629 51.1364 125.64 51.8864 126.33C52.6364 127.011 53.5379 127.352 54.5909 127.352ZM10.7074 172V169.455L18.5824 161.295C19.4233 160.409 20.1165 159.633 20.6619 158.966C21.215 158.292 21.6278 157.652 21.9006 157.045C22.1733 156.439 22.3097 155.795 22.3097 155.114C22.3097 154.341 22.1278 153.674 21.7642 153.114C21.4006 152.545 20.9044 152.11 20.2756 151.807C19.6468 151.496 18.9384 151.341 18.1506 151.341C17.3172 151.341 16.59 151.511 15.9688 151.852C15.3475 152.193 14.8703 152.674 14.5369 153.295C14.2036 153.917 14.0369 154.644 14.0369 155.477H10.6847C10.6847 154.061 11.0104 152.822 11.6619 151.761C12.3134 150.701 13.2074 149.879 14.3438 149.295C15.4801 148.705 16.7718 148.409 18.2188 148.409C19.6809 148.409 20.9688 148.701 22.0824 149.284C23.2036 149.86 24.0786 150.648 24.7074 151.648C25.3362 152.64 25.6506 153.761 25.6506 155.011C25.6506 155.875 25.4877 156.72 25.1619 157.545C24.8438 158.371 24.2869 159.292 23.4915 160.307C22.696 161.314 21.59 162.538 20.1733 163.977L15.5483 168.818V168.989H26.0256V172H10.7074ZM38.4347 172.386C36.6392 172.379 35.1051 171.905 33.8324 170.966C32.5597 170.027 31.5862 168.659 30.9119 166.864C30.2377 165.068 29.9006 162.905 29.9006 160.375C29.9006 157.852 30.2377 155.697 30.9119 153.909C31.5938 152.121 32.571 150.758 33.8438 149.818C35.1241 148.879 36.6544 148.409 38.4347 148.409C40.215 148.409 41.7415 148.883 43.0142 149.83C44.2869 150.769 45.2604 152.133 45.9347 153.92C46.6165 155.701 46.9574 157.852 46.9574 160.375C46.9574 162.913 46.6203 165.08 45.946 166.875C45.2718 168.663 44.2983 170.03 43.0256 170.977C41.7528 171.917 40.2225 172.386 38.4347 172.386ZM38.4347 169.352C40.0104 169.352 41.2415 168.583 42.1278 167.045C43.0218 165.508 43.4688 163.284 43.4688 160.375C43.4688 158.443 43.2642 156.811 42.8551 155.477C42.4536 154.136 41.8741 153.121 41.1165 152.432C40.3665 151.735 39.4725 151.386 38.4347 151.386C36.8665 151.386 35.6354 152.159 34.7415 153.705C33.8475 155.25 33.3968 157.473 33.3892 160.375C33.3892 162.314 33.59 163.955 33.9915 165.295C34.4006 166.629 34.9801 167.64 35.7301 168.33C36.4801 169.011 37.3816 169.352 38.4347 169.352ZM59.0909 172.386C57.2955 172.379 55.7614 171.905 54.4886 170.966C53.2159 170.027 52.2424 168.659 51.5682 166.864C50.8939 165.068 50.5568 162.905 50.5568 160.375C50.5568 157.852 50.8939 155.697 51.5682 153.909C52.25 152.121 53.2273 150.758 54.5 149.818C55.7803 148.879 57.3106 148.409 59.0909 148.409C60.8712 148.409 62.3977 148.883 63.6705 149.83C64.9432 150.769 65.9167 152.133 66.5909 153.92C67.2727 155.701 67.6136 157.852 67.6136 160.375C67.6136 162.913 67.2765 165.08 66.6023 166.875C65.928 168.663 64.9545 170.03 63.6818 170.977C62.4091 171.917 60.8788 172.386 59.0909 172.386ZM59.0909 169.352C60.6667 169.352 61.8977 168.583 62.7841 167.045C63.678 165.508 64.125 163.284 64.125 160.375C64.125 158.443 63.9205 156.811 63.5114 155.477C63.1098 154.136 62.5303 153.121 61.7727 152.432C61.0227 151.735 60.1288 151.386 59.0909 151.386C57.5227 151.386 56.2917 152.159 55.3977 153.705C54.5038 155.25 54.053 157.473 54.0455 160.375C54.0455 162.314 54.2462 163.955 54.6477 165.295C55.0568 166.629 55.6364 167.64 56.3864 168.33C57.1364 169.011 58.0379 169.352 59.0909 169.352ZM10.2188 209.455V206.614L20.2756 190.727H22.5142V194.909H21.0938L13.9006 206.295V206.477H27.6847V209.455H10.2188ZM21.2528 214V208.591L21.2756 207.295V190.727H24.6051V214H21.2528ZM39.7472 214.386C37.9517 214.379 36.4176 213.905 35.1449 212.966C33.8722 212.027 32.8987 210.659 32.2244 208.864C31.5502 207.068 31.2131 204.905 31.2131 202.375C31.2131 199.852 31.5502 197.697 32.2244 195.909C32.9063 194.121 33.8835 192.758 35.1562 191.818C36.4366 190.879 37.9669 190.409 39.7472 190.409C41.5275 190.409 43.054 190.883 44.3267 191.83C45.5994 192.769 46.5729 194.133 47.2472 195.92C47.929 197.701 48.2699 199.852 48.2699 202.375C48.2699 204.913 47.9328 207.08 47.2585 208.875C46.5843 210.663 45.6108 212.03 44.3381 212.977C43.0653 213.917 41.535 214.386 39.7472 214.386ZM39.7472 211.352C41.3229 211.352 42.554 210.583 43.4403 209.045C44.3343 207.508 44.7812 205.284 44.7812 202.375C44.7812 200.443 44.5767 198.811 44.1676 197.477C43.7661 196.136 43.1866 195.121 42.429 194.432C41.679 193.735 40.785 193.386 39.7472 193.386C38.179 193.386 36.9479 194.159 36.054 195.705C35.16 197.25 34.7093 199.473 34.7017 202.375C34.7017 204.314 34.9025 205.955 35.304 207.295C35.7131 208.629 36.2926 209.64 37.0426 210.33C37.7926 211.011 38.6941 211.352 39.7472 211.352ZM60.4034 214.386C58.608 214.379 57.0739 213.905 55.8011 212.966C54.5284 212.027 53.5549 210.659 52.8807 208.864C52.2064 207.068 51.8693 204.905 51.8693 202.375C51.8693 199.852 52.2064 197.697 52.8807 195.909C53.5625 194.121 54.5398 192.758 55.8125 191.818C57.0928 190.879 58.6231 190.409 60.4034 190.409C62.1837 190.409 63.7102 190.883 64.983 191.83C66.2557 192.769 67.2292 194.133 67.9034 195.92C68.5852 197.701 68.9261 199.852 68.9261 202.375C68.9261 204.913 68.589 207.08 67.9148 208.875C67.2405 210.663 66.267 212.03 64.9943 212.977C63.7216 213.917 62.1913 214.386 60.4034 214.386ZM60.4034 211.352C61.9792 211.352 63.2102 210.583 64.0966 209.045C64.9905 207.508 65.4375 205.284 65.4375 202.375C65.4375 200.443 65.233 198.811 64.8239 197.477C64.4223 196.136 63.8428 195.121 63.0852 194.432C62.3352 193.735 61.4413 193.386 60.4034 193.386C58.8352 193.386 57.6042 194.159 56.7102 195.705C55.8163 197.25 55.3655 199.473 55.358 202.375C55.358 204.314 55.5587 205.955 55.9602 207.295C56.3693 208.629 56.9489 209.64 57.6989 210.33C58.4489 211.011 59.3504 211.352 60.4034 211.352ZM18.8324 256.318C17.7945 256.303 16.7718 256.114 15.7642 255.75C14.7642 255.386 13.8551 254.78 13.0369 253.932C12.2188 253.083 11.5634 251.943 11.071 250.511C10.5862 249.08 10.3438 247.292 10.3438 245.148C10.3438 243.117 10.5445 241.314 10.946 239.739C11.3551 238.163 11.9422 236.833 12.7074 235.75C13.4725 234.659 14.3968 233.83 15.4801 233.261C16.5634 232.693 17.7794 232.409 19.1278 232.409C20.5142 232.409 21.7453 232.682 22.821 233.227C23.8968 233.773 24.768 234.527 25.4347 235.489C26.1089 236.451 26.5369 237.545 26.7188 238.773H23.2528C23.018 237.803 22.5521 237.011 21.8551 236.398C21.1581 235.784 20.2491 235.477 19.1278 235.477C17.4233 235.477 16.0938 236.22 15.1392 237.705C14.1922 239.189 13.715 241.254 13.7074 243.898H13.8778C14.2794 243.239 14.7718 242.678 15.3551 242.216C15.946 241.746 16.6051 241.386 17.3324 241.136C18.0672 240.879 18.84 240.75 19.6506 240.75C20.9991 240.75 22.2188 241.08 23.3097 241.739C24.4081 242.39 25.2831 243.292 25.9347 244.443C26.5862 245.595 26.9119 246.913 26.9119 248.398C26.9119 249.883 26.5748 251.227 25.9006 252.432C25.2339 253.636 24.2945 254.591 23.0824 255.295C21.8703 255.992 20.4536 256.333 18.8324 256.318ZM18.821 253.364C19.715 253.364 20.5142 253.144 21.2188 252.705C21.9233 252.265 22.4801 251.674 22.8892 250.932C23.2983 250.189 23.5028 249.36 23.5028 248.443C23.5028 247.549 23.3021 246.735 22.9006 246C22.5066 245.265 21.9612 244.682 21.2642 244.25C20.5748 243.818 19.7869 243.602 18.9006 243.602C18.2263 243.602 17.6013 243.731 17.0256 243.989C16.4574 244.246 15.9574 244.602 15.5256 245.057C15.0938 245.511 14.7528 246.034 14.5028 246.625C14.2604 247.208 14.1392 247.826 14.1392 248.477C14.1392 249.348 14.34 250.155 14.7415 250.898C15.1506 251.64 15.7074 252.239 16.4119 252.693C17.1241 253.14 17.9271 253.364 18.821 253.364ZM39.1534 256.386C37.358 256.379 35.8239 255.905 34.5511 254.966C33.2784 254.027 32.3049 252.659 31.6307 250.864C30.9564 249.068 30.6193 246.905 30.6193 244.375C30.6193 241.852 30.9564 239.697 31.6307 237.909C32.3125 236.121 33.2898 234.758 34.5625 233.818C35.8428 232.879 37.3731 232.409 39.1534 232.409C40.9337 232.409 42.4602 232.883 43.733 233.83C45.0057 234.769 45.9792 236.133 46.6534 237.92C47.3352 239.701 47.6761 241.852 47.6761 244.375C47.6761 246.913 47.339 249.08 46.6648 250.875C45.9905 252.663 45.017 254.03 43.7443 254.977C42.4716 255.917 40.9413 256.386 39.1534 256.386ZM39.1534 253.352C40.7292 253.352 41.9602 252.583 42.8466 251.045C43.7405 249.508 44.1875 247.284 44.1875 244.375C44.1875 242.443 43.983 240.811 43.5739 239.477C43.1723 238.136 42.5928 237.121 41.8352 236.432C41.0852 235.735 40.1913 235.386 39.1534 235.386C37.5852 235.386 36.3542 236.159 35.4602 237.705C34.5663 239.25 34.1155 241.473 34.108 244.375C34.108 246.314 34.3087 247.955 34.7102 249.295C35.1193 250.629 35.6989 251.64 36.4489 252.33C37.1989 253.011 38.1004 253.352 39.1534 253.352ZM59.8097 256.386C58.0142 256.379 56.4801 255.905 55.2074 254.966C53.9347 254.027 52.9612 252.659 52.2869 250.864C51.6127 249.068 51.2756 246.905 51.2756 244.375C51.2756 241.852 51.6127 239.697 52.2869 237.909C52.9688 236.121 53.946 234.758 55.2188 233.818C56.4991 232.879 58.0294 232.409 59.8097 232.409C61.59 232.409 63.1165 232.883 64.3892 233.83C65.6619 234.769 66.6354 236.133 67.3097 237.92C67.9915 239.701 68.3324 241.852 68.3324 244.375C68.3324 246.913 67.9953 249.08 67.321 250.875C66.6468 252.663 65.6733 254.03 64.4006 254.977C63.1278 255.917 61.5975 256.386 59.8097 256.386ZM59.8097 253.352C61.3854 253.352 62.6165 252.583 63.5028 251.045C64.3968 249.508 64.8438 247.284 64.8438 244.375C64.8438 242.443 64.6392 240.811 64.2301 239.477C63.8286 238.136 63.2491 237.121 62.4915 236.432C61.7415 235.735 60.8475 235.386 59.8097 235.386C58.2415 235.386 57.0104 236.159 56.1165 237.705C55.2225 239.25 54.7718 241.473 54.7642 244.375C54.7642 246.314 54.965 247.955 55.3665 249.295C55.7756 250.629 56.3551 251.64 57.1051 252.33C57.8551 253.011 58.7566 253.352 59.8097 253.352ZM18.571 298.318C16.9422 298.318 15.5028 298.038 14.2528 297.477C13.0104 296.917 12.0369 296.144 11.3324 295.159C10.6278 294.174 10.2794 293.053 10.2869 291.795C10.2794 290.811 10.4801 289.905 10.8892 289.08C11.3059 288.246 11.8703 287.553 12.5824 287C13.2945 286.439 14.09 286.083 14.9688 285.932V285.795C13.8097 285.515 12.8816 284.894 12.1847 283.932C11.4877 282.97 11.143 281.864 11.1506 280.614C11.143 279.424 11.4574 278.364 12.0938 277.432C12.7377 276.492 13.6203 275.754 14.7415 275.216C15.8627 274.678 17.1392 274.409 18.571 274.409C19.9877 274.409 21.2528 274.682 22.3665 275.227C23.4877 275.765 24.3703 276.504 25.0142 277.443C25.6581 278.375 25.9839 279.432 25.9915 280.614C25.9839 281.864 25.6278 282.97 24.9233 283.932C24.2188 284.894 23.3021 285.515 22.1733 285.795V285.932C23.0445 286.083 23.8286 286.439 24.5256 287C25.2301 287.553 25.7907 288.246 26.2074 289.08C26.6316 289.905 26.8475 290.811 26.8551 291.795C26.8475 293.053 26.4915 294.174 25.7869 295.159C25.0824 296.144 24.1051 296.917 22.8551 297.477C21.6127 298.038 20.1847 298.318 18.571 298.318ZM18.571 295.443C19.5331 295.443 20.3665 295.284 21.071 294.966C21.7756 294.64 22.321 294.189 22.7074 293.614C23.0938 293.03 23.2907 292.348 23.2983 291.568C23.2907 290.758 23.0786 290.042 22.6619 289.42C22.2528 288.799 21.696 288.311 20.9915 287.955C20.2869 287.598 19.4801 287.42 18.571 287.42C17.6544 287.42 16.84 287.598 16.1278 287.955C15.4157 288.311 14.8551 288.799 14.446 289.42C14.0369 290.042 13.8362 290.758 13.8438 291.568C13.8362 292.348 14.0218 293.03 14.4006 293.614C14.7869 294.189 15.3362 294.64 16.0483 294.966C16.7604 295.284 17.6013 295.443 18.571 295.443ZM18.571 284.614C19.3438 284.614 20.0294 284.458 20.6278 284.148C21.2263 283.837 21.696 283.405 22.0369 282.852C22.3854 282.299 22.5634 281.652 22.571 280.909C22.5634 280.182 22.3892 279.545 22.0483 279C21.715 278.455 21.2491 278.034 20.6506 277.739C20.0521 277.436 19.3589 277.284 18.571 277.284C17.768 277.284 17.0634 277.436 16.4574 277.739C15.8589 278.034 15.393 278.455 15.0597 279C14.7263 279.545 14.5634 280.182 14.571 280.909C14.5634 281.652 14.7301 282.299 15.071 282.852C15.4119 283.405 15.8816 283.837 16.4801 284.148C17.0862 284.458 17.7831 284.614 18.571 284.614ZM39.0284 298.386C37.233 298.379 35.6989 297.905 34.4261 296.966C33.1534 296.027 32.1799 294.659 31.5057 292.864C30.8314 291.068 30.4943 288.905 30.4943 286.375C30.4943 283.852 30.8314 281.697 31.5057 279.909C32.1875 278.121 33.1648 276.758 34.4375 275.818C35.7178 274.879 37.2481 274.409 39.0284 274.409C40.8087 274.409 42.3352 274.883 43.608 275.83C44.8807 276.769 45.8542 278.133 46.5284 279.92C47.2102 281.701 47.5511 283.852 47.5511 286.375C47.5511 288.913 47.214 291.08 46.5398 292.875C45.8655 294.663 44.892 296.03 43.6193 296.977C42.3466 297.917 40.8163 298.386 39.0284 298.386ZM39.0284 295.352C40.6042 295.352 41.8352 294.583 42.7216 293.045C43.6155 291.508 44.0625 289.284 44.0625 286.375C44.0625 284.443 43.858 282.811 43.4489 281.477C43.0473 280.136 42.4678 279.121 41.7102 278.432C40.9602 277.735 40.0663 277.386 39.0284 277.386C37.4602 277.386 36.2292 278.159 35.3352 279.705C34.4413 281.25 33.9905 283.473 33.983 286.375C33.983 288.314 34.1837 289.955 34.5852 291.295C34.9943 292.629 35.5739 293.64 36.3239 294.33C37.0739 295.011 37.9754 295.352 39.0284 295.352ZM59.6847 298.386C57.8892 298.379 56.3551 297.905 55.0824 296.966C53.8097 296.027 52.8362 294.659 52.1619 292.864C51.4877 291.068 51.1506 288.905 51.1506 286.375C51.1506 283.852 51.4877 281.697 52.1619 279.909C52.8438 278.121 53.821 276.758 55.0938 275.818C56.3741 274.879 57.9044 274.409 59.6847 274.409C61.465 274.409 62.9915 274.883 64.2642 275.83C65.5369 276.769 66.5104 278.133 67.1847 279.92C67.8665 281.701 68.2074 283.852 68.2074 286.375C68.2074 288.913 67.8703 291.08 67.196 292.875C66.5218 294.663 65.5483 296.03 64.2756 296.977C63.0028 297.917 61.4725 298.386 59.6847 298.386ZM59.6847 295.352C61.2604 295.352 62.4915 294.583 63.3778 293.045C64.2718 291.508 64.7188 289.284 64.7188 286.375C64.7188 284.443 64.5142 282.811 64.1051 281.477C63.7036 280.136 63.1241 279.121 62.3665 278.432C61.6165 277.735 60.7225 277.386 59.6847 277.386C58.1165 277.386 56.8854 278.159 55.9915 279.705C55.0975 281.25 54.6468 283.473 54.6392 286.375C54.6392 288.314 54.84 289.955 55.2415 291.295C55.6506 292.629 56.2301 293.64 56.9801 294.33C57.7301 295.011 58.6316 295.352 59.6847 295.352ZM11.0682 316.727V340H7.54545V320.25H7.40909L1.84091 323.886V320.523L7.64773 316.727H11.0682ZM17.3636 340V337.455L25.2386 329.295C26.0795 328.409 26.7727 327.633 27.3182 326.966C27.8712 326.292 28.2841 325.652 28.5568 325.045C28.8295 324.439 28.9659 323.795 28.9659 323.114C28.9659 322.341 28.7841 321.674 28.4205 321.114C28.0568 320.545 27.5606 320.11 26.9318 319.807C26.303 319.496 25.5947 319.341 24.8068 319.341C23.9735 319.341 23.2462 319.511 22.625 319.852C22.0038 320.193 21.5265 320.674 21.1932 321.295C20.8598 321.917 20.6932 322.644 20.6932 323.477H17.3409C17.3409 322.061 17.6667 320.822 18.3182 319.761C18.9697 318.701 19.8636 317.879 21 317.295C22.1364 316.705 23.428 316.409 24.875 316.409C26.3371 316.409 27.625 316.701 28.7386 317.284C29.8598 317.86 30.7348 318.648 31.3636 319.648C31.9924 320.64 32.3068 321.761 32.3068 323.011C32.3068 323.875 32.1439 324.72 31.8182 325.545C31.5 326.371 30.9432 327.292 30.1477 328.307C29.3523 329.314 28.2462 330.538 26.8295 331.977L22.2045 336.818V336.989H32.6818V340H17.3636ZM45.0909 340.386C43.2955 340.379 41.7614 339.905 40.4886 338.966C39.2159 338.027 38.2424 336.659 37.5682 334.864C36.8939 333.068 36.5568 330.905 36.5568 328.375C36.5568 325.852 36.8939 323.697 37.5682 321.909C38.25 320.121 39.2273 318.758 40.5 317.818C41.7803 316.879 43.3106 316.409 45.0909 316.409C46.8712 316.409 48.3977 316.883 49.6705 317.83C50.9432 318.769 51.9167 320.133 52.5909 321.92C53.2727 323.701 53.6136 325.852 53.6136 328.375C53.6136 330.913 53.2765 333.08 52.6023 334.875C51.928 336.663 50.9545 338.03 49.6818 338.977C48.4091 339.917 46.8788 340.386 45.0909 340.386ZM45.0909 337.352C46.6667 337.352 47.8977 336.583 48.7841 335.045C49.678 333.508 50.125 331.284 50.125 328.375C50.125 326.443 49.9205 324.811 49.5114 323.477C49.1098 322.136 48.5303 321.121 47.7727 320.432C47.0227 319.735 46.1288 319.386 45.0909 319.386C43.5227 319.386 42.2917 320.159 41.3977 321.705C40.5038 323.25 40.053 325.473 40.0455 328.375C40.0455 330.314 40.2462 331.955 40.6477 333.295C41.0568 334.629 41.6364 335.64 42.3864 336.33C43.1364 337.011 44.0379 337.352 45.0909 337.352ZM65.7472 340.386C63.9517 340.379 62.4176 339.905 61.1449 338.966C59.8722 338.027 58.8987 336.659 58.2244 334.864C57.5502 333.068 57.2131 330.905 57.2131 328.375C57.2131 325.852 57.5502 323.697 58.2244 321.909C58.9063 320.121 59.8835 318.758 61.1562 317.818C62.4366 316.879 63.9669 316.409 65.7472 316.409C67.5275 316.409 69.054 316.883 70.3267 317.83C71.5994 318.769 72.5729 320.133 73.2472 321.92C73.929 323.701 74.2699 325.852 74.2699 328.375C74.2699 330.913 73.9328 333.08 73.2585 334.875C72.5843 336.663 71.6108 338.03 70.3381 338.977C69.0653 339.917 67.535 340.386 65.7472 340.386ZM65.7472 337.352C67.3229 337.352 68.554 336.583 69.4403 335.045C70.3343 333.508 70.7812 331.284 70.7812 328.375C70.7812 326.443 70.5767 324.811 70.1676 323.477C69.7661 322.136 69.1866 321.121 68.429 320.432C67.679 319.735 66.785 319.386 65.7472 319.386C64.179 319.386 62.9479 320.159 62.054 321.705C61.16 323.25 60.7093 325.473 60.7017 328.375C60.7017 330.314 60.9025 331.955 61.304 333.295C61.7131 334.629 62.2926 335.64 63.0426 336.33C63.7926 337.011 64.6941 337.352 65.7472 337.352ZM11.0682 358.727V382H7.54545V362.25H7.40909L1.84091 365.886V362.523L7.64773 358.727H11.0682ZM25.0455 382.318C23.6212 382.318 22.3409 382.045 21.2045 381.5C20.0758 380.947 19.1742 380.189 18.5 379.227C17.8258 378.265 17.4659 377.167 17.4205 375.932H20.8295C20.9129 376.932 21.3561 377.754 22.1591 378.398C22.9621 379.042 23.9242 379.364 25.0455 379.364C25.9394 379.364 26.7311 379.159 27.4205 378.75C28.1174 378.333 28.6629 377.761 29.0568 377.034C29.4583 376.307 29.6591 375.477 29.6591 374.545C29.6591 373.598 29.4545 372.754 29.0455 372.011C28.6364 371.269 28.072 370.686 27.3523 370.261C26.6402 369.837 25.822 369.621 24.8977 369.614C24.1932 369.614 23.4848 369.735 22.7727 369.977C22.0606 370.22 21.4848 370.538 21.0455 370.932L17.8295 370.455L19.1364 358.727H31.9318V361.739H22.0568L21.3182 368.25H21.4545C21.9091 367.811 22.5114 367.443 23.2614 367.148C24.0189 366.852 24.8295 366.705 25.6932 366.705C27.1098 366.705 28.3712 367.042 29.4773 367.716C30.5909 368.39 31.4659 369.311 32.1023 370.477C32.7462 371.636 33.0644 372.97 33.0568 374.477C33.0644 375.985 32.7235 377.33 32.0341 378.511C31.3523 379.693 30.4053 380.625 29.1932 381.307C27.9886 381.981 26.6061 382.318 25.0455 382.318ZM45.3097 382.386C43.5142 382.379 41.9801 381.905 40.7074 380.966C39.4347 380.027 38.4612 378.659 37.7869 376.864C37.1127 375.068 36.7756 372.905 36.7756 370.375C36.7756 367.852 37.1127 365.697 37.7869 363.909C38.4688 362.121 39.446 360.758 40.7188 359.818C41.9991 358.879 43.5294 358.409 45.3097 358.409C47.09 358.409 48.6165 358.883 49.8892 359.83C51.1619 360.769 52.1354 362.133 52.8097 363.92C53.4915 365.701 53.8324 367.852 53.8324 370.375C53.8324 372.913 53.4953 375.08 52.821 376.875C52.1468 378.663 51.1733 380.03 49.9006 380.977C48.6278 381.917 47.0975 382.386 45.3097 382.386ZM45.3097 379.352C46.8854 379.352 48.1165 378.583 49.0028 377.045C49.8968 375.508 50.3438 373.284 50.3438 370.375C50.3438 368.443 50.1392 366.811 49.7301 365.477C49.3286 364.136 48.7491 363.121 47.9915 362.432C47.2415 361.735 46.3475 361.386 45.3097 361.386C43.7415 361.386 42.5104 362.159 41.6165 363.705C40.7225 365.25 40.2718 367.473 40.2642 370.375C40.2642 372.314 40.465 373.955 40.8665 375.295C41.2756 376.629 41.8551 377.64 42.6051 378.33C43.3551 379.011 44.2566 379.352 45.3097 379.352ZM65.9659 382.386C64.1705 382.379 62.6364 381.905 61.3636 380.966C60.0909 380.027 59.1174 378.659 58.4432 376.864C57.7689 375.068 57.4318 372.905 57.4318 370.375C57.4318 367.852 57.7689 365.697 58.4432 363.909C59.125 362.121 60.1023 360.758 61.375 359.818C62.6553 358.879 64.1856 358.409 65.9659 358.409C67.7462 358.409 69.2727 358.883 70.5455 359.83C71.8182 360.769 72.7917 362.133 73.4659 363.92C74.1477 365.701 74.4886 367.852 74.4886 370.375C74.4886 372.913 74.1515 375.08 73.4773 376.875C72.803 378.663 71.8295 380.03 70.5568 380.977C69.2841 381.917 67.7538 382.386 65.9659 382.386ZM65.9659 379.352C67.5417 379.352 68.7727 378.583 69.6591 377.045C70.553 375.508 71 373.284 71 370.375C71 368.443 70.7955 366.811 70.3864 365.477C69.9848 364.136 69.4053 363.121 68.6477 362.432C67.8977 361.735 67.0038 361.386 65.9659 361.386C64.3977 361.386 63.1667 362.159 62.2727 363.705C61.3788 365.25 60.928 367.473 60.9205 370.375C60.9205 372.314 61.1212 373.955 61.5227 375.295C61.9318 376.629 62.5114 377.64 63.2614 378.33C64.0114 379.011 64.9129 379.352 65.9659 379.352Z" fill="#073141"/>
</g>
<path d="M86.125 125.523V110.159H89.1818V125.523H86.125ZM79.9773 119.364V116.307H95.3409V119.364H79.9773Z" fill="#073141"/>
<defs>
<clipPath id="clip0_2006_371">
<rect width="50" height="50" fill="white" transform="translate(24.5)"/>
</clipPath>
<clipPath id="clip1_2006_371">
<rect width="77" height="36" fill="white" transform="translate(0 97)"/>
</clipPath>
</defs>
</svg>
