<svg width="79" height="130" viewBox="0 0 79 130" fill="none" xmlns="http://www.w3.org/2000/svg">
<g clip-path="url(#clip0_2006_384)">
<path d="M47.4526 27.5668C47.4526 25.9544 46.1408 24.6428 44.5285 24.6428C42.9162 24.6428 41.6045 25.9545 41.6045 27.5668C41.6045 29.1792 42.9162 30.491 44.5285 30.491C46.1408 30.491 47.4526 29.1792 47.4526 27.5668ZM43.0692 27.5668C43.0692 26.7623 43.7238 26.1077 44.5284 26.1077C45.3331 26.1077 45.9877 26.7623 45.9877 27.5668C45.9877 28.3715 45.3331 29.0261 44.5284 29.0261C43.7238 29.0261 43.0692 28.3715 43.0692 27.5668Z" fill="#073141"/>
<path d="M63.1181 40.787C62.652 40.5245 62.3624 40.0434 62.3624 39.5313V21.8423C62.3624 21.3302 62.6519 20.849 63.118 20.5867C64.1443 20.009 64.7354 18.9188 64.6605 17.7416C64.5654 16.2466 63.3683 15.03 61.8759 14.9116C60.7366 14.8217 59.6518 15.3677 59.0493 16.3381C58.7699 16.7879 58.3079 17.0565 57.8136 17.0565H54.2388L42.421 7.67298C42.5712 7.31693 42.6544 6.92582 42.6544 6.51556C42.6544 4.86831 41.3142 3.52808 39.667 3.52808C38.0197 3.52808 36.6795 4.86831 36.6795 6.51556C36.6795 6.86713 36.741 7.20443 36.853 7.5179L24.84 17.0566H21.5204C21.0259 17.0566 20.564 16.788 20.2846 16.3381C19.6821 15.3679 18.5995 14.8206 17.4582 14.9117C15.9658 15.03 14.7685 16.2466 14.6734 17.7416C14.5983 18.9188 15.1894 20.0091 16.216 20.5868C16.682 20.8492 16.9716 21.3303 16.9716 21.8424V39.5314C16.9716 40.0435 16.6819 40.5246 16.2157 40.7871C15.1913 41.3638 14.6002 42.4519 14.673 43.627C14.7676 45.1507 15.9879 46.371 17.5114 46.4656C18.6864 46.5387 19.775 45.9473 20.3518 44.9227C20.6142 44.4567 21.0953 44.1672 21.6074 44.1672H23.6312C24.0358 44.1672 24.3636 43.8393 24.3636 43.4348C24.3636 43.0302 24.0358 42.7023 23.6312 42.7023H21.6075C20.5671 42.7023 19.5968 43.2779 19.0753 44.2043C18.7764 44.7352 18.214 45.042 17.6022 45.0037C16.8275 44.9555 16.1832 44.3109 16.135 43.5364C16.0972 42.9268 16.4036 42.3624 16.9344 42.0635C17.8609 41.5419 18.4365 40.5717 18.4365 39.5313V21.8423C18.4365 20.8019 17.8609 19.8316 16.9345 19.31C16.4027 19.0107 16.0964 18.4454 16.1352 17.8346C16.1844 17.0618 16.8029 16.433 17.5738 16.3719C18.1654 16.3255 18.728 16.608 19.0403 17.1107C19.5887 17.994 20.5159 18.5214 21.5204 18.5214H57.8136C58.8181 18.5214 59.7452 17.994 60.2937 17.1107C60.6058 16.6081 61.1663 16.3255 61.7601 16.3719C62.5311 16.433 63.1496 17.0618 63.1987 17.8347C63.2375 18.4454 62.9313 19.0108 62.3994 19.31C61.473 19.8316 60.8975 20.8018 60.8975 21.8423V39.5313C60.8975 40.5715 61.473 41.5419 62.3994 42.0635C62.9304 42.3624 63.2366 42.9268 63.1989 43.5363C63.1509 44.311 62.5063 44.9555 61.7318 45.0037C61.1211 45.0424 60.5576 44.7352 60.2587 44.2043C59.7371 43.2779 58.7669 42.7023 57.7265 42.7023H26.5597C26.1551 42.7023 25.8273 43.0302 25.8273 43.4348C25.8273 43.8393 26.1551 44.1672 26.5597 44.1672H57.7265C58.2386 44.1672 58.7197 44.4567 58.982 44.9227C59.566 45.9601 60.6632 46.5385 61.8226 46.4656C63.3462 46.3709 64.5664 45.1506 64.6608 43.6269C64.7338 42.4519 64.1426 41.3637 63.1181 40.787ZM39.667 4.99291C40.5065 4.99291 41.1895 5.67592 41.1895 6.51556C41.1895 7.35521 40.5065 8.03821 39.667 8.03821C38.8273 8.03821 38.1443 7.35521 38.1443 6.51556C38.1443 5.67592 38.8274 4.99291 39.667 4.99291ZM37.6727 8.73763C38.202 9.21311 38.9013 9.50305 39.667 9.50305C40.3747 9.50305 41.0254 9.2551 41.5378 8.84231L51.8828 17.0566H27.1958L37.6727 8.73763Z" fill="#073141"/>
<path d="M25.0955 21.626C25.5001 21.626 25.8279 21.2981 25.8279 20.8936C25.8279 20.489 25.5001 20.1611 25.0955 20.1611H20.8086C20.404 20.1611 20.0762 20.489 20.0762 20.8936V40.3301C20.0762 40.7347 20.404 41.0625 20.8086 41.0625H58.5253C58.9299 41.0625 59.2578 40.7347 59.2578 40.3301V20.8936C59.2578 20.489 58.9299 20.1611 58.5253 20.1611H28.0239C27.6193 20.1611 27.2915 20.489 27.2915 20.8936C27.2915 21.2981 27.6193 21.626 28.0239 21.626H57.7929V38.0661L55.1244 34.3738C54.8873 34.0458 54.4295 33.9725 54.1016 34.2091C53.7739 34.4461 53.7002 34.9039 53.937 35.2319L57.0922 39.5976H43.7701L50.3056 30.5549C50.3439 30.5019 50.395 30.4908 50.4311 30.4908C50.4673 30.4908 50.5184 30.5019 50.5567 30.5549L52.1994 32.8279C52.4364 33.1555 52.8942 33.2291 53.2221 32.9925C53.5499 32.7555 53.6236 32.2977 53.3868 31.9698L51.744 29.6968C51.4403 29.2766 50.9495 29.0258 50.4311 29.0259C49.9128 29.0259 49.4221 29.2767 49.1185 29.6968L44.4321 36.1811L40.9331 31.797C40.624 31.4096 40.1625 31.1876 39.667 31.1876C39.1716 31.1876 38.7101 31.4096 38.401 31.7969L34.902 36.1811L30.2157 29.6969C29.9121 29.2768 29.4213 29.026 28.903 29.026C28.9029 29.026 28.9031 29.026 28.903 29.026C28.3846 29.026 27.8937 29.2768 27.5901 29.6969L21.541 38.0664V21.626H25.0955ZM39.5459 32.7107C39.5844 32.6625 39.633 32.6524 39.6669 32.6524C39.701 32.6524 39.7496 32.6625 39.788 32.7108L43.5413 37.4135L41.9628 39.5976H37.3711L35.7926 37.4134L39.5459 32.7107ZM28.7771 30.555C28.8155 30.502 28.8667 30.4909 28.9028 30.4909C28.9389 30.4909 28.9901 30.502 29.0284 30.555L35.5639 39.5977H22.2416L28.7771 30.555Z" fill="#073141"/>
</g>
<path d="M7.31605 79H4.7848L9.39347 65.9091H12.321L16.9361 79H14.4048L10.9084 68.5938H10.8061L7.31605 79ZM7.39915 73.8672H14.3026V75.772H7.39915V73.8672ZM18.5581 79V69.1818H20.8017V70.8182H20.9039C21.0829 70.2514 21.3897 69.8146 21.8244 69.5078C22.2633 69.1967 22.764 69.0412 23.3265 69.0412C23.4544 69.0412 23.5971 69.0476 23.7548 69.0604C23.9167 69.0689 24.051 69.0838 24.1575 69.1051V71.2337C24.0595 71.1996 23.9039 71.1697 23.6909 71.1442C23.4821 71.1143 23.2797 71.0994 23.0836 71.0994C22.6618 71.0994 22.2825 71.1911 21.9458 71.3743C21.6135 71.5533 21.3514 71.8026 21.1596 72.1222C20.9679 72.4418 20.872 72.8104 20.872 73.228V79H18.5581ZM31.1248 69.1818V70.9716H25.4806V69.1818H31.1248ZM26.8741 66.8295H29.188V76.0469C29.188 76.358 29.2349 76.5966 29.3287 76.7628C29.4267 76.9247 29.5545 77.0355 29.7122 77.0952C29.8699 77.1548 30.0446 77.1847 30.2363 77.1847C30.3812 77.1847 30.5133 77.174 30.6326 77.1527C30.7562 77.1314 30.85 77.1122 30.9139 77.0952L31.3038 78.9041C31.1802 78.9467 31.0034 78.9936 30.7733 79.0447C30.5474 79.0959 30.2704 79.1257 29.9423 79.1342C29.3627 79.1513 28.8407 79.0639 28.3762 78.8722C27.9118 78.6761 27.5431 78.3736 27.2704 77.9645C27.002 77.5554 26.8699 77.044 26.8741 76.4304V66.8295ZM35.0863 79L32.3121 69.1818H34.6708L36.3967 76.0852H36.4862L38.2504 69.1818H40.5835L42.3477 76.0469H42.4435L44.1438 69.1818H46.5089L43.7283 79H41.3185L39.4776 72.3651H39.3434L37.5025 79H35.0863ZM52.1259 79.1918C51.1671 79.1918 50.3361 78.9808 49.633 78.5589C48.9299 78.1371 48.3844 77.5469 47.9966 76.7884C47.6131 76.0298 47.4213 75.1435 47.4213 74.1293C47.4213 73.1151 47.6131 72.2266 47.9966 71.4638C48.3844 70.701 48.9299 70.1087 49.633 69.6868C50.3361 69.2649 51.1671 69.054 52.1259 69.054C53.0847 69.054 53.9157 69.2649 54.6188 69.6868C55.3219 70.1087 55.8652 70.701 56.2488 71.4638C56.6365 72.2266 56.8304 73.1151 56.8304 74.1293C56.8304 75.1435 56.6365 76.0298 56.2488 76.7884C55.8652 77.5469 55.3219 78.1371 54.6188 78.5589C53.9157 78.9808 53.0847 79.1918 52.1259 79.1918ZM52.1387 77.3381C52.6586 77.3381 53.0932 77.1953 53.4426 76.9098C53.7921 76.62 54.052 76.2322 54.2225 75.7464C54.3972 75.2607 54.4846 74.7195 54.4846 74.1229C54.4846 73.522 54.3972 72.9787 54.2225 72.4929C54.052 72.0028 53.7921 71.6129 53.4426 71.3232C53.0932 71.0334 52.6586 70.8885 52.1387 70.8885C51.606 70.8885 51.1628 71.0334 50.8091 71.3232C50.4597 71.6129 50.1976 72.0028 50.0229 72.4929C49.8525 72.9787 49.7672 73.522 49.7672 74.1229C49.7672 74.7195 49.8525 75.2607 50.0229 75.7464C50.1976 76.2322 50.4597 76.62 50.8091 76.9098C51.1628 77.1953 51.606 77.3381 52.1387 77.3381ZM58.7944 79V69.1818H61.038V70.8182H61.1403C61.3192 70.2514 61.6261 69.8146 62.0607 69.5078C62.4996 69.1967 63.0004 69.0412 63.5629 69.0412C63.6907 69.0412 63.8335 69.0476 63.9911 69.0604C64.1531 69.0689 64.2873 69.0838 64.3938 69.1051V71.2337C64.2958 71.1996 64.1403 71.1697 63.9272 71.1442C63.7184 71.1143 63.516 71.0994 63.32 71.0994C62.8981 71.0994 62.5188 71.1911 62.1822 71.3743C61.8498 71.5533 61.5877 71.8026 61.396 72.1222C61.2042 72.4418 61.1083 72.8104 61.1083 73.228V79H58.7944ZM68.0405 75.919L68.0341 73.1257H68.4048L71.9332 69.1818H74.6371L70.2969 74.0142H69.8175L68.0405 75.919ZM65.9311 79V65.9091H68.245V79H65.9311ZM72.093 79L68.897 74.532L70.4567 72.902L74.8608 79H72.093Z" fill="#073141"/>
<g clip-path="url(#clip1_2006_384)">
<path d="M11.3744 127V124.455L19.2494 116.295C20.0903 115.409 20.7835 114.633 21.3289 113.966C21.882 113.292 22.2948 112.652 22.5676 112.045C22.8403 111.439 22.9767 110.795 22.9767 110.114C22.9767 109.341 22.7948 108.674 22.4312 108.114C22.0676 107.545 21.5713 107.11 20.9426 106.807C20.3138 106.496 19.6054 106.341 18.8176 106.341C17.9842 106.341 17.257 106.511 16.6357 106.852C16.0145 107.193 15.5373 107.674 15.2039 108.295C14.8706 108.917 14.7039 109.644 14.7039 110.477H11.3517C11.3517 109.061 11.6774 107.822 12.3289 106.761C12.9804 105.701 13.8744 104.879 15.0107 104.295C16.1471 103.705 17.4388 103.409 18.8857 103.409C20.3479 103.409 21.6357 103.701 22.7494 104.284C23.8706 104.86 24.7456 105.648 25.3744 106.648C26.0032 107.64 26.3176 108.761 26.3176 110.011C26.3176 110.875 26.1547 111.72 25.8289 112.545C25.5107 113.371 24.9539 114.292 24.1585 115.307C23.363 116.314 22.257 117.538 20.8403 118.977L16.2153 123.818V123.989H26.6926V127H11.3744ZM39.1017 127.386C37.3062 127.379 35.7721 126.905 34.4994 125.966C33.2267 125.027 32.2532 123.659 31.5789 121.864C30.9047 120.068 30.5676 117.905 30.5676 115.375C30.5676 112.852 30.9047 110.697 31.5789 108.909C32.2607 107.121 33.238 105.758 34.5107 104.818C35.791 103.879 37.3213 103.409 39.1017 103.409C40.882 103.409 42.4085 103.883 43.6812 104.83C44.9539 105.769 45.9274 107.133 46.6017 108.92C47.2835 110.701 47.6244 112.852 47.6244 115.375C47.6244 117.913 47.2873 120.08 46.613 121.875C45.9388 123.663 44.9653 125.03 43.6926 125.977C42.4198 126.917 40.8895 127.386 39.1017 127.386ZM39.1017 124.352C40.6774 124.352 41.9085 123.583 42.7948 122.045C43.6888 120.508 44.1357 118.284 44.1357 115.375C44.1357 113.443 43.9312 111.811 43.5221 110.477C43.1206 109.136 42.541 108.121 41.7835 107.432C41.0335 106.735 40.1395 106.386 39.1017 106.386C37.5335 106.386 36.3024 107.159 35.4085 108.705C34.5145 110.25 34.0638 112.473 34.0562 115.375C34.0562 117.314 34.257 118.955 34.6585 120.295C35.0676 121.629 35.6471 122.64 36.3971 123.33C37.1471 124.011 38.0486 124.352 39.1017 124.352ZM59.7579 127.386C57.9624 127.379 56.4284 126.905 55.1556 125.966C53.8829 125.027 52.9094 123.659 52.2352 121.864C51.5609 120.068 51.2238 117.905 51.2238 115.375C51.2238 112.852 51.5609 110.697 52.2352 108.909C52.917 107.121 53.8943 105.758 55.167 104.818C56.4473 103.879 57.9776 103.409 59.7579 103.409C61.5382 103.409 63.0647 103.883 64.3374 104.83C65.6102 105.769 66.5837 107.133 67.2579 108.92C67.9397 110.701 68.2806 112.852 68.2806 115.375C68.2806 117.913 67.9435 120.08 67.2693 121.875C66.595 123.663 65.6215 125.03 64.3488 125.977C63.0761 126.917 61.5458 127.386 59.7579 127.386ZM59.7579 124.352C61.3337 124.352 62.5647 123.583 63.4511 122.045C64.345 120.508 64.792 118.284 64.792 115.375C64.792 113.443 64.5874 111.811 64.1784 110.477C63.7768 109.136 63.1973 108.121 62.4397 107.432C61.6897 106.735 60.7958 106.386 59.7579 106.386C58.1897 106.386 56.9587 107.159 56.0647 108.705C55.1708 110.25 54.72 112.473 54.7124 115.375C54.7124 117.314 54.9132 118.955 55.3147 120.295C55.7238 121.629 56.3034 122.64 57.0534 123.33C57.8034 124.011 58.7049 124.352 59.7579 124.352ZM10.8857 164.455V161.614L20.9426 145.727H23.1812V149.909H21.7607L14.5676 161.295V161.477H28.3517V164.455H10.8857ZM21.9198 169V163.591L21.9426 162.295V145.727H25.2721V169H21.9198ZM40.4142 169.386C38.6187 169.379 37.0846 168.905 35.8119 167.966C34.5392 167.027 33.5657 165.659 32.8914 163.864C32.2172 162.068 31.8801 159.905 31.8801 157.375C31.8801 154.852 32.2172 152.697 32.8914 150.909C33.5732 149.121 34.5505 147.758 35.8232 146.818C37.1035 145.879 38.6338 145.409 40.4142 145.409C42.1945 145.409 43.721 145.883 44.9937 146.83C46.2664 147.769 47.2399 149.133 47.9142 150.92C48.596 152.701 48.9369 154.852 48.9369 157.375C48.9369 159.913 48.5998 162.08 47.9255 163.875C47.2513 165.663 46.2778 167.03 45.0051 167.977C43.7323 168.917 42.202 169.386 40.4142 169.386ZM40.4142 166.352C41.9899 166.352 43.221 165.583 44.1073 164.045C45.0013 162.508 45.4482 160.284 45.4482 157.375C45.4482 155.443 45.2437 153.811 44.8346 152.477C44.4331 151.136 43.8535 150.121 43.096 149.432C42.346 148.735 41.452 148.386 40.4142 148.386C38.846 148.386 37.6149 149.159 36.721 150.705C35.827 152.25 35.3763 154.473 35.3687 157.375C35.3687 159.314 35.5695 160.955 35.971 162.295C36.3801 163.629 36.9596 164.64 37.7096 165.33C38.4596 166.011 39.3611 166.352 40.4142 166.352ZM61.0704 169.386C59.2749 169.379 57.7409 168.905 56.4681 167.966C55.1954 167.027 54.2219 165.659 53.5477 163.864C52.8734 162.068 52.5363 159.905 52.5363 157.375C52.5363 154.852 52.8734 152.697 53.5477 150.909C54.2295 149.121 55.2068 147.758 56.4795 146.818C57.7598 145.879 59.2901 145.409 61.0704 145.409C62.8507 145.409 64.3772 145.883 65.6499 146.83C66.9227 147.769 67.8962 149.133 68.5704 150.92C69.2522 152.701 69.5931 154.852 69.5931 157.375C69.5931 159.913 69.256 162.08 68.5818 163.875C67.9075 165.663 66.934 167.03 65.6613 167.977C64.3886 168.917 62.8583 169.386 61.0704 169.386ZM61.0704 166.352C62.6462 166.352 63.8772 165.583 64.7636 164.045C65.6575 162.508 66.1045 160.284 66.1045 157.375C66.1045 155.443 65.8999 153.811 65.4909 152.477C65.0893 151.136 64.5098 150.121 63.7522 149.432C63.0022 148.735 62.1083 148.386 61.0704 148.386C59.5022 148.386 58.2712 149.159 57.3772 150.705C56.4833 152.25 56.0325 154.473 56.0249 157.375C56.0249 159.314 56.2257 160.955 56.6272 162.295C57.0363 163.629 57.6159 164.64 58.3659 165.33C59.1159 166.011 60.0174 166.352 61.0704 166.352ZM19.4994 211.318C18.4615 211.303 17.4388 211.114 16.4312 210.75C15.4312 210.386 14.5221 209.78 13.7039 208.932C12.8857 208.083 12.2304 206.943 11.738 205.511C11.2532 204.08 11.0107 202.292 11.0107 200.148C11.0107 198.117 11.2115 196.314 11.613 194.739C12.0221 193.163 12.6092 191.833 13.3744 190.75C14.1395 189.659 15.0638 188.83 16.1471 188.261C17.2304 187.693 18.4463 187.409 19.7948 187.409C21.1812 187.409 22.4123 187.682 23.488 188.227C24.5638 188.773 25.435 189.527 26.1017 190.489C26.7759 191.451 27.2039 192.545 27.3857 193.773H23.9198C23.685 192.803 23.2191 192.011 22.5221 191.398C21.8251 190.784 20.916 190.477 19.7948 190.477C18.0903 190.477 16.7607 191.22 15.8062 192.705C14.8592 194.189 14.382 196.254 14.3744 198.898H14.5448C14.9463 198.239 15.4388 197.678 16.0221 197.216C16.613 196.746 17.2721 196.386 17.9994 196.136C18.7342 195.879 19.507 195.75 20.3176 195.75C21.666 195.75 22.8857 196.08 23.9767 196.739C25.0751 197.39 25.9501 198.292 26.6017 199.443C27.2532 200.595 27.5789 201.913 27.5789 203.398C27.5789 204.883 27.2418 206.227 26.5676 207.432C25.9009 208.636 24.9615 209.591 23.7494 210.295C22.5373 210.992 21.1206 211.333 19.4994 211.318ZM19.488 208.364C20.382 208.364 21.1812 208.144 21.8857 207.705C22.5903 207.265 23.1471 206.674 23.5562 205.932C23.9653 205.189 24.1698 204.36 24.1698 203.443C24.1698 202.549 23.9691 201.735 23.5676 201C23.1736 200.265 22.6282 199.682 21.9312 199.25C21.2418 198.818 20.4539 198.602 19.5676 198.602C18.8933 198.602 18.2683 198.731 17.6926 198.989C17.1244 199.246 16.6244 199.602 16.1926 200.057C15.7607 200.511 15.4198 201.034 15.1698 201.625C14.9274 202.208 14.8062 202.826 14.8062 203.477C14.8062 204.348 15.007 205.155 15.4085 205.898C15.8176 206.64 16.3744 207.239 17.0789 207.693C17.791 208.14 18.5941 208.364 19.488 208.364ZM39.8204 211.386C38.0249 211.379 36.4909 210.905 35.2181 209.966C33.9454 209.027 32.9719 207.659 32.2977 205.864C31.6234 204.068 31.2863 201.905 31.2863 199.375C31.2863 196.852 31.6234 194.697 32.2977 192.909C32.9795 191.121 33.9568 189.758 35.2295 188.818C36.5098 187.879 38.0401 187.409 39.8204 187.409C41.6007 187.409 43.1272 187.883 44.3999 188.83C45.6727 189.769 46.6462 191.133 47.3204 192.92C48.0022 194.701 48.3431 196.852 48.3431 199.375C48.3431 201.913 48.006 204.08 47.3318 205.875C46.6575 207.663 45.684 209.03 44.4113 209.977C43.1386 210.917 41.6083 211.386 39.8204 211.386ZM39.8204 208.352C41.3962 208.352 42.6272 207.583 43.5136 206.045C44.4075 204.508 44.8545 202.284 44.8545 199.375C44.8545 197.443 44.6499 195.811 44.2409 194.477C43.8393 193.136 43.2598 192.121 42.5022 191.432C41.7522 190.735 40.8583 190.386 39.8204 190.386C38.2522 190.386 37.0212 191.159 36.1272 192.705C35.2333 194.25 34.7825 196.473 34.7749 199.375C34.7749 201.314 34.9757 202.955 35.3772 204.295C35.7863 205.629 36.3659 206.64 37.1159 207.33C37.8659 208.011 38.7674 208.352 39.8204 208.352ZM60.4767 211.386C58.6812 211.379 57.1471 210.905 55.8744 209.966C54.6017 209.027 53.6282 207.659 52.9539 205.864C52.2797 204.068 51.9426 201.905 51.9426 199.375C51.9426 196.852 52.2797 194.697 52.9539 192.909C53.6357 191.121 54.613 189.758 55.8857 188.818C57.166 187.879 58.6963 187.409 60.4767 187.409C62.257 187.409 63.7835 187.883 65.0562 188.83C66.3289 189.769 67.3024 191.133 67.9767 192.92C68.6585 194.701 68.9994 196.852 68.9994 199.375C68.9994 201.913 68.6623 204.08 67.988 205.875C67.3138 207.663 66.3403 209.03 65.0676 209.977C63.7948 210.917 62.2645 211.386 60.4767 211.386ZM60.4767 208.352C62.0524 208.352 63.2835 207.583 64.1698 206.045C65.0638 204.508 65.5107 202.284 65.5107 199.375C65.5107 197.443 65.3062 195.811 64.8971 194.477C64.4956 193.136 63.916 192.121 63.1585 191.432C62.4085 190.735 61.5145 190.386 60.4767 190.386C58.9085 190.386 57.6774 191.159 56.7835 192.705C55.8895 194.25 55.4388 196.473 55.4312 199.375C55.4312 201.314 55.632 202.955 56.0335 204.295C56.4426 205.629 57.0221 206.64 57.7721 207.33C58.5221 208.011 59.4236 208.352 60.4767 208.352ZM19.238 253.318C17.6092 253.318 16.1698 253.038 14.9198 252.477C13.6774 251.917 12.7039 251.144 11.9994 250.159C11.2948 249.174 10.9463 248.053 10.9539 246.795C10.9463 245.811 11.1471 244.905 11.5562 244.08C11.9729 243.246 12.5373 242.553 13.2494 242C13.9615 241.439 14.757 241.083 15.6357 240.932V240.795C14.4767 240.515 13.5486 239.894 12.8517 238.932C12.1547 237.97 11.81 236.864 11.8176 235.614C11.81 234.424 12.1244 233.364 12.7607 232.432C13.4047 231.492 14.2873 230.754 15.4085 230.216C16.5297 229.678 17.8062 229.409 19.238 229.409C20.6547 229.409 21.9198 229.682 23.0335 230.227C24.1547 230.765 25.0373 231.504 25.6812 232.443C26.3251 233.375 26.6509 234.432 26.6585 235.614C26.6509 236.864 26.2948 237.97 25.5903 238.932C24.8857 239.894 23.9691 240.515 22.8403 240.795V240.932C23.7115 241.083 24.4956 241.439 25.1926 242C25.8971 242.553 26.4577 243.246 26.8744 244.08C27.2986 244.905 27.5145 245.811 27.5221 246.795C27.5145 248.053 27.1585 249.174 26.4539 250.159C25.7494 251.144 24.7721 251.917 23.5221 252.477C22.2797 253.038 20.8517 253.318 19.238 253.318ZM19.238 250.443C20.2001 250.443 21.0335 250.284 21.738 249.966C22.4426 249.64 22.988 249.189 23.3744 248.614C23.7607 248.03 23.9577 247.348 23.9653 246.568C23.9577 245.758 23.7456 245.042 23.3289 244.42C22.9198 243.799 22.363 243.311 21.6585 242.955C20.9539 242.598 20.1471 242.42 19.238 242.42C18.3213 242.42 17.507 242.598 16.7948 242.955C16.0827 243.311 15.5221 243.799 15.113 244.42C14.7039 245.042 14.5032 245.758 14.5107 246.568C14.5032 247.348 14.6888 248.03 15.0676 248.614C15.4539 249.189 16.0032 249.64 16.7153 249.966C17.4274 250.284 18.2683 250.443 19.238 250.443ZM19.238 239.614C20.0107 239.614 20.6963 239.458 21.2948 239.148C21.8933 238.837 22.363 238.405 22.7039 237.852C23.0524 237.299 23.2304 236.652 23.238 235.909C23.2304 235.182 23.0562 234.545 22.7153 234C22.382 233.455 21.916 233.034 21.3176 232.739C20.7191 232.436 20.0259 232.284 19.238 232.284C18.435 232.284 17.7304 232.436 17.1244 232.739C16.5259 233.034 16.06 233.455 15.7267 234C15.3933 234.545 15.2304 235.182 15.238 235.909C15.2304 236.652 15.3971 237.299 15.738 237.852C16.0789 238.405 16.5486 238.837 17.1471 239.148C17.7532 239.458 18.4501 239.614 19.238 239.614ZM39.6954 253.386C37.8999 253.379 36.3659 252.905 35.0931 251.966C33.8204 251.027 32.8469 249.659 32.1727 247.864C31.4984 246.068 31.1613 243.905 31.1613 241.375C31.1613 238.852 31.4984 236.697 32.1727 234.909C32.8545 233.121 33.8318 231.758 35.1045 230.818C36.3848 229.879 37.9151 229.409 39.6954 229.409C41.4757 229.409 43.0022 229.883 44.2749 230.83C45.5477 231.769 46.5212 233.133 47.1954 234.92C47.8772 236.701 48.2181 238.852 48.2181 241.375C48.2181 243.913 47.881 246.08 47.2068 247.875C46.5325 249.663 45.559 251.03 44.2863 251.977C43.0136 252.917 41.4833 253.386 39.6954 253.386ZM39.6954 250.352C41.2712 250.352 42.5022 249.583 43.3886 248.045C44.2825 246.508 44.7295 244.284 44.7295 241.375C44.7295 239.443 44.5249 237.811 44.1159 236.477C43.7143 235.136 43.1348 234.121 42.3772 233.432C41.6272 232.735 40.7333 232.386 39.6954 232.386C38.1272 232.386 36.8962 233.159 36.0022 234.705C35.1083 236.25 34.6575 238.473 34.6499 241.375C34.6499 243.314 34.8507 244.955 35.2522 246.295C35.6613 247.629 36.2409 248.64 36.9909 249.33C37.7409 250.011 38.6424 250.352 39.6954 250.352ZM60.3517 253.386C58.5562 253.379 57.0221 252.905 55.7494 251.966C54.4767 251.027 53.5032 249.659 52.8289 247.864C52.1547 246.068 51.8176 243.905 51.8176 241.375C51.8176 238.852 52.1547 236.697 52.8289 234.909C53.5107 233.121 54.488 231.758 55.7607 230.818C57.041 229.879 58.5713 229.409 60.3517 229.409C62.132 229.409 63.6585 229.883 64.9312 230.83C66.2039 231.769 67.1774 233.133 67.8517 234.92C68.5335 236.701 68.8744 238.852 68.8744 241.375C68.8744 243.913 68.5373 246.08 67.863 247.875C67.1888 249.663 66.2153 251.03 64.9426 251.977C63.6698 252.917 62.1395 253.386 60.3517 253.386ZM60.3517 250.352C61.9274 250.352 63.1585 249.583 64.0448 248.045C64.9388 246.508 65.3857 244.284 65.3857 241.375C65.3857 239.443 65.1812 237.811 64.7721 236.477C64.3706 235.136 63.791 234.121 63.0335 233.432C62.2835 232.735 61.3895 232.386 60.3517 232.386C58.7835 232.386 57.5524 233.159 56.6585 234.705C55.7645 236.25 55.3138 238.473 55.3062 241.375C55.3062 243.314 55.507 244.955 55.9085 246.295C56.3176 247.629 56.8971 248.64 57.6471 249.33C58.3971 250.011 59.2986 250.352 60.3517 250.352ZM11.7352 271.727V295H8.21245V275.25H8.07608L2.5079 278.886V275.523L8.31472 271.727H11.7352ZM26.1329 295.386C24.3374 295.379 22.8034 294.905 21.5306 293.966C20.2579 293.027 19.2844 291.659 18.6102 289.864C17.9359 288.068 17.5988 285.905 17.5988 283.375C17.5988 280.852 17.9359 278.697 18.6102 276.909C19.292 275.121 20.2693 273.758 21.542 272.818C22.8223 271.879 24.3526 271.409 26.1329 271.409C27.9132 271.409 29.4397 271.883 30.7124 272.83C31.9852 273.769 32.9587 275.133 33.6329 276.92C34.3147 278.701 34.6556 280.852 34.6556 283.375C34.6556 285.913 34.3185 288.08 33.6443 289.875C32.97 291.663 31.9965 293.03 30.7238 293.977C29.4511 294.917 27.9208 295.386 26.1329 295.386ZM26.1329 292.352C27.7087 292.352 28.9397 291.583 29.8261 290.045C30.72 288.508 31.167 286.284 31.167 283.375C31.167 281.443 30.9624 279.811 30.5534 278.477C30.1518 277.136 29.5723 276.121 28.8147 275.432C28.0647 274.735 27.1708 274.386 26.1329 274.386C24.5647 274.386 23.3337 275.159 22.4397 276.705C21.5458 278.25 21.095 280.473 21.0874 283.375C21.0874 285.314 21.2882 286.955 21.6897 288.295C22.0988 289.629 22.6784 290.64 23.4284 291.33C24.1784 292.011 25.0799 292.352 26.1329 292.352ZM46.7892 295.386C44.9937 295.379 43.4596 294.905 42.1869 293.966C40.9142 293.027 39.9407 291.659 39.2664 289.864C38.5922 288.068 38.2551 285.905 38.2551 283.375C38.2551 280.852 38.5922 278.697 39.2664 276.909C39.9482 275.121 40.9255 273.758 42.1982 272.818C43.4785 271.879 45.0088 271.409 46.7892 271.409C48.5695 271.409 50.096 271.883 51.3687 272.83C52.6414 273.769 53.6149 275.133 54.2892 276.92C54.971 278.701 55.3119 280.852 55.3119 283.375C55.3119 285.913 54.9748 288.08 54.3005 289.875C53.6263 291.663 52.6528 293.03 51.3801 293.977C50.1073 294.917 48.577 295.386 46.7892 295.386ZM46.7892 292.352C48.3649 292.352 49.596 291.583 50.4823 290.045C51.3763 288.508 51.8232 286.284 51.8232 283.375C51.8232 281.443 51.6187 279.811 51.2096 278.477C50.8081 277.136 50.2285 276.121 49.471 275.432C48.721 274.735 47.827 274.386 46.7892 274.386C45.221 274.386 43.9899 275.159 43.096 276.705C42.202 278.25 41.7513 280.473 41.7437 283.375C41.7437 285.314 41.9445 286.955 42.346 288.295C42.7551 289.629 43.3346 290.64 44.0846 291.33C44.8346 292.011 45.7361 292.352 46.7892 292.352ZM67.4454 295.386C65.6499 295.379 64.1159 294.905 62.8431 293.966C61.5704 293.027 60.5969 291.659 59.9227 289.864C59.2484 288.068 58.9113 285.905 58.9113 283.375C58.9113 280.852 59.2484 278.697 59.9227 276.909C60.6045 275.121 61.5818 273.758 62.8545 272.818C64.1348 271.879 65.6651 271.409 67.4454 271.409C69.2257 271.409 70.7522 271.883 72.0249 272.83C73.2977 273.769 74.2712 275.133 74.9454 276.92C75.6272 278.701 75.9681 280.852 75.9681 283.375C75.9681 285.913 75.631 288.08 74.9568 289.875C74.2825 291.663 73.309 293.03 72.0363 293.977C70.7636 294.917 69.2333 295.386 67.4454 295.386ZM67.4454 292.352C69.0212 292.352 70.2522 291.583 71.1386 290.045C72.0325 288.508 72.4795 286.284 72.4795 283.375C72.4795 281.443 72.2749 279.811 71.8659 278.477C71.4643 277.136 70.8848 276.121 70.1272 275.432C69.3772 274.735 68.4833 274.386 67.4454 274.386C65.8772 274.386 64.6462 275.159 63.7522 276.705C62.8583 278.25 62.4075 280.473 62.3999 283.375C62.3999 285.314 62.6007 286.955 63.0022 288.295C63.4113 289.629 63.9909 290.64 64.7409 291.33C65.4909 292.011 66.3924 292.352 67.4454 292.352Z" fill="#073141"/>
</g>
<defs>
<clipPath id="clip0_2006_384">
<rect width="50" height="50" fill="white" transform="translate(14.667)"/>
</clipPath>
<clipPath id="clip1_2006_384">
<rect width="78" height="36" fill="white" transform="translate(0.666992 94)"/>
</clipPath>
</defs>
</svg>
