<svg width="124" height="101" viewBox="0 0 124 101" fill="none" xmlns="http://www.w3.org/2000/svg">
<path d="M41.3234 34.8206C41.3234 34.5666 41.3234 30.8711 41.3234 30.8711H39.1274C39.1274 30.8711 39.1274 34.5093 39.1274 34.6241C39.1274 35.2959 38.5047 35.7466 37.4559 35.7466C36.3579 35.7466 35.7597 35.3123 35.7597 34.6158C35.7597 34.5011 35.7597 30.8711 35.7597 30.8711H33.5391C33.5391 30.8711 33.5391 34.3208 33.5391 34.6158C33.5391 36.5659 35.1369 37.3936 37.3657 37.3936C39.7502 37.3936 41.3234 36.5578 41.3234 34.8206Z" fill="#073141"/>
<path d="M48.7194 37.3034V35.5909H44.8027V30.8711H42.582V37.3034H48.7194Z" fill="#073141"/>
<path d="M55.3185 32.4854V30.8711H47.6406V32.4854H50.3528V37.3034H52.598V32.4854H55.3185Z" fill="#073141"/>
<path d="M58.269 37.3034V30.8711H56.0156V37.3034H58.269Z" fill="#073141"/>
<path d="M68.6079 37.3034V30.8711H65.8301L64.0766 34.7306L62.4051 30.8711H59.5371V37.3034H61.6266V33.8293L63.1343 37.3034H65.0026L66.5266 33.8293V37.3034H68.6079Z" fill="#073141"/>
<path d="M72.0908 36.1153H75.5652L76.1307 37.3034H78.4987L75.2538 30.8711H72.6072L69.1738 37.3034H71.4927L72.0908 36.1153ZM74.8687 34.6731H72.812L73.6232 33.1244L73.869 32.5346L74.0985 33.1163L74.8687 34.6731Z" fill="#073141"/>
<path d="M85.4607 32.4854V30.8711H77.7832V32.4854H80.4954V37.3034H82.7407V32.4854H85.4607Z" fill="#073141"/>
<path d="M92.9273 37.3034V35.7056H88.3157V34.8698H92.739V33.3048H88.3157V32.4771H92.8707V30.8711H86.1523V37.3034H92.9273Z" fill="#073141"/>
<path d="M50.2875 40.7227H48.1651C48.1651 40.7227 46.7803 44.7705 46.7803 44.8688C46.7803 44.7705 45.4856 40.7227 45.4856 40.7227H43.1831C43.1831 40.7227 41.8966 44.7705 41.8966 44.8688C41.8966 44.7705 40.5036 40.7227 40.5036 40.7227H38.1191L40.5283 47.155H42.9291C42.9291 47.155 44.2238 43.312 44.232 43.2055C44.2401 43.312 45.5266 47.155 45.5266 47.155H47.9356L50.2875 40.7227Z" fill="#073141"/>
<path d="M53.1908 47.155V40.7227H50.9375V47.155H53.1908Z" fill="#073141"/>
<path d="M61.9547 47.155V40.7227H59.857V44.2215L56.7679 40.7227H54.457V47.155H56.5712V43.5742L59.7587 47.155H61.9547Z" fill="#073141"/>
<path d="M70.7338 47.155V40.7227H68.6362V44.2215L65.547 40.7227H63.2363V47.155H65.3503V43.5742L68.5378 47.155H70.7338Z" fill="#073141"/>
<path d="M78.7882 47.155V45.5572H74.1751V44.7213H78.5997V43.1563H74.1751V42.3287H78.7309V40.7227H72.0117V47.155H78.7882Z" fill="#073141"/>
<path d="M87.4527 42.681C87.4527 42.0993 87.3127 41.6813 87.0177 41.3782C86.6327 40.9685 85.9694 40.7227 84.9527 40.7227H79.832V47.155H82.0199V44.8853H84.011L85.6094 47.155H88.051L86.1094 44.5328C86.5427 44.4673 86.896 44.2052 87.1244 43.8938C87.3294 43.607 87.4527 43.1808 87.4527 42.681ZM85.3227 42.8858C85.3227 42.9925 85.306 43.1235 85.2477 43.2218C85.166 43.3857 84.9527 43.4513 84.601 43.4513H82.028V42.2795H84.5594C84.9044 42.2795 85.1344 42.3368 85.2477 42.55C85.306 42.6318 85.3227 42.763 85.3227 42.8858Z" fill="#073141"/>
<path d="M42.2473 53.4835C42.2473 53.3783 42.2473 50.3403 42.2473 50.3403H41.4802C41.4802 50.3403 41.4802 53.3658 41.4802 53.434C41.4802 54.164 40.7933 54.5787 39.8033 54.5787C38.634 54.5787 38.0585 54.1332 38.0585 53.4278C38.0585 53.3597 38.0585 50.3403 38.0585 50.3403H37.2852C37.2852 50.3403 37.2852 53.2855 37.2852 53.403C37.2852 54.69 38.2875 55.2592 39.7725 55.2592C41.3068 55.2592 42.2473 54.6528 42.2473 53.4835Z" fill="#073141"/>
<path d="M47.7535 55.1973V54.4858H44.4061V50.3403H43.6328V55.1973H47.7535Z" fill="#073141"/>
<path d="M52.1467 51.0457V50.3403H46.9863V51.0457H49.1767V55.1973H49.9563V51.0457H52.1467Z" fill="#073141"/>
<path d="M57.6461 51.7136C57.6461 51.3671 57.5717 51.1134 57.4419 50.9093C57.2129 50.5689 56.7736 50.3401 56.0436 50.3401H52.9004V55.1971H53.6614V53.1491H55.8764L57.2314 55.1971H58.1224L56.6561 53.0191C57.0272 52.9759 57.3181 52.7654 57.4727 52.4933C57.5842 52.3076 57.6461 52.0354 57.6461 51.7136ZM56.8787 51.7754C56.8787 51.9116 56.8479 52.0788 56.7922 52.1901C56.6932 52.3694 56.4642 52.4623 56.0931 52.4684H53.6676C53.6676 52.4561 53.6676 51.0331 53.6676 51.0331H55.9507C56.4147 51.0331 56.6622 51.1444 56.7922 51.3548C56.8479 51.4538 56.8787 51.6208 56.8787 51.7754Z" fill="#073141"/>
<path d="M59.846 53.997H62.8716L63.4903 55.1973H64.3195L61.8568 50.3403H60.9473L58.4043 55.1973H59.2148L59.846 53.997ZM62.5498 53.3102H60.1801L61.1638 51.4478L61.3805 50.9962L61.597 51.4478L62.5498 53.3102Z" fill="#073141"/>
<path d="M72.168 54.7333C72.3599 54.5105 72.4465 54.195 72.4465 53.8547C72.4465 53.533 72.3537 53.2112 72.1619 53.0132C71.97 52.8277 71.6607 52.673 71.3204 52.642C71.5184 52.611 71.673 52.4873 71.7782 52.3573C71.9454 52.1655 72.0442 51.8562 72.0442 51.5468C72.0442 51.2188 71.9454 50.9218 71.7349 50.7177C71.506 50.4888 71.1162 50.3403 70.5717 50.3403H67.3047V55.1973H70.813C71.4689 55.1973 71.9267 55.0303 72.168 54.7333ZM71.246 51.7015C71.246 51.918 71.178 52.1098 71.0605 52.2212C70.9429 52.3512 70.7449 52.4068 70.5345 52.4068H68.0595V51.0085H70.3922C70.6769 51.0085 70.8934 51.0642 71.0419 51.2003C71.1719 51.324 71.246 51.5035 71.246 51.7015ZM71.4935 54.263C71.3389 54.4363 71.0729 54.523 70.683 54.523H68.0595V53.0813H70.7017C71.0605 53.0813 71.308 53.1555 71.4565 53.2978C71.5925 53.4278 71.6484 53.5948 71.6484 53.7867C71.6484 53.9847 71.605 54.1517 71.4935 54.263Z" fill="#073141"/>
<path d="M78.0643 55.1973V54.4858H74.2902V53.0998H77.9158V52.3945H74.2902V51.0457H78.021V50.3403H73.5352V55.1973H78.0643Z" fill="#073141"/>
<path d="M84.1098 53.7617C84.1098 52.9697 83.5848 52.5614 82.2914 52.4129C82.0743 52.382 81.6039 52.3325 81.3503 52.3015C80.1499 52.1592 79.7849 51.9984 79.7849 51.5839C79.7849 51.1817 80.1871 50.9527 81.3998 50.9527C82.3398 50.9527 82.8231 51.1384 83.0648 51.4724C83.1331 51.5652 83.1698 51.6767 83.1881 51.7632H84.0164C83.9931 51.6209 83.9364 51.4229 83.8498 51.262C83.5164 50.6867 82.8298 50.272 81.3998 50.272C79.6921 50.2659 78.9868 50.8847 78.9868 51.6519C78.9868 52.419 79.5374 52.8089 80.9668 52.976C81.2143 53.0069 81.6534 53.0564 81.8701 53.0812C82.9781 53.2172 83.3247 53.3844 83.3247 53.8484C83.3247 54.2754 82.9281 54.5847 81.6596 54.5847C80.6203 54.5847 80.0633 54.399 79.8406 54.0402C79.7726 53.9412 79.7293 53.7865 79.7231 53.6814H78.9062C78.9249 53.904 78.9868 54.1454 79.0981 54.3372C79.4199 54.925 80.1748 55.2654 81.6349 55.2654C83.3798 55.2654 84.1098 54.7022 84.1098 53.7617Z" fill="#073141"/>
<path d="M89.6561 51.0457V50.3403H84.4961V51.0457H86.6861V55.1973H87.4661V51.0457H89.6561Z" fill="#073141"/>
<path d="M35.0957 59.419C35.0957 58.924 34.9967 58.5898 34.8295 58.3361C34.5945 57.971 34.1365 57.7793 33.3384 57.7793H30.2695V62.6363H31.0367V61.0523C31.0367 61.0523 33.2024 61.0523 33.3075 61.0523C34.0562 61.0461 34.5697 60.873 34.842 60.477C35.0152 60.2356 35.0957 59.8891 35.0957 59.419ZM34.316 59.419C34.316 59.6663 34.2912 59.852 34.2109 59.9758C34.0685 60.2046 33.7777 60.347 33.1775 60.347C33.1219 60.347 31.0367 60.347 31.0367 60.347V58.4723H33.2024C33.7654 58.4723 34.0562 58.6021 34.2109 58.8558C34.285 58.9671 34.316 59.1715 34.316 59.419Z" fill="#073141"/>
<path d="M40.6952 62.6363V61.9248H36.9208V60.5388H40.5467V59.8335H36.9208V58.4846H40.6518V57.7793H36.166V62.6363H40.6952Z" fill="#073141"/>
<path d="M46.5972 59.1528C46.5972 58.8063 46.5231 58.5526 46.3931 58.3485C46.1641 58.0081 45.7249 57.7793 44.9947 57.7793H41.8516V62.6363H42.6126V60.5883H44.8277L46.1827 62.6363H47.0737L45.6072 60.4583C45.9786 60.4151 46.2694 60.2046 46.4241 59.9325C46.5354 59.7468 46.5972 59.4746 46.5972 59.1528ZM45.8301 59.2146C45.8301 59.3508 45.7991 59.518 45.7434 59.6293C45.6444 59.8086 45.4154 59.9015 45.0442 59.9076H42.6187C42.6187 59.8953 42.6187 58.4723 42.6187 58.4723H44.9019C45.3659 58.4723 45.6134 58.5836 45.7434 58.794C45.7991 58.893 45.8301 59.06 45.8301 59.2146Z" fill="#073141"/>
<path d="M52.3325 58.4846V57.7793H48.0137V62.6363H48.7808V60.5698H52.1717V59.8458H48.7808V58.4846H52.3325Z" fill="#073141"/>
<path d="M55.857 57.6924C54.8237 57.6924 54.1122 57.9461 53.6047 58.4782C53.1779 58.8927 52.9922 59.4682 52.9922 60.1921C52.9922 60.9841 53.2335 61.5781 53.679 61.9802C54.1555 62.4567 54.8855 62.704 55.857 62.704C56.8594 62.704 57.6389 62.4567 58.103 61.9554C58.5052 61.5471 58.7155 60.9656 58.7155 60.1859C58.7155 59.4311 58.536 58.8555 58.1092 58.4472C57.6204 57.9399 56.8902 57.6924 55.857 57.6924ZM55.857 62.0112C55.1764 62.0112 54.6937 61.8627 54.3287 61.5657C53.9575 61.2626 53.778 60.7984 53.778 60.2044C53.778 59.6475 53.9327 59.1835 54.2297 58.905C54.57 58.5834 55.0897 58.3915 55.8509 58.3915C56.6365 58.3915 57.1254 58.5772 57.4904 58.8989C57.7999 59.1712 57.9359 59.6537 57.9359 60.1982C57.9359 60.7489 57.7937 61.2192 57.478 61.5037C57.113 61.8441 56.5995 62.0112 55.857 62.0112Z" fill="#073141"/>
<path d="M64.5172 59.1528C64.5172 58.8063 64.4428 58.5526 64.313 58.3485C64.084 58.0081 63.6446 57.7793 62.9146 57.7793H59.7715V62.6363H60.5325V60.5883H62.7475L64.1026 62.6363H64.9935L63.5271 60.4583C63.8983 60.4151 64.1892 60.2046 64.3438 59.9325C64.4553 59.7468 64.5172 59.4746 64.5172 59.1528ZM63.7498 59.2146C63.7498 59.3508 63.719 59.518 63.6633 59.6293C63.5643 59.8086 63.3353 59.9015 62.9642 59.9076H60.5387C60.5387 59.8953 60.5387 58.4723 60.5387 58.4723H62.8218C63.2858 58.4723 63.5333 58.5836 63.6633 58.794C63.719 58.893 63.7498 59.06 63.7498 59.2146Z" fill="#073141"/>
<path d="M71.9207 62.6363V57.7793H70.9183L68.9198 61.7763L66.9583 57.7793H65.9375V62.6363H66.6738V58.8991L68.5052 62.6363H69.3095L71.1843 58.8991V62.6363H71.9207Z" fill="#073141"/>
<path d="M74.0921 61.436H77.1177L77.7364 62.6363H78.5656L76.1029 57.7793H75.1934L72.6504 62.6363H73.4609L74.0921 61.436ZM76.7959 60.7491H74.4262L75.4099 58.8868L75.6266 58.4351L75.8431 58.8868L76.7959 60.7491Z" fill="#073141"/>
<path d="M84.1383 62.6363V57.7793H83.4017V61.5535L80.185 57.7793H79.3125V62.6363H80.0612V58.8373L83.3033 62.6363H84.1383Z" fill="#073141"/>
<path d="M90.8133 60.8232H90.0083C89.9833 61.0459 89.8966 61.2687 89.7416 61.4357C89.4083 61.8255 88.8766 61.9926 88.06 61.9926C87.3733 61.9926 86.6366 61.8007 86.2833 61.2995C86.0983 61.0645 85.98 60.718 85.98 60.1982C85.98 59.7342 86.0616 59.3877 86.24 59.1525C86.5366 58.6762 87.1616 58.4287 88.0416 58.4287C88.895 58.4287 89.4333 58.6637 89.7183 58.9917C89.8783 59.1649 89.9716 59.3692 90.0016 59.6104H90.8066C90.7816 59.3382 90.695 59.0164 90.51 58.7442C90.1133 58.1564 89.3833 57.6924 88.0466 57.6924C86.7733 57.6924 86.0116 58.1007 85.59 58.7132C85.3183 59.0659 85.1816 59.5609 85.1816 60.1921C85.1816 60.8974 85.35 61.4172 85.64 61.7822C86.0616 62.3577 86.8716 62.704 88.0966 62.704C89.3533 62.704 90.1016 62.3267 90.4733 61.7266C90.6833 61.4357 90.7883 61.0892 90.8133 60.8232Z" fill="#073141"/>
<path d="M96.3523 62.6363V61.9248H92.5773V60.5388H96.2039V59.8335H92.5773V58.4846H96.3089V57.7793H91.8223V62.6363H96.3523Z" fill="#073141"/>
<path d="M39.7655 67.4609L40.6909 70.3089H43.6854L41.2629 72.0691L42.1882 74.9169L39.7655 73.1569L37.3429 74.9169L38.2684 72.0691L35.8457 70.3089H38.8402L39.7655 67.4609Z" fill="#073141"/>
<path d="M50.4491 67.4614L51.3932 70.3093H54.4489L51.9769 72.0694L52.9211 74.9174L50.4491 73.1573L47.9771 74.9174L48.9212 72.0694L46.4492 70.3093H49.5049L50.4491 67.4614Z" fill="#073141"/>
<path d="M61.0467 67.4614L61.991 70.3093H65.0465L62.5745 72.0694L63.5189 74.9174L61.0467 73.1573L58.5747 74.9174L59.5189 72.0694L57.0469 70.3093H60.1025L61.0467 67.4614Z" fill="#073141"/>
<path d="M71.6463 67.4614L72.5905 70.3093H75.6462L73.1742 72.0694L74.1183 74.9174L71.6463 73.1573L69.1743 74.9174L70.1185 72.0694L67.6465 70.3093H70.7022L71.6463 67.4614Z" fill="#073141"/>
<path d="M82.3282 67.4614L83.2532 70.3093H86.2482L83.8249 72.0694L84.7499 74.9174L82.3282 73.1573L79.9054 74.9174L80.8309 72.0694L78.4082 70.3093H81.4027L82.3282 67.4614Z" fill="#073141"/>
<path d="M44.9559 19.4126L45.6555 21.5659H47.9197L46.088 22.8968L46.7877 25.0499L44.9559 23.7193L43.1242 25.0499L43.8239 22.8968L41.9922 21.5659H44.2564L44.9559 19.4126Z" fill="#073141"/>
<path d="M53.0341 19.4094L53.7481 21.5628H56.0583L54.1893 22.8936L54.9031 25.0468L53.0341 23.7159L51.1649 25.0468L51.8789 22.8936L50.0098 21.5628H52.3201L53.0341 19.4094Z" fill="#073141"/>
<path d="M61.0478 19.4097L61.7616 21.563H64.0719L62.2029 22.8938L62.9168 25.047L61.0478 23.7162L59.1786 25.047L59.8926 22.8938L58.0234 21.563H60.3338L61.0478 19.4097Z" fill="#073141"/>
<path d="M69.0595 19.4097L69.7733 21.563H72.0837L70.2147 22.8938L70.9285 25.047L69.0595 23.7162L67.1903 25.047L67.9043 22.8938L66.0352 21.563H68.3455L69.0595 19.4097Z" fill="#073141"/>
<path d="M77.1375 19.4097L77.8372 21.563H80.1013L78.2697 22.8938L78.9693 25.047L77.1375 23.7162L75.3058 25.047L76.0055 22.8938L74.1738 21.563H76.4378L77.1375 19.4097Z" fill="#073141"/>
<path fill-rule="evenodd" clip-rule="evenodd" d="M12.7069 58.1696C9.61923 38.8514 18.6306 19.7384 36.6707 11.5308L36.8372 11.8968C18.9786 20.0218 10.0417 38.9478 13.1039 58.1061C16.4917 79.3016 33.5907 92.0133 54.5299 92.6261L54.5181 93.0281C33.4157 92.4104 16.1296 79.5838 12.7069 58.1696Z" fill="#073141"/>
<path d="M32.7607 16.4609C29.4268 16.5369 25.525 18.4169 23.2227 21.1475C25.069 22.862 28.0397 22.2282 30.1775 21.8775C33.2287 21.3772 36.4733 20.4079 39.3525 19.0357C38.1687 16.5157 34.9797 16.4104 32.7607 16.4609Z" fill="#073141"/>
<path d="M30.1378 12.3482C28.1631 15.4242 25.8098 18.4813 23.2488 21.1735C21.1061 19.1622 22.3994 15.815 23.2739 13.7335C24.8581 9.96183 28.6563 6.70933 32.6271 5.04517C33.7169 7.52467 31.3498 10.4602 30.1378 12.3482Z" fill="#073141"/>
<path d="M23.1119 25.0864C19.9903 26.196 17.3078 29.3197 15.9609 32.4557C18.2056 33.4994 20.7574 31.9922 22.6243 30.9887C25.1876 29.6107 27.8028 27.7094 29.8604 25.509C28.0013 23.5474 25.1783 24.352 23.1119 25.0864Z" fill="#073141"/>
<path d="M19.3269 22.0127C18.6436 25.521 17.4979 29.1574 15.9933 32.4717C13.3669 31.233 13.4669 27.6854 13.5794 25.4277C13.7714 21.5742 15.9273 17.1799 18.9288 14.3872C20.7663 16.3572 19.7623 19.7779 19.3269 22.0127Z" fill="#073141"/>
<path d="M17.1055 36.2228C14.5043 38.2748 12.9277 42.0777 12.5625 45.4735C15.0232 45.756 16.99 43.5167 18.4535 41.9803C20.446 39.8885 22.3322 37.2648 23.53 34.52C21.1843 33.2403 18.7998 34.8862 17.1055 36.2228Z" fill="#073141"/>
<path d="M12.5993 34.4906C13.0631 38.0334 13.0641 41.8663 12.6001 45.4783C9.73843 45.1268 8.78926 41.6908 8.22859 39.5353C7.26059 35.8146 7.90959 31.0086 9.79526 27.3916C12.1518 28.6961 12.3029 32.2261 12.5993 34.4906Z" fill="#073141"/>
<path d="M15.0659 48.3785C13.0075 51.3937 12.2837 56.1188 13.2094 59.9168C15.9294 59.2728 17.2777 56.1933 18.3604 54.0185C19.7992 51.128 21.0154 47.7558 21.4507 44.4473C18.5005 43.8333 16.4217 46.3922 15.0659 48.3785Z" fill="#073141"/>
<path d="M9.66049 48.0738C11.2642 51.7866 12.5157 55.8731 13.248 59.9078C10.1285 60.578 7.88332 57.3023 6.57899 55.1303C4.25682 51.264 3.58032 45.9041 4.43099 41.2788C7.28615 41.8513 8.68332 45.8121 9.66049 48.0738Z" fill="#073141"/>
<path d="M16.5057 61.4975C15.4006 65.1552 16.1687 70.1277 18.4064 73.5663C20.8654 71.9653 21.2057 68.4417 21.5542 65.9152C22.0137 62.5812 22.2301 58.8878 21.6592 55.4307C18.5141 55.8322 17.2439 59.054 16.5057 61.4975Z" fill="#073141"/>
<path d="M11.0381 63.0634C13.7974 66.2296 16.3428 69.8395 18.4419 73.5427C15.5949 75.32 12.2541 72.8919 10.2279 71.1736C6.63343 68.1254 4.29943 62.9446 3.74609 58.0602C6.73743 57.6582 9.37359 61.1532 11.0381 63.0634Z" fill="#073141"/>
<path d="M22.3045 73.9468C22.5417 78.2043 25.3135 82.6718 29.0042 85.2147C30.7865 82.7745 29.6694 79.0357 29.0614 76.4258C28.2429 72.912 27.11 69.253 25.4265 66.0063C22.4909 67.5577 22.1484 71.143 22.3045 73.9468Z" fill="#073141"/>
<path d="M17.3407 77.543C21.3392 79.7649 25.3262 82.3867 29.0332 85.1765C26.8132 88.0999 22.3759 86.9342 19.6252 85.9945C14.7779 84.3387 10.4564 79.9737 8.19922 75.1242C11.0611 73.65 14.9787 76.2305 17.3407 77.543Z" fill="#073141"/>
<path d="M33.6921 84.348C36.0919 88.7277 41.5607 91.5849 46.7107 92.2727C47.2651 89.0887 43.8199 85.9362 41.9426 83.8739C39.2697 80.9377 36.4846 77.8907 33.3619 75.3521C31.0224 78.0684 32.2592 81.7332 33.6921 84.348Z" fill="#073141"/>
<path d="M30.2658 89.8985C35.721 90.4656 41.2687 91.2821 46.7207 92.2236C46.2002 96.241 39.825 96.8893 36.9308 97.1265C30.9967 97.6128 24.3953 95.2275 19.7988 91.2118C22.0818 88.5255 27.36 89.5965 30.2658 89.8985Z" fill="#073141"/>
<path d="M40.7705 8.15898C37.108 9.20381 32.821 11.186 30.7031 14.845C34.5473 14.426 38.3255 13.0581 42.0203 12.016C46.159 10.8485 50.5168 9.97531 54.5238 8.36381C50.1355 6.60815 44.9625 6.96298 40.7705 8.15898Z" fill="#073141"/>
<path fill-rule="evenodd" clip-rule="evenodd" d="M111.627 58.1061C114.688 38.9478 105.752 20.0221 87.8935 11.8968L88.0602 11.5308C106.1 19.7386 115.112 38.8514 112.024 58.1696C108.602 79.5838 91.3152 92.4104 70.2128 93.0281L70.2012 92.6261C91.1402 92.0133 108.239 79.3016 111.627 58.1061Z" fill="#073141"/>
<path d="M91.9725 16.4609C95.3059 16.5369 99.2075 18.4169 101.511 21.1475C99.6642 22.862 96.6925 22.2282 94.5559 21.8775C91.5042 21.3772 88.2592 20.4079 85.3809 19.0357C86.5642 16.5157 89.7525 16.4104 91.9725 16.4609Z" fill="#073141"/>
<path d="M94.5916 12.3484C96.5666 15.4244 98.92 18.4816 101.48 21.1737C103.623 19.1624 102.33 15.8152 101.455 13.7337C99.8716 9.96208 96.0733 6.70958 92.1016 5.04541C91.0116 7.52491 93.38 10.4604 94.5916 12.3484Z" fill="#073141"/>
<path d="M101.621 25.0866C104.743 26.1963 107.425 29.3199 108.771 32.4559C106.526 33.4996 103.975 31.9924 102.108 30.9889C99.5447 29.6109 96.9297 27.7096 94.873 25.5093C96.7314 23.5476 99.5547 24.3523 101.621 25.0866Z" fill="#073141"/>
<path d="M105.404 22.0127C106.087 25.521 107.232 29.1574 108.737 32.4717C111.364 31.233 111.264 27.6854 111.151 25.4277C110.959 21.5742 108.804 17.1799 105.802 14.3872C103.964 16.3572 104.969 19.7779 105.404 22.0127Z" fill="#073141"/>
<path d="M107.625 36.2228C110.226 38.2748 111.803 42.0777 112.168 45.4735C109.708 45.756 107.741 43.5167 106.278 41.9803C104.285 39.8885 102.398 37.2648 101.201 34.52C103.546 33.2403 105.931 34.8862 107.625 36.2228Z" fill="#073141"/>
<path d="M112.132 34.4906C111.667 38.0331 111.667 41.8663 112.13 45.4783C114.992 45.1268 115.942 41.6908 116.502 39.5353C117.47 35.8146 116.82 31.0086 114.935 27.3916C112.579 28.6961 112.427 32.2261 112.132 34.4906Z" fill="#073141"/>
<path d="M109.666 48.3785C111.725 51.3937 112.448 56.1188 111.523 59.9168C108.803 59.2728 107.455 56.1935 106.371 54.0185C104.933 51.128 103.716 47.7558 103.281 44.4473C106.231 43.8333 108.311 46.3922 109.666 48.3785Z" fill="#073141"/>
<path d="M115.071 48.0741C113.468 51.7869 112.216 55.8734 111.484 59.9081C114.603 60.5782 116.848 57.3026 118.153 55.1306C120.474 51.2642 121.151 45.9044 120.301 41.2791C117.446 41.8516 116.048 45.8124 115.071 48.0741Z" fill="#073141"/>
<path d="M108.226 61.4975C109.331 65.1552 108.564 70.1277 106.326 73.5663C103.868 71.9653 103.526 68.4417 103.178 65.9152C102.719 62.5812 102.503 58.8878 103.073 55.4307C106.218 55.8322 107.488 59.054 108.226 61.4975Z" fill="#073141"/>
<path d="M113.692 63.0634C110.934 66.2297 108.389 69.8395 106.289 73.5427C109.136 75.32 112.477 72.8919 114.504 71.1736C118.097 68.1254 120.432 62.9446 120.986 58.0602C117.994 57.6582 115.357 61.1532 113.692 63.0634Z" fill="#073141"/>
<path d="M102.428 73.9468C102.191 78.2043 99.4194 82.6718 95.7294 85.2147C93.946 82.7745 95.0644 79.0358 95.671 76.4258C96.4894 72.912 97.6227 69.253 99.306 66.0063C102.243 67.5577 102.584 71.143 102.428 73.9468Z" fill="#073141"/>
<path d="M107.391 77.543C103.393 79.7649 99.4059 82.3867 95.6992 85.1765C97.9192 88.0999 102.356 86.9342 105.106 85.9945C109.954 84.3387 114.276 79.9737 116.533 75.1242C113.671 73.65 109.753 76.2305 107.391 77.543Z" fill="#073141"/>
<path d="M91.0415 84.3476C88.6415 88.7272 83.1732 91.5844 78.0225 92.2722C77.4682 89.0882 80.9132 85.9357 82.7915 83.8734C85.4632 80.9372 88.2482 77.8902 91.3715 75.3516C93.7115 78.0679 92.4732 81.7327 91.0415 84.3476Z" fill="#073141"/>
<path d="M94.4664 89.8985C89.0114 90.4656 83.4647 91.2821 78.0117 92.2236C78.5324 96.241 84.908 96.8893 87.8014 97.1265C93.7364 97.6128 100.338 95.2275 104.933 91.2118C102.651 88.5255 97.3731 89.5965 94.4664 89.8985Z" fill="#073141"/>
<path d="M83.9586 8.15898C87.6202 9.20381 91.9086 11.186 94.0252 14.845C90.1819 14.426 86.4036 13.0581 82.7086 12.016C78.5699 10.8485 74.2121 9.97531 70.2051 8.36381C74.5936 6.60815 79.7664 6.96298 83.9586 8.15898Z" fill="#073141"/>
<path d="M64.7455 6.26515L62.8664 2.11865L61.0225 6.18799L56.7344 3.52932L59.4899 9.31982H66.3425L68.9985 3.52932L64.7455 6.26515Z" fill="#073141"/>
<path d="M66.301 10.2197H59.4375V11.2326H66.301V10.2197Z" fill="#073141"/>
<path d="M63.3604 88.5718L64.4664 91.9754H68.0453L65.1499 94.0789L66.2558 97.4826L63.3604 95.3791L60.4651 97.4826L61.5711 94.0789L58.6758 91.9754H62.2546L63.3604 88.5718Z" fill="#073141"/>
</svg>
