<svg width="205" height="101" viewBox="0 0 205 101" fill="none" xmlns="http://www.w3.org/2000/svg">
<g clip-path="url(#clip0_28_4251)">
<path d="M185.407 7.39099C187.319 10.248 189.154 13.7724 188.251 17.5494C185.137 15.767 182.633 12.857 180.647 9.98424C178.647 7.09215 176.57 4.0168 175.858 0.452148C179.786 1.4568 183.303 4.24564 185.407 7.39099Z" fill="#073141"/>
<path d="M16.582 17.5432C15.682 13.7656 17.5206 10.2425 19.4357 7.3872C21.5439 4.24371 25.0613 1.45743 28.9897 0.455566C28.276 4.01952 26.196 7.09371 24.1939 9.98394C22.2053 12.8553 19.6971 15.7635 16.582 17.5432Z" fill="#073141"/>
<path d="M13.844 24.79C14.5466 21.7984 14.531 18.5233 13.8622 15.7172C13.274 13.2512 12.4182 9.76515 9.60146 8.58887C7.55402 11.8731 6.731 16.3454 7.92425 19.6965C8.78704 22.1205 10.3387 25.3254 13.5566 25.8214C16.5094 26.5021 19.4952 24.927 21.8533 23.6265C24.4754 22.1807 27.0438 19.8805 28.6042 17.1458C25.7417 15.701 22.4817 16.8735 20.0291 17.9972C17.3854 19.2086 14.9568 21.8077 13.844 24.79Z" fill="#073141"/>
<path d="M128.394 46.5024C128.394 43.0691 126.213 41.2647 121.125 40.7133C120.298 40.6131 117.867 40.3624 116.339 40.237C112.404 39.811 111.226 39.5856 111.226 38.5831C111.226 37.681 112.153 37.2549 115.687 37.2549C118.193 37.2549 119.597 37.731 120.148 38.4577C120.424 38.8087 120.524 39.0843 120.549 39.3601H127.767C127.691 38.7584 127.441 37.9063 127.04 37.1547C125.737 34.6484 122.604 32.6436 115.862 32.6436C108.269 32.6436 104.109 35.3252 104.109 38.8338C104.109 42.217 106.464 44.1968 112.83 44.7733C113.55 44.835 115.095 44.981 116.361 45.1005L116.439 45.108L116.453 45.1094L116.459 45.1098L117.141 45.1742C120.474 45.5252 121.376 45.7505 121.376 46.8033C121.376 47.7805 120.499 48.3068 116.815 48.3068C113.958 48.3068 112.279 47.8808 111.677 47.154C111.427 46.8533 111.251 46.4022 111.201 46.1015H103.983C104.059 46.6026 104.184 47.4047 104.459 48.0563C105.688 50.8131 108.895 52.9182 116.339 52.9182C124.333 52.9182 128.394 50.6626 128.394 46.5024Z" fill="#073141"/>
<path fill-rule="evenodd" clip-rule="evenodd" d="M77.2266 50.6127C77.9785 49.7355 78.3543 48.4071 78.3543 47.0539C78.3543 45.9011 78.0536 44.7983 77.4271 44.0716C76.6752 43.0941 75.3469 42.3925 73.9436 42.2171C74.8959 42.0918 75.798 41.5906 76.3243 40.939C76.9759 40.162 77.2766 39.1095 77.2766 37.8313C77.2766 36.5532 76.9008 35.4255 76.0487 34.5734C75.0964 33.596 73.3671 32.9443 70.6606 32.9443H53.6689V52.6176H71.1366C73.9185 52.6176 76.0738 52.016 77.2266 50.6127ZM70.3097 39.0092C70.3097 39.4855 70.1592 39.8864 69.9087 40.162C69.5578 40.4878 68.9062 40.6132 68.0541 40.6132H60.235V37.4053H67.8787C68.831 37.4053 69.4827 37.5306 69.8334 37.8564C70.1592 38.132 70.3097 38.5329 70.3097 39.0092ZM71.0615 47.6304C70.6606 48.0062 69.9587 48.1567 68.7808 48.1567H60.235V44.8736H68.8562C69.9587 44.8736 70.6103 45.0239 70.9861 45.3497C71.2871 45.6504 71.4122 46.0264 71.4122 46.5276C71.4122 47.0039 71.312 47.3797 71.0615 47.6304Z" fill="#073141"/>
<path d="M101.953 47.7306V52.6176H81.2275V32.9443H101.778V37.8564H87.8436V40.3876H101.377V45.1743H87.8436V47.7306H101.953Z" fill="#073141"/>
<path d="M152.777 37.8815V32.9443H129.296V37.8815H137.591V52.6176H144.456V37.8815H152.777Z" fill="#073141"/>
<path d="M128.864 70.0263H127.759L127.68 68.9626C127.343 69.501 126.629 70.1473 125.122 70.1473C122.575 70.1473 121.392 68.6124 121.392 64.6935C121.392 61.6638 122.145 59.2266 125.254 59.2266C127.95 59.2266 128.771 60.9908 128.81 62.8894H127.464C127.424 61.6505 126.871 60.5059 125.282 60.5059C123.371 60.5059 122.817 61.6505 122.817 64.7342C122.817 67.9526 123.506 68.9626 125.31 68.9626C126.575 68.9626 127.315 68.2624 127.559 67.4275V65.421H124.838V64.1954H128.85V67.2928C128.85 68.2182 128.859 69.2059 128.861 69.7024L128.864 69.9387V70.0263Z" fill="#073141"/>
<path d="M86.7277 59.3608H88.0205L85.5024 70.0257H83.8998C83.8998 70.0257 82.1089 61.7308 82.1089 61.3806C82.0954 61.7308 80.264 70.0257 80.264 70.0257H78.6617L76.1436 59.3608H77.5978C77.5978 59.3608 79.5503 67.8039 79.5503 68.1406C79.5503 67.8039 81.3412 59.3608 81.3412 59.3608H82.9438C82.9438 59.3608 84.7347 67.8174 84.7347 68.1406C84.7347 67.8174 86.7277 59.3608 86.7277 59.3608Z" fill="#073141"/>
<path d="M90.4034 59.3608V70.0257H89.0029V59.3608H90.4034Z" fill="#073141"/>
<path d="M99.1683 59.3608V70.0257H97.6197L93.6471 61.7576V70.0257H92.3408V59.3608H93.9704L97.8485 67.5076V59.3608H99.1683Z" fill="#073141"/>
<path d="M107.898 59.3608V70.0257H106.349L102.378 61.7576V70.0257H101.071V59.3608H102.701L106.58 67.5076V59.3608H107.898Z" fill="#073141"/>
<path d="M111.206 59.3608V70.0257H109.806V59.3608H111.206Z" fill="#073141"/>
<path d="M119.971 59.3608V70.0257H118.423L114.451 61.7576V70.0257H113.144V59.3608H114.774L118.653 67.5076V59.3608H119.971Z" fill="#073141"/>
<path d="M69.0846 91.0459L67.5416 86.2966L65.9984 91.0459H61.0049L65.0446 93.9813L63.5016 98.7306L67.5416 95.7952L71.5816 98.7306L70.0384 93.9813L74.0784 91.0459H69.0846Z" fill="#073141"/>
<path d="M86.9275 91.0467L85.3529 86.2974L83.7782 91.0467H78.6826L82.8052 93.9818L81.2305 98.7311L85.3529 95.796L89.4754 98.7311L87.9008 93.9818L92.0231 91.0467H86.9275Z" fill="#073141"/>
<path d="M104.601 91.0469L103.027 86.2976L101.452 91.0469H96.3564L100.479 93.982L98.9041 98.7313L103.027 95.7962L107.149 98.7313L105.574 93.982L109.697 91.0469H104.601Z" fill="#073141"/>
<path d="M122.275 91.0469L120.701 86.2976L119.126 91.0469H114.03L118.153 93.982L116.578 98.7313L120.701 95.7962L124.823 98.7313L123.248 93.982L127.371 91.0469H122.275Z" fill="#073141"/>
<path d="M140.061 91.0472L138.519 86.2979L136.974 91.0472H131.981L136.021 93.9823L134.479 98.7316L138.519 95.7965L142.558 98.7316L141.014 93.9823L145.056 91.0472H140.061Z" fill="#073141"/>
<path d="M4.74911 32.8628C6.20121 35.0781 8.44819 37.853 11.7245 37.774C14.7038 37.9228 17.2777 35.8895 19.3047 34.1926C21.4877 32.3649 23.4582 29.6921 24.29 26.8026C21.2428 25.916 18.3254 27.5584 16.1498 29.1074C13.878 30.7253 12.1307 33.6863 11.7554 36.7265C11.7273 33.6807 10.9028 30.5349 9.57377 28.0007C8.35865 25.6839 6.6654 22.5523 3.64447 21.9263C2.45423 25.5312 2.834 29.9419 4.74911 32.8628Z" fill="#073141"/>
<path d="M12.6938 49.7054C9.65308 50.2149 6.68703 48.3519 4.76075 46.1605C2.28075 43.3391 0.805167 39.5542 1.1061 35.7651C4.22982 35.8444 6.59563 38.5447 8.34424 40.5865C10.2275 42.7856 11.7705 45.6789 12.5107 48.6635C12.1852 45.6891 13.1838 42.4772 15.0375 40.4926C16.8268 38.5768 19.3333 36.4889 22.4519 36.824C22.3847 39.84 20.8728 42.7135 19.3135 44.8656C17.8601 46.8712 15.621 49.3519 12.6938 49.7054Z" fill="#073141"/>
<path d="M7.07677 59.7274C9.87724 61.5507 13.2738 63.3553 16.8433 61.9895C19.7717 60.9535 21.6335 58.0058 22.7786 55.3002C23.9917 52.4335 24.8019 49.1279 24.241 45.9902C21.0231 46.2758 18.3547 48.5781 16.9375 51.3886C15.4558 54.3267 15.1717 57.824 16.3098 60.9044C14.6282 57.7354 12.1689 55.1712 9.56375 52.8019C7.19561 50.6481 3.78445 48.3793 0.348633 48.806C1.00235 53.0537 3.59445 57.4605 7.07677 59.7274Z" fill="#073141"/>
<path d="M24.06 73.4728C26.8158 71.8253 27.9249 68.3588 28.3781 65.3884C28.8667 62.1849 28.8458 58.6519 27.5154 55.6128C24.3181 56.5058 22.1235 59.3835 21.3988 62.5354C20.6333 65.8654 21.2793 69.4144 23.1416 72.2498C20.666 69.4095 17.3742 67.0644 14.2195 65.42C11.1723 63.8316 7.43395 61.9158 3.77441 63.0728C5.53907 67.3795 9.31395 71.3893 13.4977 73.0479C16.7377 74.3321 20.6793 75.6021 24.06 73.4728Z" fill="#073141"/>
<path d="M37.1195 74.5874C37.5239 77.6795 37.5125 81.6014 35.1118 83.9814C32.1118 87.0521 27.469 86.4595 23.8881 85.784C19.0806 84.8763 13.669 81.5974 10.7686 77.2316C14.3109 75.2812 18.6432 76.5288 22.1502 77.5388L22.3504 77.5963C26.2651 78.7226 30.4367 80.5365 33.9255 83.0151C31.1413 80.4993 29.1127 76.8067 29.0134 73.0849C28.9241 69.756 30.369 66.1947 33.4783 64.6079C35.649 67.457 36.6655 71.1149 37.1195 74.5874Z" fill="#073141"/>
<path d="M51.0576 92.7367C52.8255 89.3713 51.0739 85.4215 49.6781 82.5022C48.0279 79.0511 45.7732 75.5339 42.5465 73.0078C39.4481 75.678 39.7427 79.4987 40.6639 82.8192C41.7593 86.7673 45.5567 90.1329 49.489 92.0508C44.9348 90.3525 39.9611 89.3332 35.229 89.0322L34.7497 89.0013C30.9481 88.7536 25.999 88.4313 22.9697 91.2134C27.55 95.1071 34.0558 97.3536 39.7897 97.2369C43.6323 97.1587 48.9044 96.7041 51.0576 92.7367Z" fill="#073141"/>
<path d="M190.989 24.8007C189.88 21.8163 187.452 19.214 184.81 18.0003C182.356 16.8747 179.098 15.7 176.235 17.1424C177.793 19.8782 180.359 22.1803 182.98 23.6282C185.335 24.93 188.319 26.5073 191.273 25.8294C194.491 25.3363 196.047 22.1321 196.912 19.7082C198.11 16.3587 197.291 11.8854 195.247 8.59912C192.428 9.77377 191.568 13.2589 190.98 15.7247C190.307 18.5314 190.289 21.8077 190.989 24.8007Z" fill="#073141"/>
<path d="M188.673 29.1132C190.943 30.7318 192.685 33.6911 193.059 36.7293C193.092 33.6851 193.92 30.5423 195.25 28.0107C196.466 25.6946 198.164 22.5644 201.185 21.9404C202.371 25.5465 201.987 29.9569 200.069 32.8762C198.618 35.0876 196.371 37.8567 193.101 37.7825C190.118 37.9348 187.541 35.8967 185.513 34.1962C183.331 32.3667 181.364 29.6925 180.536 26.8025C183.583 25.9179 186.499 27.5625 188.673 29.1132Z" fill="#073141"/>
<path d="M192.29 48.6832C192.623 45.7062 191.627 42.4876 189.772 40.499C187.986 38.5818 185.481 36.492 182.362 36.8248C182.425 39.8408 183.934 42.7157 185.493 44.869C186.944 46.8748 189.179 49.3555 192.104 49.7129C195.146 50.228 198.116 48.3659 200.046 46.1748C202.527 43.3555 204.006 39.5718 203.711 35.7822C200.586 35.8594 198.218 38.5576 196.467 40.598C194.579 42.7985 193.032 45.695 192.29 48.6832Z" fill="#073141"/>
<path d="M187.864 51.3942C189.343 54.334 189.624 57.8319 188.482 60.9114C190.166 57.7428 192.629 55.1802 195.236 52.8126C197.605 50.6605 201.019 48.3947 204.454 48.8237C203.798 53.0712 201.201 57.4761 197.717 59.7402C194.917 61.5588 191.524 63.3598 187.959 61.9995C185.026 60.9654 183.164 58.0116 182.019 55.3014C180.808 52.4337 180.001 49.1277 180.566 45.9902C183.782 46.2784 186.45 48.5828 187.864 51.3942Z" fill="#073141"/>
<path d="M181.649 72.2441C183.509 69.4115 184.158 65.8659 183.398 62.5376C182.677 59.385 180.484 56.5057 177.286 55.6104C175.954 58.648 175.93 62.1808 176.414 65.385C176.865 68.3496 177.968 71.8092 180.707 73.4627C184.091 75.6087 188.042 74.3394 191.286 73.0557C195.472 71.4001 199.251 67.3931 201.019 63.0873C197.361 61.928 193.621 63.841 190.572 65.4271C187.419 67.0683 184.126 69.4085 181.649 72.2441Z" fill="#073141"/>
<path d="M167.655 74.5783C167.248 77.6697 167.255 81.5913 169.655 83.9734C172.651 87.0464 177.295 86.4571 180.876 85.7839C185.686 84.8799 191.1 81.6046 194.004 77.2413C190.465 75.2885 186.13 76.5325 182.623 77.5397L182.421 77.5974C178.507 78.7201 174.335 80.5304 170.844 83.0053C173.63 80.4915 175.66 76.802 175.762 73.0815C175.855 69.7529 174.414 66.1904 171.307 64.6011C169.132 67.4485 168.114 71.106 167.655 74.5783Z" fill="#073141"/>
<path d="M164.972 97.2253C161.13 97.1442 155.858 96.6858 153.709 92.7165L153.679 92.6621C151.963 89.3069 153.707 85.3856 155.098 82.4835C156.751 79.0335 159.009 75.5179 162.237 72.9946C165.335 75.667 165.035 79.4874 164.112 82.8069C163.012 86.7544 159.212 90.1177 155.277 92.0323C159.833 90.3374 164.807 89.3218 169.54 89.0242L170.021 88.9935C173.823 88.7488 178.772 88.4307 181.798 91.2144C177.214 95.1042 170.707 97.3463 164.972 97.2253Z" fill="#073141"/>
<path d="M67.3159 7.2041V18.4537C67.3159 23.4016 62.8347 25.7822 56.043 25.7822C49.6947 25.7822 45.1436 23.4251 45.1436 17.8703V7.2041H51.4686V17.8703C51.4686 19.8541 53.1722 21.091 56.2997 21.091C59.2872 21.091 61.061 19.8074 61.061 17.8935V7.2041H67.3159Z" fill="#073141"/>
<path d="M88.3845 20.6476V25.5254H70.9033V7.2041H77.2283V20.6476H88.3845Z" fill="#073141"/>
<path d="M107.181 11.802V7.2041H85.3115V11.802H93.0369V25.5254H99.4319V11.802H107.181Z" fill="#073141"/>
<path fill-rule="evenodd" clip-rule="evenodd" d="M129.615 9.07141C130.456 9.93487 130.854 11.1253 130.854 12.7822C130.854 14.206 130.504 15.4197 129.919 16.2364C129.265 17.1233 128.261 17.8703 127.025 18.057L132.558 25.5254H125.602L121.05 19.0604H115.379V25.5254H109.147V7.2041H123.735C126.629 7.2041 128.519 7.90429 129.615 9.07141ZM124.575 14.3228C124.738 14.0426 124.785 13.6691 124.785 13.3658C124.785 13.0156 124.738 12.6422 124.575 12.4089C124.248 11.802 123.594 11.6387 122.613 11.6387H115.402V14.9762H122.731C123.735 14.9762 124.342 14.7895 124.575 14.3228Z" fill="#073141"/>
<path fill-rule="evenodd" clip-rule="evenodd" d="M140.979 22.1414H150.875L152.484 25.5254H159.231L149.988 7.2041H142.45L132.671 25.5254H139.275L140.979 22.1414ZM148.89 18.0335H143.032L145.344 13.6226L146.044 11.942L146.698 13.5991L148.89 18.0335Z" fill="#073141"/>
</g>
<defs>
<clipPath id="clip0_28_4251">
<rect width="204.651" height="100" fill="white" transform="translate(0.348633 0.452148)"/>
</clipPath>
</defs>
</svg>
