<svg width="199" height="101" viewBox="0 0 199 101" fill="none" xmlns="http://www.w3.org/2000/svg">
<path d="M15.9547 21.9485C14.733 18.8435 15.2634 15.2733 16.3888 12.2706C17.5728 9.11103 19.6345 5.96007 22.716 4.29834C22.8689 7.62796 21.8518 10.9176 20.7405 13.8839C19.741 16.552 18.5147 19.3945 16.4897 21.601C16.1786 23.273 15.9401 24.9403 15.7724 26.5999C16.4436 24.8466 17.5318 23.2485 18.8897 21.9635C20.638 20.3089 23.2385 19.0322 25.6797 19.7872C24.9647 22.4856 23.3349 25.0724 21.4047 26.887C19.8855 28.3153 17.8799 30.1455 15.5176 30.2174C15.4203 32.6597 15.4753 35.0797 15.6763 37.4668C16.0095 35.7199 16.7236 34.0749 17.7553 32.8499C19.1726 31.1666 21.2741 29.1101 23.958 29.4541C23.8114 32.1853 22.722 34.9835 21.2049 37.0862C19.9993 38.7572 18.4078 40.8868 16.1488 41.437C16.5105 43.7826 17.0143 46.0893 17.6536 48.3464C17.6597 46.6181 18.0415 44.9218 18.7988 43.5612C19.866 41.6426 21.5283 39.2499 24.2153 39.0628C24.6091 41.7422 24.0755 44.6712 22.9989 47.0008C22.1385 48.863 20.9914 51.2376 18.9005 52.2201C19.7785 54.6485 20.8176 57.0091 22.0089 59.2876C21.5906 57.3237 21.6074 55.2543 22.1024 53.3924C22.7845 50.8255 24.4778 48.1291 27.1962 47.3466C28.1572 50.1805 28.0247 53.3432 27.4664 56.2235C27.007 58.5951 26.1043 61.3805 24.0808 62.921C25.4037 65.0558 26.8672 67.1047 28.4631 69.0541C27.6056 67.1422 27.1795 65.0512 27.4081 63.1368C27.7412 60.348 28.5249 57.3645 31.3735 55.8776C32.9897 58.666 33.3641 61.7943 33.5014 64.8841C33.6124 67.382 33.2526 70.463 31.5178 72.4951C33.426 74.4791 35.4851 76.336 37.6843 78.0483C36.2645 76.227 35.2703 74.0897 35.0597 71.976C34.7624 68.9897 34.9078 65.7022 37.558 63.5107C39.8245 65.878 41.177 69.3643 41.8399 72.3924C42.426 75.0697 43.0379 78.2385 41.6424 80.8733C44.4412 82.7003 47.4291 84.3099 50.5881 85.673C48.3653 84.0889 46.5456 81.9156 45.6787 79.6718C44.5428 76.7305 43.8401 73.2256 46.053 70.2799C49.0178 72.1789 51.1968 75.4189 52.9135 78.3739C54.3866 80.9095 55.9114 84.4091 55.1549 87.4289C56.9039 88.0224 58.6981 88.5435 60.5353 88.9882L60.426 89.4391C58.582 88.9928 56.7808 88.4699 55.0247 87.8747C53.7943 91.5107 49.7637 92.7118 46.5041 93.2422C41.8597 93.9978 36.3295 92.5337 32.3645 89.5845C34.4572 86.627 38.727 86.327 41.9466 86.1007L41.9885 86.0978C45.5156 85.8499 49.3305 86.181 52.8774 87.1026C48.7799 85.5428 44.9458 83.5816 41.4104 81.276L41.3583 81.3583C39.421 84.4997 35.5314 84.6222 32.4783 84.4235C28.3355 84.1539 23.5524 81.6349 20.7841 78.1528C23.388 75.8681 27.2339 76.5076 30.2139 77.003L30.2283 77.0053C33.5543 77.5581 37.1887 78.7643 40.2395 80.6214C39.9489 80.3926 39.6645 80.1505 39.3881 79.8966C36.422 77.7818 33.6858 75.4162 31.203 72.837C31.1741 72.8658 31.1449 72.8945 31.1155 72.923C28.7012 75.3516 25.1851 74.7157 22.441 73.9253C18.769 72.8676 14.9607 69.6766 13.1357 66.0133C15.9638 64.4287 19.3449 65.7345 21.9749 66.7674C24.8614 67.901 27.9155 69.7145 30.2637 72.0262C30.0216 71.7208 29.7906 71.4018 29.5724 71.0716C27.3897 68.6081 25.4262 65.9703 23.7001 63.1874L23.6135 63.2416C20.8824 65.0041 17.788 63.7278 15.3355 62.4726C12.0103 60.7708 9.33818 57.0308 8.18357 53.3528C11.1334 52.408 14.0478 54.2624 16.3134 55.731C18.7913 57.3372 21.3012 59.628 23.0241 62.2551C22.8976 61.9962 22.7797 61.7316 22.671 61.462C21.0156 58.5739 19.6093 55.542 18.4709 52.3968L18.4122 52.4168L18.4074 52.4185C15.9241 53.3626 13.1588 51.8949 11.3559 50.2853C8.85011 48.0483 7.08395 44.6093 6.66991 41.2495C9.25895 40.9141 11.6982 42.9172 13.3659 44.6256C15.2855 46.592 17.0084 48.916 18.0676 51.4974C17.9903 51.217 17.924 50.9322 17.8682 50.6445C16.9043 47.6889 16.1741 44.6408 15.6928 41.5247L15.6553 41.5293L15.6426 41.5314C13.0172 41.9697 10.5899 39.9737 9.13972 38.0366C7.10511 35.3183 6.05626 31.5562 6.31914 28.1464C8.93434 28.3293 10.9257 30.8172 12.217 32.8297C13.7116 35.1595 14.9511 37.7962 15.494 40.5547C15.4774 40.3353 15.4676 40.1145 15.4641 39.8932C15.0655 36.7216 14.9234 33.4851 15.0534 30.2085L15.0459 30.2081C12.3766 30.112 10.404 27.6337 9.38549 25.4355C7.92818 22.2897 7.69357 18.3133 8.66626 14.9622C11.2103 15.6762 12.6286 18.5945 13.4657 20.8408C14.4309 23.4308 15.1045 26.2556 15.1099 29.0641C15.2488 26.708 15.5284 24.3331 15.9547 21.9485Z" fill="#073141"/>
<path d="M68.5239 16.1357V27.3854C68.5239 32.3332 64.0427 34.7138 57.251 34.7138C50.9027 34.7138 46.3516 32.3567 46.3516 26.8019V16.1357H52.6766V26.8019C52.6766 28.7857 54.3802 30.0227 57.5077 30.0227C60.4952 30.0227 62.2691 28.739 62.2691 26.8252V16.1357H68.5239Z" fill="#073141"/>
<path d="M89.5925 29.5792V34.4571H72.1113V16.1357H78.4363V29.5792H89.5925Z" fill="#073141"/>
<path d="M108.389 20.7336V16.1357H86.5195V20.7336H94.2449V34.4571H100.64V20.7336H108.389Z" fill="#073141"/>
<path fill-rule="evenodd" clip-rule="evenodd" d="M130.823 18.003C131.664 18.8665 132.062 20.0569 132.062 21.7138C132.062 23.1377 131.712 24.3513 131.127 25.168C130.473 26.055 129.47 26.8019 128.233 26.9886L133.766 34.4571H126.81L122.258 27.9921H116.587V34.4571H110.355V16.1357H124.943C127.837 16.1357 129.727 16.8359 130.823 18.003ZM125.783 23.2544C125.946 22.9742 125.993 22.6007 125.993 22.2975C125.993 21.9473 125.946 21.5738 125.783 21.3405C125.456 20.7336 124.802 20.5704 123.821 20.5704H116.61V23.9079H123.939C124.943 23.9079 125.55 23.7211 125.783 23.2544Z" fill="#073141"/>
<path fill-rule="evenodd" clip-rule="evenodd" d="M142.187 31.073H152.083L153.692 34.4571H160.439L151.196 16.1357H143.658L133.879 34.4571H140.483L142.187 31.073ZM150.098 26.9652H144.24L146.552 22.5542L147.252 20.8736L147.906 22.5307L150.098 26.9652Z" fill="#073141"/>
<path fill-rule="evenodd" clip-rule="evenodd" d="M130.157 37.9077C126.241 37.9077 124.182 39.7635 124.182 42.4904C124.182 45.5683 126.343 47.1296 130.157 47.1296C134.355 47.1296 136.12 45.3193 136.12 42.4904C136.12 39.6164 134.128 37.9077 130.157 37.9077ZM130.157 44.8554C127.928 44.8554 127.282 43.9389 127.282 42.5244C127.282 41.1327 127.984 40.2162 130.145 40.2162C132.51 40.2162 133.041 41.2458 133.041 42.5244C133.041 43.8823 132.397 44.8554 130.157 44.8554Z" fill="#073141"/>
<path d="M118.379 46.9939V41.7324H112.472V43.6447H115.629C115.607 43.7918 115.494 44.0747 115.346 44.2443C115.018 44.6291 114.147 44.9685 113.015 44.9685C111.839 44.9685 111.081 44.6629 110.673 44.1877C110.402 43.837 110.243 43.3391 110.243 42.5924C110.243 41.8116 110.402 41.2799 110.707 40.9291C111.149 40.4312 111.895 40.2162 112.993 40.2162C113.977 40.2162 114.656 40.4424 114.973 40.7252C115.177 40.895 115.335 41.1327 115.369 41.291H118.3C118.289 41.0081 118.198 40.5556 118.039 40.2275C117.338 38.8018 115.709 37.9531 112.936 37.9531C110.526 37.9531 108.908 38.6885 108.014 39.7975C107.426 40.5556 107.154 41.506 107.154 42.5697C107.154 43.7466 107.471 44.7535 107.992 45.4212C108.874 46.5641 110.447 47.1297 112.337 47.1297C114 47.1297 115.143 46.7337 115.867 46.1341L115.946 46.9939H118.379Z" fill="#073141"/>
<path d="M87.5543 41.619C89.8512 41.8679 90.8356 42.6827 90.8356 44.2329C90.8356 46.1112 89.0025 47.1294 85.3929 47.1294C82.0323 47.1294 80.5841 46.179 80.0295 44.9344C79.905 44.6402 79.8485 44.2781 79.8145 44.0517H83.0733C83.096 44.1875 83.1752 44.3912 83.2883 44.5269C83.5598 44.8552 84.3179 45.0475 85.6079 45.0475C87.2714 45.0475 87.6673 44.8098 87.6673 44.3687C87.6673 43.8933 87.26 43.7915 85.755 43.6331C85.1554 43.5765 84.2048 43.486 83.8089 43.4521C80.9348 43.1917 79.8712 42.2979 79.8712 40.7704C79.8712 39.1862 81.7495 37.9756 85.1779 37.9756C88.2218 37.9756 89.6362 38.8808 90.2246 40.0123C90.4056 40.3517 90.5187 40.7364 90.5527 41.0079H87.2939C87.2825 40.8835 87.2373 40.759 87.1129 40.6006C86.8639 40.2725 86.2302 40.0575 85.0987 40.0575C83.5033 40.0575 83.0846 40.2498 83.0846 40.6571C83.0846 41.1098 83.6166 41.2117 85.3929 41.404C86.0831 41.4606 87.1808 41.5737 87.5543 41.619Z" fill="#073141"/>
<path fill-rule="evenodd" clip-rule="evenodd" d="M55.0692 38.8694C55.6689 39.3446 56.0083 40.1481 56.0083 41.3134C56.0083 42.264 55.7708 42.9767 55.3181 43.4746C54.7071 44.1761 53.7 44.4931 52.3875 44.5044C51.98 44.5158 48.495 44.5044 48.495 44.5044V46.9936H45.4512V38.1113H52.3421C53.5642 38.1113 54.4921 38.3602 55.0692 38.8694ZM52.8175 42.0036C52.9079 41.8454 52.9533 41.6415 52.9533 41.3586C52.9533 41.0646 52.8966 40.8156 52.7948 40.6798C52.6025 40.3969 52.2404 40.2611 51.6519 40.2611H48.4723V42.4336H51.6292C52.2629 42.4336 52.6364 42.2865 52.8175 42.0036Z" fill="#073141"/>
<path fill-rule="evenodd" clip-rule="evenodd" d="M67.1422 39.0165C67.5497 39.4352 67.742 40.0123 67.742 40.8156C67.742 41.5058 67.5722 42.0942 67.2893 42.4902C66.9726 42.9202 66.4861 43.2823 65.8862 43.3729L68.568 46.9936H65.1961L62.9895 43.8594H60.2399V46.9936H57.2188V38.1113H64.2909C65.6939 38.1113 66.6105 38.4507 67.1422 39.0165ZM64.6982 41.5625C64.7774 41.4267 64.7999 41.2456 64.7999 41.0984C64.7999 40.9288 64.7774 40.7477 64.6982 40.6346C64.5397 40.3404 64.223 40.2611 63.7478 40.2611H60.2513V41.8792H63.8043C64.2909 41.8792 64.5851 41.7886 64.6982 41.5625Z" fill="#073141"/>
<path d="M78.9007 46.9936V44.7873H72.5303V43.6331H78.6405V41.4719H72.5303V40.329H78.8214V38.1113H69.543V46.9936H78.9007Z" fill="#073141"/>
<path d="M101.846 40.3404V38.1113H91.2441V40.3404H94.9893V46.9936H98.0897V40.3404H101.846Z" fill="#073141"/>
<path d="M105.924 38.1113V46.9936H102.812V38.1113H105.924Z" fill="#073141"/>
<path d="M122.95 38.1113V46.9936H119.838V38.1113H122.95Z" fill="#073141"/>
<path d="M148.125 38.1113V43.5652C148.125 45.964 145.952 47.1182 142.66 47.1182C139.583 47.1182 137.375 45.9754 137.375 43.2823V38.1113H140.442V43.2823C140.442 44.244 141.267 44.8438 142.785 44.8438C144.233 44.8438 145.092 44.2215 145.092 43.2936V38.1113H148.125Z" fill="#073141"/>
<path d="M160.341 44.2329C160.341 42.6827 159.357 41.8679 157.061 41.619C156.686 41.5737 155.59 41.4606 154.899 41.404C153.122 41.2117 152.59 41.1098 152.59 40.6571C152.59 40.2498 153.009 40.0575 154.605 40.0575C155.736 40.0575 156.37 40.2725 156.618 40.6006C156.743 40.759 156.788 40.8835 156.799 41.0079H160.059C160.024 40.7364 159.911 40.3517 159.73 40.0123C159.141 38.8808 157.728 37.9756 154.684 37.9756C151.255 37.9756 149.376 39.1862 149.376 40.7704C149.376 42.2979 150.441 43.1917 153.315 43.4521L153.499 43.4685L153.807 43.4965L155.261 43.6331C156.766 43.7915 157.172 43.8933 157.172 44.3687C157.172 44.8098 156.778 45.0475 155.115 45.0475C153.824 45.0475 153.066 44.8552 152.793 44.5269C152.682 44.3912 152.601 44.1875 152.58 44.0517H149.32C149.355 44.2781 149.411 44.6402 149.536 44.9344C150.09 46.179 151.538 47.1294 154.899 47.1294C158.509 47.1294 160.341 46.1112 160.341 44.2329Z" fill="#073141"/>
<path fill-rule="evenodd" clip-rule="evenodd" d="M81.2149 50.3945C78.6705 50.3945 77.332 51.6007 77.332 53.373C77.332 55.3732 78.7366 56.388 81.2149 56.388C83.9434 56.388 85.0905 55.2115 85.0905 53.373C85.0905 51.5051 83.7963 50.3945 81.2149 50.3945ZM81.2149 54.9099C79.7663 54.9099 79.347 54.3141 79.347 53.3949C79.347 52.4905 79.803 51.8947 81.2076 51.8947C82.7445 51.8947 83.0903 52.564 83.0903 53.3949C83.0903 54.2774 82.6711 54.9099 81.2149 54.9099Z" fill="#073141"/>
<path d="M67.0672 54.5057C67.0672 53.4982 66.4274 52.9686 64.9345 52.8068C64.6918 52.7774 63.9785 52.704 63.5299 52.6672C62.3753 52.542 62.0297 52.4759 62.0297 52.1819C62.0297 51.917 62.3018 51.792 63.3387 51.792C64.0741 51.792 64.4858 51.9317 64.6478 52.1449C64.7285 52.248 64.7579 52.3288 64.7654 52.4097H66.8833C66.8612 52.2332 66.7878 51.9832 66.6701 51.7626C66.2876 51.0272 65.3683 50.439 63.3901 50.439C61.162 50.439 59.9412 51.2257 59.9412 52.2553C59.9412 53.2482 60.6324 53.8292 62.5003 53.9982C62.7578 54.0203 63.3754 54.0792 63.7653 54.1159C64.7433 54.2188 65.008 54.2851 65.008 54.594C65.008 54.8807 64.7506 55.0351 63.6697 55.0351C62.8312 55.0351 62.3385 54.9101 62.162 54.6968C62.0885 54.6086 62.037 54.4763 62.0224 54.388H59.9043C59.9264 54.5351 59.9631 54.7703 60.0441 54.9617C60.4045 55.7705 61.3458 56.3882 63.5299 56.3882C65.8758 56.3882 67.0672 55.7265 67.0672 54.5057Z" fill="#073141"/>
<path fill-rule="evenodd" clip-rule="evenodd" d="M52.3823 54.6672C52.3823 55.0644 52.2719 55.4542 52.0514 55.7115C51.7131 56.1234 51.0806 56.2997 50.2644 56.2997H45.1387V50.5269H50.1246C50.9189 50.5269 51.4264 50.7182 51.7058 51.0049C51.9558 51.2549 52.0662 51.5859 52.0662 51.9609C52.0662 52.3361 51.9779 52.6449 51.7867 52.8728C51.6321 53.0642 51.3675 53.2111 51.0881 53.248C51.4998 53.2994 51.8896 53.5053 52.1102 53.792C52.2941 54.0053 52.3823 54.329 52.3823 54.6672ZM49.9041 52.6449C49.9775 52.564 50.0217 52.4463 50.0217 52.3067C50.0217 52.1669 49.9775 52.0492 49.8819 51.9684C49.7791 51.8726 49.5877 51.8359 49.3083 51.8359H47.0654V52.7772H49.3598C49.6098 52.7772 49.8012 52.7405 49.9041 52.6449ZM49.5731 54.9909C49.9187 54.9909 50.1246 54.9467 50.2423 54.8365C50.3158 54.7628 50.3452 54.6526 50.3452 54.5128C50.3452 54.3657 50.3085 54.2555 50.2202 54.1672C50.11 54.0717 49.9187 54.0274 49.5952 54.0274H47.0654V54.9909H49.5731Z" fill="#073141"/>
<path d="M59.3083 54.8659V56.2997H53.2266V50.5269H59.2568V51.9684H55.1679V52.7111H59.1391V54.1157H55.1679V54.8659H59.3083Z" fill="#073141"/>
<path d="M74.2207 50.5269V51.9757H71.7791V56.2997H69.7643V51.9757H67.3301V50.5269H74.2207Z" fill="#073141"/>
<path d="M91.8198 50.5269V51.9903H87.9001V52.8067H91.6359V54.2555H87.9001V56.2997H85.9219V50.5269H91.8198Z" fill="#073141"/>
<path d="M101.785 51.9757V50.5269H94.8945V51.9757H97.3288V56.2997H99.3438V51.9757H101.785Z" fill="#073141"/>
<path d="M109.302 50.5269V56.2997H107.331V54.204H104.375V56.2997H102.404V50.5269H104.375V52.6301H107.331V50.5269H109.302Z" fill="#073141"/>
<path d="M116.549 56.2997V54.8659H112.408V54.1157H116.379V52.7111H112.408V51.9684H116.497V50.5269H110.467V56.2997H116.549Z" fill="#073141"/>
<path d="M128.743 50.5269H130.646L128.537 56.2997H126.375C126.375 56.2997 125.219 52.8509 125.212 52.7551C125.206 52.8509 124.043 56.2997 124.043 56.2997H121.889L119.727 50.5269H121.866C121.866 50.5269 123.118 54.1597 123.118 54.248C123.118 54.1597 124.271 50.5269 124.271 50.5269H126.339C126.339 50.5269 127.5 54.1597 127.5 54.248C127.5 54.1597 128.743 50.5269 128.743 50.5269Z" fill="#073141"/>
<path fill-rule="evenodd" clip-rule="evenodd" d="M134.422 50.395C131.878 50.395 130.539 51.6012 130.539 53.3735C130.539 55.3737 131.943 56.3885 134.422 56.3885C137.151 56.3885 138.297 55.2119 138.297 53.3735C138.297 51.5056 137.003 50.395 134.422 50.395ZM134.422 54.9104C132.974 54.9104 132.554 54.3146 132.554 53.3954C132.554 52.491 133.01 51.8952 134.414 51.8952C135.953 51.8952 136.297 52.5644 136.297 53.3954C136.297 54.2779 135.878 54.9104 134.422 54.9104Z" fill="#073141"/>
<path fill-rule="evenodd" clip-rule="evenodd" d="M145.579 51.1153C145.842 51.3874 145.967 51.7624 145.967 52.2845C145.967 52.7332 145.858 53.1155 145.673 53.373C145.467 53.6524 145.152 53.8878 144.762 53.9465L146.504 56.2997H144.314L142.879 54.2628H141.092V56.2997H139.129V50.5269H143.725C144.637 50.5269 145.233 50.7476 145.579 51.1153ZM143.99 52.7699C144.04 52.6817 144.056 52.564 144.056 52.4684C144.056 52.358 144.04 52.2405 143.99 52.1669C143.887 51.9757 143.681 51.9242 143.371 51.9242H141.1V52.9759H143.408C143.725 52.9759 143.915 52.917 143.99 52.7699Z" fill="#073141"/>
<path d="M152.644 56.2997V54.7628H149.129V50.5269H147.137V56.2997H152.644Z" fill="#073141"/>
<path fill-rule="evenodd" clip-rule="evenodd" d="M160.445 53.3067C160.445 54.204 160.357 54.6894 160.093 55.1453C159.695 55.8732 158.909 56.2997 157.518 56.2997H153.43V50.5269H157.474C158.857 50.5269 159.674 50.9167 160.078 51.5859C160.364 52.0345 160.445 52.5124 160.445 53.3067ZM157.143 54.8805C157.768 54.8805 158.122 54.7334 158.335 54.4099C158.468 54.2113 158.505 53.748 158.505 53.3436C158.497 52.9759 158.453 52.5861 158.335 52.4095C158.107 52.064 157.762 51.939 157.159 51.939H155.401V54.8805H157.143Z" fill="#073141"/>
<path d="M81.5567 84.376H78.5094C78.5094 84.376 76.5209 90.1885 76.5209 90.3296C76.5209 90.1885 74.6619 84.376 74.6619 84.376H71.3555C71.3555 84.376 69.5082 90.1885 69.5082 90.3296C69.5082 90.1885 67.508 84.376 67.508 84.376H64.084L67.5432 93.6123H70.9907C70.9907 93.6123 72.8498 88.0941 72.8615 87.9412C72.8734 88.0941 74.7205 93.6123 74.7205 93.6123H78.1798L81.5567 84.376Z" fill="#073141"/>
<path d="M85.728 93.6123V84.376H82.4922V93.6123H85.728Z" fill="#073141"/>
<path d="M98.3148 84.376V93.6123H95.1613L90.5844 88.4706V93.6123H87.5488V84.376H90.8667L95.3025 89.4002V84.376H98.3148Z" fill="#073141"/>
<path d="M110.92 93.6123V84.376H107.908V89.4002L103.472 84.376H100.154V93.6123H103.19V88.4706L107.767 93.6123H110.92Z" fill="#073141"/>
<path d="M122.489 91.3179V93.6123H112.758V84.376H122.407V86.6821H115.864V87.8706H122.218V90.1179H115.864V91.3179H122.489Z" fill="#073141"/>
<path fill-rule="evenodd" clip-rule="evenodd" d="M134.925 87.1881C134.925 86.3527 134.725 85.7527 134.302 85.3173C133.748 84.7291 132.796 84.376 131.336 84.376H123.982V93.6123H127.125V90.3531H129.984L132.279 93.6123H135.784L132.996 89.8473C133.619 89.7531 134.125 89.3766 134.455 88.9294C134.748 88.5177 134.925 87.9058 134.925 87.1881ZM131.865 87.4823C131.865 87.6352 131.842 87.8235 131.759 87.9646C131.642 88.2 131.336 88.2941 130.83 88.2941H127.136V86.6116H130.771C131.265 86.6116 131.596 86.6939 131.759 86.9998C131.842 87.1175 131.865 87.3058 131.865 87.4823Z" fill="#073141"/>
<path d="M72.164 68.0806L70.888 64.1533L69.6118 68.0806H65.4824L68.8232 70.5077L67.5472 74.4351L70.888 72.0079L74.2286 74.4351L72.9526 70.5077L76.2934 68.0806H72.164Z" fill="#073141"/>
<path d="M85.6193 64.1509L86.9214 68.0782H91.135L87.7262 70.5055L89.0283 74.4326L85.6193 72.0055L82.2104 74.4326L83.5125 70.5055L80.1035 68.0782H84.3172L85.6193 64.1509Z" fill="#073141"/>
<path d="M101.537 68.0782L100.235 64.1509L98.9326 68.0782H94.7188L98.1278 70.5055L96.8257 74.4326L100.235 72.0055L103.644 74.4326L102.341 70.5055L105.75 68.0782H101.537Z" fill="#073141"/>
<path d="M114.85 64.1509L116.152 68.0782H120.366L116.957 70.5055L118.259 74.4326L114.85 72.0055L111.441 74.4326L112.743 70.5055L109.334 68.0782H113.548L114.85 64.1509Z" fill="#073141"/>
<path d="M130.857 68.0782L129.58 64.1509L128.303 68.0782H124.174L127.514 70.5055L126.239 74.4326L129.58 72.0055L132.92 74.4326L131.645 70.5055L134.985 68.0782H130.857Z" fill="#073141"/>
<path d="M184.428 22.0339C185.65 18.9291 185.119 15.3585 183.994 12.3558C182.809 9.19638 180.748 6.04503 177.667 4.3833C177.513 7.71311 178.53 11.0025 179.642 13.9689C180.642 16.6368 181.867 19.4791 183.892 21.6854C184.203 23.357 184.442 25.0239 184.609 26.6831C183.938 24.9306 182.852 23.3333 181.494 22.0487C179.746 20.3939 177.144 19.1173 174.703 19.8723C175.419 22.5706 177.048 25.1575 178.978 26.9721C180.498 28.4004 182.503 30.2304 184.865 30.3025C184.963 32.745 184.907 35.1652 184.705 37.5525C184.373 35.8056 183.659 34.1606 182.626 32.9356C181.209 31.2521 179.107 29.1958 176.425 29.5398C176.571 32.271 177.661 35.0693 179.178 37.172C180.382 38.8429 181.975 40.9727 184.234 41.5229C183.873 43.8681 183.369 46.1745 182.728 48.4314C182.723 46.7033 182.342 45.007 181.584 43.6464C180.517 41.7279 178.853 39.335 176.167 39.1479C175.773 41.8273 176.307 44.7564 177.384 47.086C178.244 48.9481 179.392 51.3227 181.482 52.3052C180.603 54.7341 179.565 57.0952 178.373 59.3739C178.792 57.4096 178.775 55.3398 178.28 53.4773C177.598 50.9104 175.905 48.2139 173.186 47.4316C172.225 50.2658 172.357 53.4281 172.917 56.3085C173.377 58.6802 174.278 61.4656 176.302 63.0062C174.978 65.1422 173.515 67.192 171.917 69.1423C172.777 67.2296 173.201 65.1375 172.973 63.2223C172.64 60.4331 171.857 57.4498 169.009 55.9633C167.392 58.7518 167.017 61.88 166.88 64.9698C166.769 67.4679 167.128 70.5491 168.865 72.5814C166.955 74.5648 164.898 76.4212 162.7 78.1331C164.119 76.3118 165.113 74.1746 165.323 72.0612C165.621 69.0748 165.476 65.7875 162.825 63.5958C160.559 65.9631 159.205 69.4494 158.544 72.4775C157.957 75.1546 157.346 78.3237 158.74 80.9585C155.942 82.7858 152.953 84.3956 149.794 85.7591C152.017 84.1748 153.836 82.0012 154.703 79.757C155.84 76.8158 156.542 73.3108 154.33 70.365C151.365 72.2641 149.186 75.5039 147.469 78.4591C145.996 80.9948 144.471 84.4946 145.228 87.5145C143.478 88.1079 141.684 88.6291 139.848 89.0737L139.957 89.5247C141.8 89.0783 143.601 88.5554 145.357 87.9602C146.588 91.596 150.619 92.7975 153.878 93.3277C158.523 94.0833 164.053 92.6195 168.019 89.67C165.925 86.7125 161.655 86.4125 158.436 86.1862L158.394 86.1833C154.867 85.9354 151.052 86.2666 147.505 87.1883C151.602 85.6285 155.436 83.667 158.973 81.3612L159.021 81.4381C160.957 84.5846 164.85 84.7077 167.903 84.5089C172.048 84.2393 176.83 81.7202 179.598 78.2381C176.994 75.9539 173.15 76.5929 170.169 77.0881L170.153 77.0908C166.828 77.6435 163.196 78.8491 160.146 80.7056C160.436 80.477 160.719 80.2352 160.996 79.9816C163.961 77.8671 166.696 75.502 169.178 72.9231C169.213 72.9575 169.248 72.9914 169.282 73.025C171.698 75.4348 175.203 74.7991 177.942 74.0104C181.615 72.9527 185.423 69.7618 187.248 66.0985C184.419 64.5139 181.038 65.8195 178.409 66.8525C175.519 67.9871 172.463 69.8027 170.113 72.1175C170.355 71.8118 170.588 71.4921 170.807 71.1614C172.99 68.6966 174.955 66.0571 176.682 63.2725L176.757 63.3189L176.776 63.331C179.505 65.0871 182.598 63.812 185.048 62.5577C188.373 60.856 191.046 57.116 192.2 53.4379C189.25 52.4931 186.336 54.3475 184.071 55.8162C181.59 57.4233 179.078 59.7156 177.355 62.3446C177.482 62.0852 177.601 61.8198 177.711 61.5496C179.367 58.6606 180.773 55.6279 181.911 52.482L181.971 52.502L181.98 52.5058C184.463 53.4456 187.226 51.9789 189.028 50.3704C191.532 48.1335 193.3 44.6945 193.713 41.3346C191.125 40.9993 188.684 43.0023 187.017 44.7106C185.098 46.6783 183.373 49.0039 182.313 51.5873C182.392 51.3054 182.459 51.0191 182.515 50.7296C183.478 47.7743 184.209 44.7264 184.69 41.6106L184.763 41.6202C187.378 42.0437 189.798 40.0535 191.244 38.1218C193.278 35.4035 194.327 31.6414 194.063 28.2314C191.45 28.4145 189.457 30.9021 188.167 32.9148C186.671 35.2458 185.43 37.8841 184.888 40.6443C184.905 40.4235 184.915 40.2016 184.919 39.9789C185.317 36.8071 185.459 33.5704 185.328 30.2939C188 30.2002 189.978 27.7202 190.998 25.521C192.453 22.3754 192.688 18.3989 191.717 15.0479C189.173 15.762 187.753 18.6798 186.917 20.9262C185.951 23.5162 185.278 26.3414 185.273 29.1498C185.134 26.7937 184.853 24.4187 184.428 22.0339Z" fill="#073141"/>
</svg>
