<svg width="205" height="101" viewBox="0 0 205 101" fill="none" xmlns="http://www.w3.org/2000/svg">
<g clip-path="url(#clip0_28_4084)">
<path d="M185.059 7.39099C186.97 10.248 188.805 13.7724 187.903 17.5494C184.789 15.767 182.284 12.857 180.298 9.98424C178.298 7.09215 176.221 4.0168 175.51 0.452148C179.438 1.4568 182.954 4.24564 185.059 7.39099Z" fill="#073141"/>
<path d="M16.2334 17.5432C15.3334 13.7656 17.172 10.2425 19.0871 7.3872C21.1952 4.24371 24.7127 1.45743 28.6411 0.455566C27.9273 4.01952 25.8473 7.09371 23.8452 9.98394C21.8566 12.8553 19.3485 15.7635 16.2334 17.5432Z" fill="#073141"/>
<path d="M13.4954 24.79C14.1979 21.7984 14.1824 18.5233 13.5135 15.7172C12.9254 13.2512 12.0696 9.76515 9.25283 8.58887C7.20539 11.8731 6.38236 16.3454 7.57562 19.6965C8.43841 22.1205 9.99003 25.3254 13.2079 25.8214C16.1607 26.5021 19.1465 24.927 21.5047 23.6265C24.1268 22.1807 26.6952 19.8805 28.2556 17.1458C25.3931 15.701 22.1331 16.8735 19.6805 17.9972C17.0368 19.2086 14.6082 21.8077 13.4954 24.79Z" fill="#073141"/>
<path d="M70.8012 27.664V12.644H65.6733V18.1164H57.9814V12.644H52.8535V27.664H57.9814V22.211H65.6733V27.664H70.8012Z" fill="#073141"/>
<path d="M87.8037 12.644H93.4672L85.4312 22.7085V27.664H80.2842V22.7275L72.3438 12.644H78.1793L82.9247 18.652L87.8037 12.644Z" fill="#073141"/>
<path fill-rule="evenodd" clip-rule="evenodd" d="M111.326 13.9259C112.34 14.7296 112.914 16.0882 112.914 18.0589C112.914 19.6661 112.513 20.8715 111.747 21.7136C110.714 22.8999 109.011 23.4354 106.792 23.4547C106.103 23.4738 100.209 23.4547 100.209 23.4547V27.664H95.0625V12.644H106.715C108.781 12.644 110.35 13.065 111.326 13.9259ZM107.519 19.2261C107.672 18.9582 107.748 18.6138 107.748 18.1354C107.748 17.638 107.652 17.2171 107.48 16.9875C107.155 16.5092 106.543 16.2794 105.548 16.2794H100.171V19.9531H105.509C106.581 19.9531 107.213 19.7045 107.519 19.2261Z" fill="#073141"/>
<path d="M130.786 23.9329V27.664H114.963V12.644H130.653V16.3943H120.014V18.3268H130.346V21.9813H120.014V23.9329H130.786Z" fill="#073141"/>
<path fill-rule="evenodd" clip-rule="evenodd" d="M149.996 14.1745C150.687 14.8824 151.01 15.8582 151.01 17.2168C151.01 18.384 150.724 19.3789 150.245 20.0487C149.71 20.7757 148.887 21.388 147.873 21.541L152.408 27.6638H146.705L142.975 22.3638H138.326V27.6638H133.217V12.6438H145.175C147.547 12.6438 149.098 13.2178 149.996 14.1745ZM145.863 18.4796C145.998 18.2501 146.035 17.9438 146.035 17.6952C146.035 17.4082 145.998 17.1019 145.863 16.9105C145.596 16.4131 145.061 16.2791 144.256 16.2791H138.345V19.0154H144.352C145.175 19.0154 145.673 18.8624 145.863 18.4796Z" fill="#073141"/>
<path d="M128.045 46.5024C128.045 43.0691 125.864 41.2647 120.777 40.7133C119.95 40.6131 117.519 40.3624 115.99 40.237C112.055 39.811 110.878 39.5856 110.878 38.5831C110.878 37.681 111.805 37.2549 115.338 37.2549C117.845 37.2549 119.248 37.731 119.799 38.4577C120.075 38.8087 120.175 39.0843 120.2 39.3601H127.418C127.343 38.7584 127.092 37.9063 126.691 37.1547C125.388 34.6484 122.255 32.6436 115.514 32.6436C107.92 32.6436 103.76 35.3252 103.76 38.8338C103.76 42.217 106.116 44.1968 112.481 44.7733C113.201 44.835 114.747 44.981 116.012 45.1005L116.091 45.108L116.105 45.1094L116.11 45.1098L116.792 45.1742C120.125 45.5252 121.027 45.7505 121.027 46.8033C121.027 47.7805 120.15 48.3068 116.466 48.3068C113.609 48.3068 111.93 47.8808 111.328 47.154C111.078 46.8533 110.902 46.4022 110.852 46.1015H103.635C103.71 46.6026 103.835 47.4047 104.111 48.0563C105.339 50.8131 108.547 52.9182 115.99 52.9182C123.985 52.9182 128.045 50.6626 128.045 46.5024Z" fill="#073141"/>
<path fill-rule="evenodd" clip-rule="evenodd" d="M76.878 50.6127C77.6298 49.7355 78.0057 48.4071 78.0057 47.0539C78.0057 45.9011 77.705 44.7983 77.0785 44.0716C76.3266 43.0941 74.9982 42.3925 73.595 42.2171C74.5473 42.0918 75.4494 41.5906 75.9757 40.939C76.6273 40.162 76.928 39.1095 76.928 37.8313C76.928 36.5532 76.5522 35.4255 75.7001 34.5734C74.7478 33.596 73.0184 32.9443 70.3119 32.9443H53.3203V52.6176H70.788C73.5699 52.6176 75.7252 52.016 76.878 50.6127ZM69.961 39.0092C69.961 39.4855 69.8105 39.8864 69.5601 40.162C69.2092 40.4878 68.5575 40.6132 67.7054 40.6132H59.8864V37.4053H67.5301C68.4824 37.4053 69.134 37.5306 69.4847 37.8564C69.8105 38.132 69.961 38.5329 69.961 39.0092ZM70.7129 47.6304C70.3119 48.0062 69.6101 48.1567 68.4322 48.1567H59.8864V44.8736H68.5075C69.6101 44.8736 70.2617 45.0239 70.6375 45.3497C70.9384 45.6504 71.0636 46.0264 71.0636 46.5276C71.0636 47.0039 70.9633 47.3797 70.7129 47.6304Z" fill="#073141"/>
<path d="M101.604 47.7306V52.6176H80.8789V32.9443H101.429V37.8564H87.495V40.3876H101.028V45.1743H87.495V47.7306H101.604Z" fill="#073141"/>
<path d="M152.429 37.8815V32.9443H128.947V37.8815H137.243V52.6176H144.108V37.8815H152.429Z" fill="#073141"/>
<path d="M151.835 70.0261H150.731L150.652 68.9624C150.314 69.5007 149.601 70.147 148.094 70.147C145.547 70.147 144.363 68.6121 144.363 64.6933C144.363 61.6635 145.117 59.2263 148.226 59.2263C150.921 59.2263 151.742 60.9905 151.782 62.8891H150.435C150.396 61.6503 149.842 60.5056 148.254 60.5056C146.342 60.5056 145.789 61.6503 145.789 64.734C145.789 67.9524 146.477 68.9624 148.282 68.9624C149.547 68.9624 150.287 68.2621 150.531 67.4273V65.4207H147.81V64.1952H151.821V67.2926C151.821 68.218 151.831 69.2056 151.833 69.7021L151.835 69.9384V70.0261Z" fill="#073141"/>
<path fill-rule="evenodd" clip-rule="evenodd" d="M53.5756 67.346H57.3461L58.127 70.0257H59.5544L56.4303 59.3608H54.6933L51.3535 70.0257H52.7675L53.5756 67.346ZM57.0093 66.1476H53.9391C53.9391 66.1476 55.2721 61.8385 55.2991 61.7443C55.3126 61.6769 55.5282 60.7208 55.5282 60.7208L55.6772 61.4281L55.7435 61.7443C55.757 61.8115 57.0093 66.1476 57.0093 66.1476Z" fill="#073141"/>
<path d="M69.7736 59.3613H71.0664L68.5483 70.0262H66.9457C66.9457 70.0262 65.1548 61.7313 65.1548 61.3811C65.1413 61.7313 63.3099 70.0262 63.3099 70.0262H61.7076L59.1895 59.3613H60.6436C60.6436 59.3613 62.5962 67.8044 62.5962 68.1411C62.5962 67.8044 64.3874 59.3613 64.3874 59.3613H65.9897C65.9897 59.3613 67.7806 67.8178 67.7806 68.1411C67.7806 67.8178 69.7736 59.3613 69.7736 59.3613Z" fill="#073141"/>
<path fill-rule="evenodd" clip-rule="evenodd" d="M76.5958 67.3464H72.8254L72.0175 70.0262H70.6035L73.9431 59.3613H75.6803L78.8045 70.0262H77.377L76.5958 67.3464ZM73.1891 66.1481H76.2593C76.2593 66.1481 75.007 61.812 74.9935 61.7448L74.8917 61.2595L74.7779 60.7213C74.7779 60.7213 74.5626 61.6774 74.5491 61.7448C74.5221 61.839 73.1891 66.1481 73.1891 66.1481Z" fill="#073141"/>
<path fill-rule="evenodd" clip-rule="evenodd" d="M83.9946 59.3613C85.6373 59.3613 86.5262 60.1288 86.5262 62.3641C86.5262 64.263 85.8125 64.8957 85.0718 65.1111L87.1187 70.0262H85.6373L83.7387 65.3806H81.1534V70.0262H79.8066V59.3613H83.9946ZM83.7927 64.1685C84.8564 64.1685 85.1122 63.6164 85.1122 62.4046C85.1122 61.0311 84.7083 60.6137 83.7253 60.6137H81.1666V64.1685H83.7927Z" fill="#073141"/>
<path fill-rule="evenodd" clip-rule="evenodd" d="M95.4901 64.5188C95.4901 67.0369 95.3017 68.0602 94.7631 68.8278C94.2245 69.5685 93.3761 70.0262 92.0024 70.0262H88.3398V59.3613H91.9082C93.255 59.3613 94.3052 59.7653 94.7901 60.4925C95.3287 61.2734 95.4901 62.243 95.4901 64.5188ZM91.7198 68.7604C92.5412 68.7604 93.228 68.5451 93.578 68.0737C93.9552 67.562 94.0629 66.5251 94.0629 64.5188C94.0629 62.8355 93.9685 61.9332 93.578 61.3541C93.2145 60.856 92.5143 60.6404 91.6929 60.6404H89.6998V68.7604H91.7198Z" fill="#073141"/>
<path d="M109.699 59.3608H110.992L108.474 70.0257H106.872C106.872 70.0257 105.081 61.7308 105.081 61.3806C105.067 61.7308 103.236 70.0257 103.236 70.0257H101.633L99.1152 59.3608H100.569C100.569 59.3608 102.522 67.8039 102.522 68.1406C102.522 67.8039 104.313 59.3608 104.313 59.3608H105.915C105.915 59.3608 107.706 67.8174 107.706 68.1406C107.706 67.8174 109.699 59.3608 109.699 59.3608Z" fill="#073141"/>
<path d="M113.375 59.3608V70.0257H111.975V59.3608H113.375Z" fill="#073141"/>
<path d="M122.14 59.3608V70.0257H120.591L116.619 61.7576V70.0257H115.312V59.3608H116.942L120.82 67.5076V59.3608H122.14Z" fill="#073141"/>
<path d="M130.87 59.3608V70.0257H129.321L125.349 61.7576V70.0257H124.043V59.3608H125.673L129.551 67.5076V59.3608H130.87Z" fill="#073141"/>
<path d="M134.177 59.3608V70.0257H132.777V59.3608H134.177Z" fill="#073141"/>
<path d="M142.943 59.3611V70.026H141.394L137.422 61.7578V70.026H136.115V59.3611H137.745L141.625 67.5078V59.3611H142.943Z" fill="#073141"/>
<path d="M68.736 91.0459L67.193 86.2966L65.6497 91.0459H60.6562L64.696 93.9813L63.153 98.7306L67.193 95.7952L71.233 98.7306L69.6897 93.9813L73.7297 91.0459H68.736Z" fill="#073141"/>
<path d="M86.5789 91.0467L85.0042 86.2974L83.4296 91.0467H78.334L82.4565 93.9818L80.8819 98.7311L85.0042 95.796L89.1268 98.7311L87.5521 93.9818L91.6744 91.0467H86.5789Z" fill="#073141"/>
<path d="M104.253 91.0469L102.678 86.2976L101.103 91.0469H96.0078L100.13 93.982L98.5555 98.7313L102.678 95.7962L106.8 98.7313L105.226 93.982L109.348 91.0469H104.253Z" fill="#073141"/>
<path d="M121.927 91.0469L120.352 86.2976L118.777 91.0469H113.682L117.804 93.982L116.229 98.7313L120.352 95.7962L124.474 98.7313L122.9 93.982L127.022 91.0469H121.927Z" fill="#073141"/>
<path d="M139.712 91.0472L138.17 86.2979L136.626 91.0472H131.633L135.672 93.9823L134.13 98.7316L138.17 95.7965L142.21 98.7316L140.665 93.9823L144.707 91.0472H139.712Z" fill="#073141"/>
<path d="M4.40048 32.8628C5.85257 35.0781 8.09955 37.853 11.3758 37.774C14.3551 37.9228 16.9291 35.8895 18.9561 34.1926C21.1391 32.3649 23.1096 29.6921 23.9414 26.8026C20.8942 25.916 17.9768 27.5584 15.8012 29.1074C13.5293 30.7253 11.7821 33.6863 11.4068 36.7265C11.3786 33.6807 10.5542 30.5349 9.22513 28.0007C8.01002 25.6839 6.31676 22.5523 3.29583 21.9263C2.1056 25.5312 2.48536 29.9419 4.40048 32.8628Z" fill="#073141"/>
<path d="M12.3451 49.7054C9.30444 50.2149 6.3384 48.3519 4.41212 46.1605C1.93212 43.3391 0.456534 39.5542 0.757464 35.7651C3.88119 35.8444 6.247 38.5447 7.9956 40.5865C9.87886 42.7856 11.4219 45.6789 12.1621 48.6635C11.8365 45.6891 12.8351 42.4772 14.6889 40.4926C16.4782 38.5768 18.9847 36.4889 22.1033 36.824C22.0361 39.84 20.5242 42.7135 18.9649 44.8656C17.5114 46.8712 15.2723 49.3519 12.3451 49.7054Z" fill="#073141"/>
<path d="M6.72814 59.7274C9.52861 61.5507 12.9251 63.3553 16.4947 61.9895C19.423 60.9535 21.2849 58.0058 22.43 55.3002C23.643 52.4335 24.4533 49.1279 23.8923 45.9902C20.6744 46.2758 18.0061 48.5781 16.5888 51.3886C15.1072 54.3267 14.823 57.824 15.9612 60.9044C14.2795 57.7354 11.8202 55.1712 9.21512 52.8019C6.84698 50.6481 3.43581 48.3793 0 48.806C0.653721 53.0537 3.24582 57.4605 6.72814 59.7274Z" fill="#073141"/>
<path d="M23.7114 73.4728C26.4672 71.8253 27.5763 68.3588 28.0295 65.3884C28.5181 62.1849 28.4972 58.6519 27.1667 55.6128C23.9695 56.5058 21.7749 59.3835 21.0502 62.5354C20.2846 65.8654 20.9307 69.4144 22.793 72.2498C20.3174 69.4095 17.0256 67.0644 13.8709 65.42C10.8237 63.8316 7.08532 61.9158 3.42578 63.0728C5.19043 67.3795 8.96532 71.3893 13.149 73.0479C16.389 74.3321 20.3307 75.6021 23.7114 73.4728Z" fill="#073141"/>
<path d="M36.7709 74.5874C37.1753 77.6795 37.1639 81.6014 34.7632 83.9814C31.7632 87.0521 27.1204 86.4595 23.5395 85.784C18.732 84.8763 13.3204 81.5974 10.4199 77.2316C13.9622 75.2812 18.2946 76.5288 21.8016 77.5388L22.0018 77.5963C25.9164 78.7226 30.0881 80.5365 33.5769 83.0151C30.7927 80.4993 28.7641 76.8067 28.6648 73.0849C28.5755 69.756 30.0204 66.1947 33.1297 64.6079C35.3004 67.457 36.3169 71.1149 36.7709 74.5874Z" fill="#073141"/>
<path d="M50.709 92.7367C52.4769 89.3713 50.7253 85.4215 49.3295 82.5022C47.6792 79.0511 45.4246 75.5339 42.1978 73.0078C39.0995 75.678 39.3941 79.4987 40.3153 82.8192C41.4106 86.7673 45.2081 90.1329 49.1404 92.0508C44.5862 90.3525 39.6125 89.3332 34.8804 89.0322L34.4011 89.0013C30.5995 88.7536 25.6504 88.4313 22.6211 91.2134C27.2013 95.1071 33.7071 97.3536 39.4411 97.2369C43.2836 97.1587 48.5557 96.7041 50.709 92.7367Z" fill="#073141"/>
<path d="M190.64 24.8007C189.531 21.8163 187.103 19.214 184.461 18.0003C182.008 16.8747 178.75 15.7 175.887 17.1424C177.445 19.8782 180.01 22.1803 182.631 23.6282C184.987 24.93 187.97 26.5073 190.924 25.8294C194.143 25.3363 195.698 22.1321 196.563 19.7082C197.761 16.3587 196.943 11.8854 194.898 8.59912C192.08 9.77377 191.219 13.2589 190.631 15.7247C189.959 18.5314 189.94 21.8077 190.64 24.8007Z" fill="#073141"/>
<path d="M188.325 29.1132C190.594 30.7318 192.336 33.6911 192.711 36.7293C192.743 33.6851 193.571 30.5423 194.901 28.0107C196.118 25.6946 197.815 22.5644 200.836 21.9404C202.022 25.5465 201.639 29.9569 199.72 32.8762C198.269 35.0876 196.022 37.8567 192.753 37.7825C189.769 37.9348 187.192 35.8967 185.164 34.1962C182.983 32.3667 181.015 29.6925 180.188 26.8025C183.234 25.9179 186.15 27.5625 188.325 29.1132Z" fill="#073141"/>
<path d="M191.942 48.6832C192.274 45.7062 191.279 42.4876 189.423 40.499C187.637 38.5818 185.132 36.492 182.014 36.8248C182.076 39.8408 183.586 42.7157 185.144 44.869C186.595 46.8748 188.83 49.3555 191.756 49.7129C194.797 50.228 197.767 48.3659 199.697 46.1748C202.179 43.3555 203.658 39.5718 203.363 35.7822C200.237 35.8594 197.869 38.5576 196.118 40.598C194.23 42.7985 192.683 45.695 191.942 48.6832Z" fill="#073141"/>
<path d="M187.515 51.3942C188.994 54.334 189.275 57.8319 188.134 60.9114C189.817 57.7428 192.28 55.1802 194.887 52.8126C197.257 50.6605 200.671 48.3947 204.106 48.8237C203.45 53.0712 200.852 57.4761 197.368 59.7402C194.568 61.5588 191.175 63.3598 187.61 61.9995C184.678 60.9654 182.815 58.0116 181.671 55.3014C180.459 52.4337 179.652 49.1277 180.217 45.9902C183.434 46.2784 186.101 48.5828 187.515 51.3942Z" fill="#073141"/>
<path d="M181.3 72.2441C183.161 69.4115 183.81 65.8659 183.049 62.5376C182.328 59.385 180.135 56.5057 176.938 55.6104C175.605 58.648 175.582 62.1808 176.065 65.385C176.517 68.3496 177.619 71.8092 180.358 73.4627C183.742 75.6087 187.693 74.3394 190.938 73.0557C195.124 71.4001 198.903 67.3931 200.67 63.0873C197.012 61.928 193.272 63.841 190.224 65.4271C187.07 67.0683 183.777 69.4085 181.3 72.2441Z" fill="#073141"/>
<path d="M167.307 74.5783C166.9 77.6697 166.907 81.5913 169.307 83.9734C172.302 87.0464 176.946 86.4571 180.528 85.7839C185.337 84.8799 190.751 81.6046 193.656 77.2413C190.116 75.2885 185.781 76.5325 182.274 77.5397L182.072 77.5974C178.158 78.7201 173.986 80.5304 170.495 83.0053C173.281 80.4915 175.311 76.802 175.414 73.0815C175.507 69.7529 174.065 66.1904 170.958 64.6011C168.784 67.4485 167.765 71.106 167.307 74.5783Z" fill="#073141"/>
<path d="M164.624 97.2253C160.782 97.1442 155.51 96.6858 153.361 92.7165L153.331 92.6621C151.614 89.3069 153.358 85.3856 154.749 82.4835C156.403 79.0335 158.661 75.5179 161.889 72.9946C164.986 75.667 164.686 79.4874 163.763 82.8069C162.663 86.7544 158.863 90.1177 154.928 92.0323C159.484 90.3374 164.458 89.3218 169.191 89.0242L169.672 88.9935C173.475 88.7488 178.424 88.4307 181.449 91.2144C176.865 95.1042 170.358 97.3463 164.624 97.2253Z" fill="#073141"/>
</g>
<defs>
<clipPath id="clip0_28_4084">
<rect width="204.651" height="100" fill="white" transform="translate(0 0.452148)"/>
</clipPath>
</defs>
</svg>
