<svg width="98" height="136" viewBox="0 0 98 136" fill="none" xmlns="http://www.w3.org/2000/svg">
<path d="M53.8359 36.4848V18.8623C53.8359 17.7502 54.7458 16.8403 55.8579 16.8403C56.97 16.8403 57.8799 17.7503 57.8799 18.8623V30.8263" stroke="#073141" stroke-width="1.46509" stroke-miterlimit="22.9256"/>
<path d="M57.8803 27.2879C57.8803 26.1758 58.7902 25.2659 59.9023 25.2659C61.0145 25.2659 61.9243 26.1757 61.9243 27.2879V31.3319M65.9684 29.3099C65.9684 28.1978 66.8783 27.2879 67.9904 27.2879C69.1025 27.2879 70.0124 28.1979 70.0124 29.3099V38.916L67.9904 44.929H55.8055L50.9062 38.916V31.3148L53.8364 28.7777M65.9684 31.8374V28.2989C65.9684 27.1868 65.0585 26.2769 63.9464 26.2769C62.8343 26.2769 61.9244 27.1868 61.9244 28.2989" stroke="#073141" stroke-width="1.46509" stroke-miterlimit="22.9256"/>
<path d="M55.8057 44.929V49.2674H62.8629M64.328 49.2674H67.9906V44.929" stroke="#073141" stroke-width="1.46509" stroke-miterlimit="22.9256"/>
<path d="M53.8365 20.12L49.0788 22.4119L50.0899 14.9548L44.8887 9.5162L48.3014 8.89735M49.7433 8.63598L52.2934 8.17361L55.8585 1.54639L59.4236 8.17361L66.8282 9.5163L61.627 14.9549L62.6381 22.412L57.8804 20.1201" stroke="#073141" stroke-width="1.46509" stroke-miterlimit="22.9256"/>
<path fill-rule="evenodd" clip-rule="evenodd" d="M36.8783 15.4907L39.528 20.4161L45.0312 21.414L41.1656 25.4561L41.917 30.9983L36.8783 28.5709L31.8397 30.9983L32.5911 25.4561L28.7256 21.414L34.2287 20.4161L36.8783 15.4907Z" stroke="#073141" stroke-width="1.46509" stroke-miterlimit="22.9256"/>
<path fill-rule="evenodd" clip-rule="evenodd" d="M39.8089 36.0732L41.479 39.1778L44.9478 39.8069L42.5112 42.3547L42.9849 45.8481L39.8089 44.3181L36.6328 45.8481L37.1065 42.3547L34.6699 39.8069L38.1387 39.1778L39.8089 36.0732Z" stroke="#073141" stroke-width="1.46509" stroke-miterlimit="22.9256"/>
<path d="M56.5903 11.9792H58.0554M53.6602 11.9792H55.1252" stroke="#073141" stroke-width="1.46509" stroke-miterlimit="22.9256"/>
<path d="M1.53826 79V65.9091H10.0525V67.897H3.90971V71.451H9.61142V73.4389H3.90971V77.0121H10.1036V79H1.53826ZM14.2616 69.1818L16.2432 72.8061L18.2567 69.1818H20.7048L17.7453 74.0909L20.7559 79H18.3206L16.2432 75.4652L14.1849 79H11.7304L14.7219 74.0909L11.8071 69.1818H14.2616ZM22.4946 82.6818V69.1818H24.7702V70.8054H24.9044C25.0237 70.5668 25.192 70.3132 25.4094 70.0447C25.6267 69.772 25.9207 69.5398 26.2915 69.348C26.6622 69.152 27.1352 69.054 27.7105 69.054C28.469 69.054 29.153 69.2479 29.7623 69.6357C30.376 70.0192 30.8618 70.5881 31.2197 71.3423C31.5819 72.0923 31.7631 73.0128 31.7631 74.1037C31.7631 75.1818 31.5862 76.098 31.2325 76.8523C30.8788 77.6065 30.3973 78.1818 29.7879 78.5781C29.1785 78.9744 28.4882 79.1726 27.7169 79.1726C27.1544 79.1726 26.6878 79.0788 26.317 78.8913C25.9463 78.7038 25.648 78.478 25.4221 78.2138C25.2006 77.9453 25.028 77.6918 24.9044 77.4531H24.8085V82.6818H22.4946ZM24.7638 74.0909C24.7638 74.7259 24.8532 75.282 25.0322 75.7592C25.2155 76.2365 25.4775 76.6094 25.8184 76.8778C26.1636 77.142 26.5812 77.2741 27.0713 77.2741C27.5827 77.2741 28.0109 77.1378 28.3561 76.8651C28.7013 76.5881 28.9612 76.2109 29.1359 75.7337C29.3149 75.2521 29.4044 74.7045 29.4044 74.0909C29.4044 73.4815 29.317 72.9403 29.1423 72.4673C28.9676 71.9943 28.7077 71.6236 28.3625 71.3551C28.0173 71.0866 27.5869 70.9524 27.0713 70.9524C26.577 70.9524 26.1572 71.0824 25.8121 71.3423C25.4669 71.6023 25.2048 71.9666 25.0258 72.4354C24.8511 72.9041 24.7638 73.456 24.7638 74.0909ZM38.0912 79.1918C37.1068 79.1918 36.2567 78.9872 35.5407 78.5781C34.8291 78.1648 34.2815 77.581 33.898 76.8267C33.5145 76.0682 33.3227 75.1754 33.3227 74.1484C33.3227 73.1385 33.5145 72.2521 33.898 71.4893C34.2858 70.7223 34.827 70.1257 35.5216 69.6996C36.2162 69.2692 37.0322 69.054 37.9697 69.054C38.5748 69.054 39.1459 69.152 39.6828 69.348C40.224 69.5398 40.7013 69.8381 41.1146 70.2429C41.5322 70.6477 41.8604 71.1634 42.099 71.7898C42.3376 72.4119 42.4569 73.1534 42.4569 74.0142V74.7237H34.4094V73.1641H40.2389C40.2346 72.7209 40.1388 72.3267 39.9513 71.9815C39.7638 71.6321 39.5017 71.3572 39.165 71.157C38.8327 70.9567 38.4449 70.8565 38.0017 70.8565C37.5287 70.8565 37.1132 70.9716 36.7552 71.2017C36.3973 71.4276 36.1182 71.7259 35.9179 72.0966C35.7219 72.4631 35.6217 72.8658 35.6175 73.3047V74.6662C35.6175 75.2372 35.7219 75.7273 35.9307 76.1364C36.1395 76.5412 36.4314 76.8523 36.8064 77.0696C37.1814 77.2827 37.6203 77.3892 38.1231 77.3892C38.4598 77.3892 38.7645 77.3423 39.0372 77.2486C39.3099 77.1506 39.5464 77.0078 39.7467 76.8203C39.947 76.6328 40.0983 76.4006 40.2006 76.1236L42.3611 76.3665C42.2247 76.9375 41.9648 77.4361 41.5812 77.8622C41.202 78.2841 40.7162 78.6122 40.1238 78.8466C39.5315 79.0767 38.854 79.1918 38.0912 79.1918ZM44.4145 79V69.1818H46.6581V70.8182H46.7604C46.9394 70.2514 47.2462 69.8146 47.6808 69.5078C48.1198 69.1967 48.6205 69.0412 49.183 69.0412C49.3108 69.0412 49.4536 69.0476 49.6112 69.0604C49.7732 69.0689 49.9074 69.0838 50.0139 69.1051V71.2337C49.9159 71.1996 49.7604 71.1697 49.5473 71.1442C49.3385 71.1143 49.1361 71.0994 48.9401 71.0994C48.5182 71.0994 48.1389 71.1911 47.8023 71.3743C47.4699 71.5533 47.2078 71.8026 47.0161 72.1222C46.8243 72.4418 46.7284 72.8104 46.7284 73.228V79H44.4145ZM51.5512 79V69.1818H53.8651V79H51.5512ZM52.7146 67.7884C52.3481 67.7884 52.0328 67.6669 51.7686 67.424C51.5044 67.1768 51.3722 66.8807 51.3722 66.5355C51.3722 66.1861 51.5044 65.8899 51.7686 65.647C52.0328 65.3999 52.3481 65.2763 52.7146 65.2763C53.0853 65.2763 53.4007 65.3999 53.6606 65.647C53.9248 65.8899 54.0569 66.1861 54.0569 66.5355C54.0569 66.8807 53.9248 67.1768 53.6606 67.424C53.4007 67.6669 53.0853 67.7884 52.7146 67.7884ZM60.5912 79.1918C59.6068 79.1918 58.7567 78.9872 58.0407 78.5781C57.3291 78.1648 56.7815 77.581 56.398 76.8267C56.0145 76.0682 55.8227 75.1754 55.8227 74.1484C55.8227 73.1385 56.0145 72.2521 56.398 71.4893C56.7858 70.7223 57.327 70.1257 58.0216 69.6996C58.7162 69.2692 59.5322 69.054 60.4697 69.054C61.0748 69.054 61.6459 69.152 62.1828 69.348C62.724 69.5398 63.2013 69.8381 63.6146 70.2429C64.0322 70.6477 64.3604 71.1634 64.599 71.7898C64.8376 72.4119 64.9569 73.1534 64.9569 74.0142V74.7237H56.9094V73.1641H62.7389C62.7346 72.7209 62.6388 72.3267 62.4513 71.9815C62.2638 71.6321 62.0017 71.3572 61.665 71.157C61.3327 70.9567 60.9449 70.8565 60.5017 70.8565C60.0287 70.8565 59.6132 70.9716 59.2552 71.2017C58.8973 71.4276 58.6182 71.7259 58.4179 72.0966C58.2219 72.4631 58.1217 72.8658 58.1175 73.3047V74.6662C58.1175 75.2372 58.2219 75.7273 58.4307 76.1364C58.6395 76.5412 58.9314 76.8523 59.3064 77.0696C59.6814 77.2827 60.1203 77.3892 60.6231 77.3892C60.9598 77.3892 61.2645 77.3423 61.5372 77.2486C61.8099 77.1506 62.0464 77.0078 62.2467 76.8203C62.447 76.6328 62.5983 76.4006 62.7006 76.1236L64.8611 76.3665C64.7247 76.9375 64.4648 77.4361 64.0812 77.8622C63.702 78.2841 63.2162 78.6122 62.6238 78.8466C62.0315 79.0767 61.354 79.1918 60.5912 79.1918ZM69.2284 73.2472V79H66.9145V69.1818H69.1262V70.8501H69.2412C69.4671 70.3004 69.8271 69.8636 70.3215 69.5398C70.82 69.2159 71.4358 69.054 72.1688 69.054C72.8463 69.054 73.4365 69.1989 73.9394 69.4886C74.4465 69.7784 74.8385 70.1982 75.1155 70.7479C75.3968 71.2976 75.5352 71.9645 75.531 72.7486V79H73.2171V73.1065C73.2171 72.4503 73.0466 71.9368 72.7057 71.5661C72.3691 71.1953 71.9024 71.0099 71.3058 71.0099C70.901 71.0099 70.5409 71.0994 70.2256 71.2784C69.9145 71.4531 69.6695 71.7067 69.4905 72.0391C69.3158 72.3714 69.2284 72.7741 69.2284 73.2472ZM82.1659 79.1918C81.1858 79.1918 80.3442 78.9766 79.6411 78.5462C78.9422 78.1158 78.4031 77.5213 78.0239 76.7628C77.6489 76 77.4614 75.1222 77.4614 74.1293C77.4614 73.1321 77.6531 72.2521 78.0367 71.4893C78.4202 70.7223 78.9614 70.1257 79.6602 69.6996C80.3634 69.2692 81.1943 69.054 82.1531 69.054C82.95 69.054 83.6553 69.201 84.2689 69.495C84.8868 69.7848 85.379 70.196 85.7455 70.7287C86.1119 71.2571 86.3208 71.875 86.3719 72.5824H84.1602C84.0708 72.1094 83.8577 71.7152 83.521 71.3999C83.1887 71.0803 82.7433 70.9205 82.1851 70.9205C81.7121 70.9205 81.2966 71.0483 80.9387 71.304C80.5807 71.5554 80.3016 71.9176 80.1013 72.3906C79.9053 72.8636 79.8073 73.4304 79.8073 74.0909C79.8073 74.7599 79.9053 75.3352 80.1013 75.8168C80.2973 76.294 80.5722 76.6626 80.9259 76.9226C81.2838 77.1783 81.7036 77.3061 82.1851 77.3061C82.526 77.3061 82.8307 77.2422 83.0992 77.1143C83.3719 76.9822 83.5999 76.7926 83.7831 76.5455C83.9664 76.2983 84.0921 75.9979 84.1602 75.6442H86.3719C86.3165 76.3388 86.1119 76.9545 85.7583 77.4915C85.4046 78.0241 84.923 78.4418 84.3137 78.7443C83.7043 79.0426 82.9884 79.1918 82.1659 79.1918ZM92.6185 79.1918C91.6341 79.1918 90.784 78.9872 90.0681 78.5781C89.3564 78.1648 88.8089 77.581 88.4253 76.8267C88.0418 76.0682 87.8501 75.1754 87.8501 74.1484C87.8501 73.1385 88.0418 72.2521 88.4253 71.4893C88.8131 70.7223 89.3543 70.1257 90.0489 69.6996C90.7435 69.2692 91.5596 69.054 92.4971 69.054C93.1022 69.054 93.6732 69.152 94.2101 69.348C94.7513 69.5398 95.2286 69.8381 95.642 70.2429C96.0596 70.6477 96.3877 71.1634 96.6263 71.7898C96.865 72.4119 96.9843 73.1534 96.9843 74.0142V74.7237H88.9367V73.1641H94.7662C94.762 72.7209 94.6661 72.3267 94.4786 71.9815C94.2911 71.6321 94.029 71.3572 93.6924 71.157C93.36 70.9567 92.9722 70.8565 92.529 70.8565C92.056 70.8565 91.6405 70.9716 91.2826 71.2017C90.9246 71.4276 90.6455 71.7259 90.4452 72.0966C90.2492 72.4631 90.1491 72.8658 90.1448 73.3047V74.6662C90.1448 75.2372 90.2492 75.7273 90.458 76.1364C90.6668 76.5412 90.9587 76.8523 91.3337 77.0696C91.7087 77.2827 92.1476 77.3892 92.6505 77.3892C92.9871 77.3892 93.2918 77.3423 93.5645 77.2486C93.8373 77.1506 94.0738 77.0078 94.2741 76.8203C94.4743 76.6328 94.6256 76.4006 94.7279 76.1236L96.8884 76.3665C96.752 76.9375 96.4921 77.4361 96.1086 77.8622C95.7293 78.2841 95.2435 78.6122 94.6512 78.8466C94.0589 79.0767 93.3813 79.1918 92.6185 79.1918Z" fill="#073141"/>
<g clip-path="url(#clip0_2006_404)">
<path d="M15.2074 127V124.455L23.0824 116.295C23.9233 115.409 24.6165 114.633 25.1619 113.966C25.715 113.292 26.1278 112.652 26.4006 112.045C26.6733 111.439 26.8097 110.795 26.8097 110.114C26.8097 109.341 26.6278 108.674 26.2642 108.114C25.9006 107.545 25.4044 107.11 24.7756 106.807C24.1468 106.496 23.4384 106.341 22.6506 106.341C21.8172 106.341 21.09 106.511 20.4688 106.852C19.8475 107.193 19.3703 107.674 19.0369 108.295C18.7036 108.917 18.5369 109.644 18.5369 110.477H15.1847C15.1847 109.061 15.5104 107.822 16.1619 106.761C16.8134 105.701 17.7074 104.879 18.8438 104.295C19.9801 103.705 21.2718 103.409 22.7188 103.409C24.1809 103.409 25.4688 103.701 26.5824 104.284C27.7036 104.86 28.5786 105.648 29.2074 106.648C29.8362 107.64 30.1506 108.761 30.1506 110.011C30.1506 110.875 29.9877 111.72 29.6619 112.545C29.3438 113.371 28.7869 114.292 27.9915 115.307C27.196 116.314 26.09 117.538 24.6733 118.977L20.0483 123.818V123.989H30.5256V127H15.2074ZM14.7188 164.455V161.614L24.7756 145.727H27.0142V149.909H25.5938L18.4006 161.295V161.477H32.1847V164.455H14.7188ZM25.7528 169V163.591L25.7756 162.295V145.727H29.1051V169H25.7528ZM23.3324 211.318C22.2945 211.303 21.2718 211.114 20.2642 210.75C19.2642 210.386 18.3551 209.78 17.5369 208.932C16.7188 208.083 16.0634 206.943 15.571 205.511C15.0862 204.08 14.8438 202.292 14.8438 200.148C14.8438 198.117 15.0445 196.314 15.446 194.739C15.8551 193.163 16.4422 191.833 17.2074 190.75C17.9725 189.659 18.8968 188.83 19.9801 188.261C21.0634 187.693 22.2794 187.409 23.6278 187.409C25.0142 187.409 26.2453 187.682 27.321 188.227C28.3968 188.773 29.268 189.527 29.9347 190.489C30.6089 191.451 31.0369 192.545 31.2188 193.773H27.7528C27.518 192.803 27.0521 192.011 26.3551 191.398C25.6581 190.784 24.7491 190.477 23.6278 190.477C21.9233 190.477 20.5938 191.22 19.6392 192.705C18.6922 194.189 18.215 196.254 18.2074 198.898H18.3778C18.7794 198.239 19.2718 197.678 19.8551 197.216C20.446 196.746 21.1051 196.386 21.8324 196.136C22.5672 195.879 23.34 195.75 24.1506 195.75C25.4991 195.75 26.7188 196.08 27.8097 196.739C28.9081 197.39 29.7831 198.292 30.4347 199.443C31.0862 200.595 31.4119 201.913 31.4119 203.398C31.4119 204.883 31.0748 206.227 30.4006 207.432C29.7339 208.636 28.7945 209.591 27.5824 210.295C26.3703 210.992 24.9536 211.333 23.3324 211.318ZM23.321 208.364C24.215 208.364 25.0142 208.144 25.7188 207.705C26.4233 207.265 26.9801 206.674 27.3892 205.932C27.7983 205.189 28.0028 204.36 28.0028 203.443C28.0028 202.549 27.8021 201.735 27.4006 201C27.0066 200.265 26.4612 199.682 25.7642 199.25C25.0748 198.818 24.2869 198.602 23.4006 198.602C22.7263 198.602 22.1013 198.731 21.5256 198.989C20.9574 199.246 20.4574 199.602 20.0256 200.057C19.5938 200.511 19.2528 201.034 19.0028 201.625C18.7604 202.208 18.6392 202.826 18.6392 203.477C18.6392 204.348 18.84 205.155 19.2415 205.898C19.6506 206.64 20.2074 207.239 20.9119 207.693C21.6241 208.14 22.4271 208.364 23.321 208.364ZM23.071 253.318C21.4422 253.318 20.0028 253.038 18.7528 252.477C17.5104 251.917 16.5369 251.144 15.8324 250.159C15.1278 249.174 14.7794 248.053 14.7869 246.795C14.7794 245.811 14.9801 244.905 15.3892 244.08C15.8059 243.246 16.3703 242.553 17.0824 242C17.7945 241.439 18.59 241.083 19.4688 240.932V240.795C18.3097 240.515 17.3816 239.894 16.6847 238.932C15.9877 237.97 15.643 236.864 15.6506 235.614C15.643 234.424 15.9574 233.364 16.5938 232.432C17.2377 231.492 18.1203 230.754 19.2415 230.216C20.3627 229.678 21.6392 229.409 23.071 229.409C24.4877 229.409 25.7528 229.682 26.8665 230.227C27.9877 230.765 28.8703 231.504 29.5142 232.443C30.1581 233.375 30.4839 234.432 30.4915 235.614C30.4839 236.864 30.1278 237.97 29.4233 238.932C28.7188 239.894 27.8021 240.515 26.6733 240.795V240.932C27.5445 241.083 28.3286 241.439 29.0256 242C29.7301 242.553 30.2907 243.246 30.7074 244.08C31.1316 244.905 31.3475 245.811 31.3551 246.795C31.3475 248.053 30.9915 249.174 30.2869 250.159C29.5824 251.144 28.6051 251.917 27.3551 252.477C26.1127 253.038 24.6847 253.318 23.071 253.318ZM23.071 250.443C24.0331 250.443 24.8665 250.284 25.571 249.966C26.2756 249.64 26.821 249.189 27.2074 248.614C27.5938 248.03 27.7907 247.348 27.7983 246.568C27.7907 245.758 27.5786 245.042 27.1619 244.42C26.7528 243.799 26.196 243.311 25.4915 242.955C24.7869 242.598 23.9801 242.42 23.071 242.42C22.1544 242.42 21.34 242.598 20.6278 242.955C19.9157 243.311 19.3551 243.799 18.946 244.42C18.5369 245.042 18.3362 245.758 18.3438 246.568C18.3362 247.348 18.5218 248.03 18.9006 248.614C19.2869 249.189 19.8362 249.64 20.5483 249.966C21.2604 250.284 22.1013 250.443 23.071 250.443ZM23.071 239.614C23.8438 239.614 24.5294 239.458 25.1278 239.148C25.7263 238.837 26.196 238.405 26.5369 237.852C26.8854 237.299 27.0634 236.652 27.071 235.909C27.0634 235.182 26.8892 234.545 26.5483 234C26.215 233.455 25.7491 233.034 25.1506 232.739C24.5521 232.436 23.8589 232.284 23.071 232.284C22.268 232.284 21.5634 232.436 20.9574 232.739C20.3589 233.034 19.893 233.455 19.5597 234C19.2263 234.545 19.0634 235.182 19.071 235.909C19.0634 236.652 19.2301 237.299 19.571 237.852C19.9119 238.405 20.3816 238.837 20.9801 239.148C21.5862 239.458 22.2831 239.614 23.071 239.614ZM15.5682 271.727V295H12.0455V275.25H11.9091L6.34091 278.886V275.523L12.1477 271.727H15.5682ZM29.9659 295.386C28.1705 295.379 26.6364 294.905 25.3636 293.966C24.0909 293.027 23.1174 291.659 22.4432 289.864C21.7689 288.068 21.4318 285.905 21.4318 283.375C21.4318 280.852 21.7689 278.697 22.4432 276.909C23.125 275.121 24.1023 273.758 25.375 272.818C26.6553 271.879 28.1856 271.409 29.9659 271.409C31.7462 271.409 33.2727 271.883 34.5455 272.83C35.8182 273.769 36.7917 275.133 37.4659 276.92C38.1477 278.701 38.4886 280.852 38.4886 283.375C38.4886 285.913 38.1515 288.08 37.4773 289.875C36.803 291.663 35.8295 293.03 34.5568 293.977C33.2841 294.917 31.7538 295.386 29.9659 295.386ZM29.9659 292.352C31.5417 292.352 32.7727 291.583 33.6591 290.045C34.553 288.508 35 286.284 35 283.375C35 281.443 34.7955 279.811 34.3864 278.477C33.9848 277.136 33.4053 276.121 32.6477 275.432C31.8977 274.735 31.0038 274.386 29.9659 274.386C28.3977 274.386 27.1667 275.159 26.2727 276.705C25.3788 278.25 24.928 280.473 24.9205 283.375C24.9205 285.314 25.1212 286.955 25.5227 288.295C25.9318 289.629 26.5114 290.64 27.2614 291.33C28.0114 292.011 28.9129 292.352 29.9659 292.352ZM15.5682 313.727V337H12.0455V317.25H11.9091L6.34091 320.886V317.523L12.1477 313.727H15.5682ZM21.8636 337V334.455L29.7386 326.295C30.5795 325.409 31.2727 324.633 31.8182 323.966C32.3712 323.292 32.7841 322.652 33.0568 322.045C33.3295 321.439 33.4659 320.795 33.4659 320.114C33.4659 319.341 33.2841 318.674 32.9205 318.114C32.5568 317.545 32.0606 317.11 31.4318 316.807C30.803 316.496 30.0947 316.341 29.3068 316.341C28.4735 316.341 27.7462 316.511 27.125 316.852C26.5038 317.193 26.0265 317.674 25.6932 318.295C25.3598 318.917 25.1932 319.644 25.1932 320.477H21.8409C21.8409 319.061 22.1667 317.822 22.8182 316.761C23.4697 315.701 24.3636 314.879 25.5 314.295C26.6364 313.705 27.928 313.409 29.375 313.409C30.8371 313.409 32.125 313.701 33.2386 314.284C34.3598 314.86 35.2348 315.648 35.8636 316.648C36.4924 317.64 36.8068 318.761 36.8068 320.011C36.8068 320.875 36.6439 321.72 36.3182 322.545C36 323.371 35.4432 324.292 34.6477 325.307C33.8523 326.314 32.7462 327.538 31.3295 328.977L26.7045 333.818V333.989H37.1818V337H21.8636ZM15.5682 355.727V379H12.0455V359.25H11.9091L6.34091 362.886V359.523L12.1477 355.727H15.5682ZM21.375 374.455V371.614L31.4318 355.727H33.6705V359.909H32.25L25.0568 371.295V371.477H38.8409V374.455H21.375ZM32.4091 379V373.591L32.4318 372.295V355.727H35.7614V379H32.4091ZM15.5682 397.727V421H12.0455V401.25H11.9091L6.34091 404.886V401.523L12.1477 397.727H15.5682ZM29.9886 421.318C28.9508 421.303 27.928 421.114 26.9205 420.75C25.9205 420.386 25.0114 419.78 24.1932 418.932C23.375 418.083 22.7197 416.943 22.2273 415.511C21.7424 414.08 21.5 412.292 21.5 410.148C21.5 408.117 21.7008 406.314 22.1023 404.739C22.5114 403.163 23.0985 401.833 23.8636 400.75C24.6288 399.659 25.553 398.83 26.6364 398.261C27.7197 397.693 28.9356 397.409 30.2841 397.409C31.6705 397.409 32.9015 397.682 33.9773 398.227C35.053 398.773 35.9242 399.527 36.5909 400.489C37.2652 401.451 37.6932 402.545 37.875 403.773H34.4091C34.1742 402.803 33.7083 402.011 33.0114 401.398C32.3144 400.784 31.4053 400.477 30.2841 400.477C28.5795 400.477 27.25 401.22 26.2955 402.705C25.3485 404.189 24.8712 406.254 24.8636 408.898H25.0341C25.4356 408.239 25.928 407.678 26.5114 407.216C27.1023 406.746 27.7614 406.386 28.4886 406.136C29.2235 405.879 29.9962 405.75 30.8068 405.75C32.1553 405.75 33.375 406.08 34.4659 406.739C35.5644 407.39 36.4394 408.292 37.0909 409.443C37.7424 410.595 38.0682 411.913 38.0682 413.398C38.0682 414.883 37.7311 416.227 37.0568 417.432C36.3902 418.636 35.4508 419.591 34.2386 420.295C33.0265 420.992 31.6098 421.333 29.9886 421.318ZM29.9773 418.364C30.8712 418.364 31.6705 418.144 32.375 417.705C33.0795 417.265 33.6364 416.674 34.0455 415.932C34.4545 415.189 34.6591 414.36 34.6591 413.443C34.6591 412.549 34.4583 411.735 34.0568 411C33.6629 410.265 33.1174 409.682 32.4205 409.25C31.7311 408.818 30.9432 408.602 30.0568 408.602C29.3826 408.602 28.7576 408.731 28.1818 408.989C27.6136 409.246 27.1136 409.602 26.6818 410.057C26.25 410.511 25.9091 411.034 25.6591 411.625C25.4167 412.208 25.2955 412.826 25.2955 413.477C25.2955 414.348 25.4962 415.155 25.8977 415.898C26.3068 416.64 26.8636 417.239 27.5682 417.693C28.2803 418.14 29.0833 418.364 29.9773 418.364ZM15.5682 439.727V463H12.0455V443.25H11.9091L6.34091 446.886V443.523L12.1477 439.727H15.5682ZM29.7273 463.318C28.0985 463.318 26.6591 463.038 25.4091 462.477C24.1667 461.917 23.1932 461.144 22.4886 460.159C21.7841 459.174 21.4356 458.053 21.4432 456.795C21.4356 455.811 21.6364 454.905 22.0455 454.08C22.4621 453.246 23.0265 452.553 23.7386 452C24.4508 451.439 25.2462 451.083 26.125 450.932V450.795C24.9659 450.515 24.0379 449.894 23.3409 448.932C22.6439 447.97 22.2992 446.864 22.3068 445.614C22.2992 444.424 22.6136 443.364 23.25 442.432C23.8939 441.492 24.7765 440.754 25.8977 440.216C27.0189 439.678 28.2955 439.409 29.7273 439.409C31.1439 439.409 32.4091 439.682 33.5227 440.227C34.6439 440.765 35.5265 441.504 36.1705 442.443C36.8144 443.375 37.1402 444.432 37.1477 445.614C37.1402 446.864 36.7841 447.97 36.0795 448.932C35.375 449.894 34.4583 450.515 33.3295 450.795V450.932C34.2008 451.083 34.9848 451.439 35.6818 452C36.3864 452.553 36.947 453.246 37.3636 454.08C37.7879 454.905 38.0038 455.811 38.0114 456.795C38.0038 458.053 37.6477 459.174 36.9432 460.159C36.2386 461.144 35.2614 461.917 34.0114 462.477C32.7689 463.038 31.3409 463.318 29.7273 463.318ZM29.7273 460.443C30.6894 460.443 31.5227 460.284 32.2273 459.966C32.9318 459.64 33.4773 459.189 33.8636 458.614C34.25 458.03 34.447 457.348 34.4545 456.568C34.447 455.758 34.2348 455.042 33.8182 454.42C33.4091 453.799 32.8523 453.311 32.1477 452.955C31.4432 452.598 30.6364 452.42 29.7273 452.42C28.8106 452.42 27.9962 452.598 27.2841 452.955C26.572 453.311 26.0114 453.799 25.6023 454.42C25.1932 455.042 24.9924 455.758 25 456.568C24.9924 457.348 25.178 458.03 25.5568 458.614C25.9432 459.189 26.4924 459.64 27.2045 459.966C27.9167 460.284 28.7576 460.443 29.7273 460.443ZM29.7273 449.614C30.5 449.614 31.1856 449.458 31.7841 449.148C32.3826 448.837 32.8523 448.405 33.1932 447.852C33.5417 447.299 33.7197 446.652 33.7273 445.909C33.7197 445.182 33.5455 444.545 33.2045 444C32.8712 443.455 32.4053 443.034 31.8068 442.739C31.2083 442.436 30.5152 442.284 29.7273 442.284C28.9242 442.284 28.2197 442.436 27.6136 442.739C27.0152 443.034 26.5492 443.455 26.2159 444C25.8826 444.545 25.7197 445.182 25.7273 445.909C25.7197 446.652 25.8864 447.299 26.2273 447.852C26.5682 448.405 27.0379 448.837 27.6364 449.148C28.2424 449.458 28.9394 449.614 29.7273 449.614ZM6.73864 505V502.455L14.6136 494.295C15.4545 493.409 16.1477 492.633 16.6932 491.966C17.2462 491.292 17.6591 490.652 17.9318 490.045C18.2045 489.439 18.3409 488.795 18.3409 488.114C18.3409 487.341 18.1591 486.674 17.7955 486.114C17.4318 485.545 16.9356 485.11 16.3068 484.807C15.678 484.496 14.9697 484.341 14.1818 484.341C13.3485 484.341 12.6212 484.511 12 484.852C11.3788 485.193 10.9015 485.674 10.5682 486.295C10.2348 486.917 10.0682 487.644 10.0682 488.477H6.71591C6.71591 487.061 7.04167 485.822 7.69318 484.761C8.3447 483.701 9.23864 482.879 10.375 482.295C11.5114 481.705 12.803 481.409 14.25 481.409C15.7121 481.409 17 481.701 18.1136 482.284C19.2348 482.86 20.1098 483.648 20.7386 484.648C21.3674 485.64 21.6818 486.761 21.6818 488.011C21.6818 488.875 21.5189 489.72 21.1932 490.545C20.875 491.371 20.3182 492.292 19.5227 493.307C18.7273 494.314 17.6212 495.538 16.2045 496.977L11.5795 501.818V501.989H22.0568V505H6.73864ZM34.4659 505.386C32.6705 505.379 31.1364 504.905 29.8636 503.966C28.5909 503.027 27.6174 501.659 26.9432 499.864C26.2689 498.068 25.9318 495.905 25.9318 493.375C25.9318 490.852 26.2689 488.697 26.9432 486.909C27.625 485.121 28.6023 483.758 29.875 482.818C31.1553 481.879 32.6856 481.409 34.4659 481.409C36.2462 481.409 37.7727 481.883 39.0455 482.83C40.3182 483.769 41.2917 485.133 41.9659 486.92C42.6477 488.701 42.9886 490.852 42.9886 493.375C42.9886 495.913 42.6515 498.08 41.9773 499.875C41.303 501.663 40.3295 503.03 39.0568 503.977C37.7841 504.917 36.2538 505.386 34.4659 505.386ZM34.4659 502.352C36.0417 502.352 37.2727 501.583 38.1591 500.045C39.053 498.508 39.5 496.284 39.5 493.375C39.5 491.443 39.2955 489.811 38.8864 488.477C38.4848 487.136 37.9053 486.121 37.1477 485.432C36.3977 484.735 35.5038 484.386 34.4659 484.386C32.8977 484.386 31.6667 485.159 30.7727 486.705C29.8788 488.25 29.428 490.473 29.4205 493.375C29.4205 495.314 29.6212 496.955 30.0227 498.295C30.4318 499.629 31.0114 500.64 31.7614 501.33C32.5114 502.011 33.4129 502.352 34.4659 502.352ZM6.73864 547V544.455L14.6136 536.295C15.4545 535.409 16.1477 534.633 16.6932 533.966C17.2462 533.292 17.6591 532.652 17.9318 532.045C18.2045 531.439 18.3409 530.795 18.3409 530.114C18.3409 529.341 18.1591 528.674 17.7955 528.114C17.4318 527.545 16.9356 527.11 16.3068 526.807C15.678 526.496 14.9697 526.341 14.1818 526.341C13.3485 526.341 12.6212 526.511 12 526.852C11.3788 527.193 10.9015 527.674 10.5682 528.295C10.2348 528.917 10.0682 529.644 10.0682 530.477H6.71591C6.71591 529.061 7.04167 527.822 7.69318 526.761C8.3447 525.701 9.23864 524.879 10.375 524.295C11.5114 523.705 12.803 523.409 14.25 523.409C15.7121 523.409 17 523.701 18.1136 524.284C19.2348 524.86 20.1098 525.648 20.7386 526.648C21.3674 527.64 21.6818 528.761 21.6818 530.011C21.6818 530.875 21.5189 531.72 21.1932 532.545C20.875 533.371 20.3182 534.292 19.5227 535.307C18.7273 536.314 17.6212 537.538 16.2045 538.977L11.5795 543.818V543.989H22.0568V547H6.73864ZM35.1932 523.727V547H31.6705V527.25H31.5341L25.9659 530.886V527.523L31.7727 523.727H35.1932Z" fill="#073141"/>
</g>
<path d="M49.9318 133.545C49.4242 133.545 48.9621 133.504 48.5455 133.42C48.1288 133.345 47.8182 133.261 47.6136 133.17L48.4318 130.386C49.053 130.553 49.6061 130.625 50.0909 130.602C50.5758 130.58 51.0038 130.398 51.375 130.057C51.7538 129.716 52.0871 129.159 52.375 128.386L52.7955 127.227L46.4091 109.545H50.0455L54.4659 123.091H54.6477L59.0682 109.545H62.7159L55.5227 129.33C55.1894 130.239 54.7652 131.008 54.25 131.636C53.7348 132.273 53.1212 132.75 52.4091 133.068C51.697 133.386 50.8712 133.545 49.9318 133.545ZM65.9091 127V109.545H69.1932V112.318H69.375C69.6932 111.379 70.2538 110.64 71.0568 110.102C71.8674 109.557 72.7841 109.284 73.8068 109.284C74.0189 109.284 74.2689 109.292 74.5568 109.307C74.8523 109.322 75.0833 109.341 75.25 109.364V112.614C75.1136 112.576 74.8712 112.534 74.5227 112.489C74.1742 112.436 73.8258 112.409 73.4773 112.409C72.6742 112.409 71.9583 112.58 71.3295 112.92C70.7083 113.254 70.2159 113.72 69.8523 114.318C69.4886 114.909 69.3068 115.583 69.3068 116.341V127H65.9091ZM91.2699 113.807L88.1903 114.352C88.0616 113.958 87.857 113.583 87.5767 113.227C87.304 112.871 86.9328 112.58 86.4631 112.352C85.9934 112.125 85.4063 112.011 84.7017 112.011C83.7396 112.011 82.9366 112.227 82.2926 112.659C81.6487 113.083 81.3267 113.633 81.3267 114.307C81.3267 114.89 81.5426 115.36 81.9744 115.716C82.4063 116.072 83.1032 116.364 84.0653 116.591L86.8381 117.227C88.4441 117.598 89.6411 118.17 90.429 118.943C91.2169 119.716 91.6108 120.72 91.6108 121.955C91.6108 123 91.3078 123.932 90.7017 124.75C90.1032 125.561 89.2661 126.197 88.1903 126.659C87.1222 127.121 85.8835 127.352 84.4744 127.352C82.5199 127.352 80.9252 126.936 79.6903 126.102C78.4555 125.261 77.6979 124.068 77.4176 122.523L80.7017 122.023C80.9063 122.879 81.3267 123.527 81.9631 123.966C82.5994 124.398 83.429 124.614 84.4517 124.614C85.5653 124.614 86.4555 124.383 87.1222 123.92C87.7888 123.451 88.1222 122.879 88.1222 122.205C88.1222 121.659 87.9176 121.201 87.5085 120.83C87.107 120.458 86.4896 120.178 85.6562 119.989L82.7017 119.341C81.0729 118.97 79.8684 118.379 79.0881 117.568C78.3153 116.758 77.929 115.731 77.929 114.489C77.929 113.458 78.2169 112.557 78.7926 111.784C79.3684 111.011 80.1638 110.409 81.179 109.977C82.1941 109.538 83.357 109.318 84.6676 109.318C86.554 109.318 88.0388 109.727 89.1222 110.545C90.2055 111.356 90.9214 112.443 91.2699 113.807Z" fill="#073141"/>
<defs>
<clipPath id="clip0_2006_404">
<rect width="41" height="36" fill="white" transform="translate(4.5 94)"/>
</clipPath>
</defs>
</svg>
