<svg width="18" height="18" viewBox="0 0 18 18" fill="none" xmlns="http://www.w3.org/2000/svg">
<g clip-path="url(#clip0_2015_14)">
<path fill-rule="evenodd" clip-rule="evenodd" d="M4.98533 9.2156C4.98533 7.00285 6.78516 5.20227 9.0003 5.20227C11.2131 5.20227 13.0129 7.00281 13.0129 9.2156C13.0129 11.4289 11.2131 13.2287 9.0003 13.2287C6.78512 13.2287 4.98533 11.4289 4.98533 9.2156ZM0.103837 8.83272C-0.0346122 9.08314 -0.0346122 9.34806 0.103837 9.59872C1.90128 12.8265 5.30994 14.8316 9.0003 14.8316C12.6882 14.8316 16.0969 12.8265 17.8944 9.59872C18.0352 9.34806 18.0352 9.08314 17.8944 8.83272C16.0969 5.60498 12.6883 3.6001 9.0003 3.6001C5.30994 3.6001 1.90128 5.60498 0.103837 8.83272ZM9.0003 6.51753C7.5108 6.51753 6.30055 7.72775 6.30055 9.2156C6.30055 10.7034 7.51076 11.9137 9.0003 11.9137C10.4874 11.9137 11.6976 10.7035 11.6976 9.2156C11.6976 7.72775 10.4874 6.51753 9.0003 6.51753Z" fill="#68818B"/>
</g>
<defs>
<clipPath id="clip0_2015_14">
<rect width="18" height="18" fill="white"/>
</clipPath>
</defs>
</svg>
