<svg width="18" height="18" viewBox="0 0 18 18" fill="none" xmlns="http://www.w3.org/2000/svg">
<g clip-path="url(#clip0_2015_10)">
<path d="M9 16.7839C8.90895 16.7839 8.81793 16.7604 8.73637 16.7133C8.64777 16.6622 6.54294 15.4401 4.4079 13.5987C3.14249 12.5073 2.13238 11.4249 1.40571 10.3814C0.465348 9.03121 -0.00753804 7.73247 9.08466e-05 6.52124C0.00902052 5.11182 0.513828 3.78637 1.42163 2.78899C2.34476 1.7748 3.5767 1.21631 4.8906 1.21631C6.57447 1.21631 8.114 2.15955 9.00004 3.65376C9.88608 2.15958 11.4256 1.21631 13.1095 1.21631C14.3508 1.21631 15.5351 1.72024 16.4444 2.63528C17.4422 3.63945 18.0092 5.05828 17.9999 6.52792C17.9922 7.73704 17.5105 9.03381 16.5681 10.3822C15.8391 11.4251 14.8304 12.507 13.57 13.5981C11.4428 15.4393 9.35304 16.6614 9.26511 16.7125C9.18317 16.7601 9.09155 16.7839 9 16.7839Z" fill="#68818B"/>
</g>
<defs>
<clipPath id="clip0_2015_10">
<rect width="18" height="18" fill="white"/>
</clipPath>
</defs>
</svg>
