<svg width="148" height="130" viewBox="0 0 148 130" fill="none" xmlns="http://www.w3.org/2000/svg">
<g clip-path="url(#clip0_2006_394)">
<path d="M96.1542 45.8927V42.0207C96.1542 41.6154 95.8257 41.2868 95.4203 41.2868C95.0149 41.2868 94.6864 41.6154 94.6864 42.0207V45.8017H93.7437V35.5554C94.0566 35.5988 94.3734 35.5988 94.6864 35.5554V39.0856C94.6864 39.4909 95.0149 39.8195 95.4203 39.8195C95.8257 39.8195 96.1542 39.4909 96.1542 39.0856V34.9842C97.0492 34.3664 97.6373 33.3341 97.6373 32.1667C97.6373 30.2799 96.1021 28.7449 94.2151 28.7449C92.3281 28.7449 90.793 30.2799 90.793 32.1667C90.793 33.3341 91.381 34.3664 92.2761 34.9842V36.3504C92.0998 36.718 91.5071 37.8494 90.409 38.9621C88.6631 40.7312 86.5148 41.6283 84.0241 41.6283C81.5334 41.6283 79.3852 40.7312 77.6393 38.9621C76.5403 37.8485 75.9476 36.7164 75.7722 36.3504V34.9842C76.6672 34.3664 77.2553 33.3341 77.2553 32.1667C77.2553 30.2799 75.7201 28.7449 73.8331 28.7449C71.9461 28.7449 70.4109 30.2799 70.4109 32.1667C70.4109 33.3341 70.999 34.3664 71.894 34.9842V36.3504C71.7178 36.718 71.1251 37.8494 70.027 38.9621C68.2811 40.7312 66.1328 41.6283 63.6421 41.6283C61.1514 41.6283 59.0031 40.7312 57.2572 38.9621C56.1583 37.8485 55.5655 36.7164 55.3901 36.3504V34.9842C56.2852 34.3664 56.8732 33.3341 56.8732 32.1667C56.8732 30.2799 55.3381 28.7449 53.4511 28.7449C51.5641 28.7449 50.0289 30.2799 50.0289 32.1667C50.0289 33.3341 50.6169 34.3663 51.5119 34.9841V45.8927C49.9789 46.2499 48.833 47.6263 48.833 49.2662C48.833 49.6715 49.1615 50 49.5669 50H57.335C57.7403 50 58.0688 49.6715 58.0688 49.2662C58.0688 47.6262 56.9229 46.2498 55.39 45.8927V39.0651C55.6191 39.3526 55.8781 39.6506 56.1692 39.9488C58.1791 42.0077 60.7632 43.0959 63.642 43.0959C66.5209 43.0959 69.1049 42.0077 71.1148 39.9488C71.406 39.6506 71.6648 39.3526 71.8939 39.0651V45.8927C70.3609 46.2498 69.215 47.6262 69.215 49.2662C69.215 49.6714 69.5436 50 69.9489 50H77.7171C78.1225 50 78.451 49.6715 78.451 49.2662C78.451 47.6262 77.3051 46.2498 75.7722 45.8927V39.0651C76.0013 39.3526 76.2603 39.6506 76.5513 39.9488C78.5611 42.0077 81.1452 43.0959 84.0241 43.0959C86.9029 43.0959 89.487 42.0077 91.4969 39.9488C91.788 39.6506 92.0469 39.3526 92.2761 39.0651V45.8927C90.7432 46.2498 89.5973 47.6262 89.5973 49.2662C89.5973 49.6714 89.9258 50 90.3312 50H98.0992C98.5046 50 98.8331 49.6715 98.8331 49.2662C98.833 47.6262 97.6871 46.2498 96.1542 45.8927ZM94.215 30.2126C95.2927 30.2126 96.1695 31.0893 96.1695 32.1667C96.1695 33.2443 95.2928 34.1209 94.215 34.1209C93.1374 34.1209 92.2605 33.2443 92.2605 32.1667C92.2606 31.0893 93.1374 30.2126 94.215 30.2126ZM53.451 30.2126C54.5286 30.2126 55.4055 31.0893 55.4055 32.1667C55.4055 33.2443 54.5286 34.1209 53.451 34.1209C52.3733 34.1209 51.4965 33.2443 51.4965 32.1667C51.4965 31.0893 52.3732 30.2126 53.451 30.2126ZM53.451 35.5887C53.6109 35.5887 53.7682 35.5768 53.9224 35.5555V45.8018H52.9795V35.5554C53.1337 35.5768 53.2909 35.5887 53.451 35.5887ZM56.4614 48.5324H50.4404C50.7335 47.7935 51.4556 47.2696 52.2978 47.2696H54.6041C55.4462 47.2695 56.1684 47.7934 56.4614 48.5324ZM73.833 30.2126C74.9106 30.2126 75.7875 31.0893 75.7875 32.1667C75.7875 33.2443 74.9106 34.1209 73.833 34.1209C72.7554 34.1209 71.8785 33.2443 71.8785 32.1667C71.8785 31.0893 72.7554 30.2126 73.833 30.2126ZM73.833 35.5887C73.993 35.5887 74.1502 35.5768 74.3044 35.5555V45.8018H73.3616V35.5554C73.5158 35.5768 73.673 35.5887 73.833 35.5887ZM76.8436 48.5324H70.8225C71.1156 47.7935 71.8377 47.2696 72.6799 47.2696H74.9861C75.8282 47.2695 76.5504 47.7934 76.8436 48.5324ZM91.2046 48.5324C91.4977 47.7935 92.2197 47.2696 93.0619 47.2696H95.3683C96.2104 47.2696 96.9325 47.7935 97.2256 48.5324H91.2046Z" fill="#073141"/>
<path d="M98.8299 0.67168C98.7982 0.298828 98.4738 0 98.0991 0H49.5669C49.1674 0 48.833 0.335156 48.833 0.733887V25.8345C48.833 26.2332 49.1674 26.5684 49.5669 26.5684H98.0992C98.4987 26.5684 98.8331 26.2332 98.8331 25.8345V0.733887C98.833 0.712891 98.8316 0.692187 98.8299 0.67168ZM95.7394 22.4372V4.13115L97.3653 2.50537V24.063L95.7394 22.4372ZM81.4953 22.0073L77.6723 18.415L83.5053 12.9342C84.2034 12.278 85.2972 12.278 85.9955 12.9342L94.2717 20.7106V22.0072L81.4953 22.0073ZM96.3272 1.46768L94.7015 3.09326H86.9974C86.592 3.09326 86.2635 3.42187 86.2635 3.82715C86.2635 4.23242 86.592 4.56104 86.9974 4.56104H94.2716V18.6968L87.0005 11.8646C85.7388 10.679 83.7621 10.6789 82.5002 11.8646L76.6006 17.408L69.1827 10.438C67.921 9.25244 65.9442 9.25244 64.6823 10.438L59.134 15.6514C58.8387 15.9289 58.8242 16.3934 59.1017 16.6887C59.3794 16.9842 59.8438 16.9984 60.139 16.721L65.6873 11.5076C66.3856 10.8516 67.4793 10.8516 68.1776 11.5076L79.3519 22.0073H54.5132L57.9995 18.7313C58.2949 18.4538 58.3093 17.9894 58.0318 17.694C57.7543 17.3986 57.2897 17.3844 56.9945 17.6617L53.3943 21.0445V4.56104H84.0619C84.4673 4.56104 84.7958 4.23242 84.7958 3.82715C84.7958 3.42187 84.4673 3.09326 84.0619 3.09326H52.9645L51.3388 1.46768H96.3272ZM50.3007 2.50537L51.9267 4.13115V22.4373L50.3007 24.0631V2.50537ZM51.3388 25.1006L52.9646 23.475H94.7016L96.3273 25.1006H51.3388Z" fill="#073141"/>
<path d="M76.624 6.17407C74.8745 6.17407 73.4512 7.59731 73.4512 9.34663C73.4512 11.0959 74.8745 12.5192 76.624 12.5192C78.3735 12.5192 79.7968 11.096 79.7968 9.34663C79.7968 7.59722 78.3735 6.17407 76.624 6.17407ZM76.624 11.0514C75.6838 11.0514 74.9188 10.2867 74.9188 9.34663C74.9188 8.40659 75.6838 7.64175 76.624 7.64175C77.5642 7.64175 78.3291 8.40659 78.3291 9.34663C78.3291 10.2867 77.5642 11.0514 76.624 11.0514Z" fill="#073141"/>
</g>
<path d="M13.4857 72.4545C13.4857 73.8651 13.2215 75.0732 12.6931 76.0788C12.1689 77.0803 11.453 77.8473 10.5454 78.38C9.64196 78.9126 8.6171 79.179 7.47079 79.179C6.32449 79.179 5.2975 78.9126 4.38983 78.38C3.48642 77.843 2.77051 77.0739 2.2421 76.0724C1.71795 75.0668 1.45588 73.8608 1.45588 72.4545C1.45588 71.044 1.71795 69.8381 2.2421 68.8366C2.77051 67.831 3.48642 67.0618 4.38983 66.5291C5.2975 65.9964 6.32449 65.7301 7.47079 65.7301C8.6171 65.7301 9.64196 65.9964 10.5454 66.5291C11.453 67.0618 12.1689 67.831 12.6931 68.8366C13.2215 69.8381 13.4857 71.044 13.4857 72.4545ZM11.1015 72.4545C11.1015 71.4616 10.9459 70.6243 10.6349 69.9425C10.328 69.2564 9.9019 68.7386 9.35645 68.3892C8.81099 68.0355 8.18244 67.8587 7.47079 67.8587C6.75914 67.8587 6.13059 68.0355 5.58514 68.3892C5.03968 68.7386 4.61142 69.2564 4.30034 69.9425C3.99352 70.6243 3.84011 71.4616 3.84011 72.4545C3.84011 73.4474 3.99352 74.2869 4.30034 74.973C4.61142 75.6548 5.03968 76.1726 5.58514 76.5263C6.13059 76.8757 6.75914 77.0504 7.47079 77.0504C8.18244 77.0504 8.81099 76.8757 9.35645 76.5263C9.9019 76.1726 10.328 75.6548 10.6349 74.973C10.9459 74.2869 11.1015 73.4474 11.1015 72.4545ZM17.9394 73.2472V79H15.6254V69.1818H17.8371V70.8501H17.9521C18.178 70.3004 18.5381 69.8636 19.0324 69.5398C19.531 69.2159 20.1468 69.054 20.8797 69.054C21.5573 69.054 22.1475 69.1989 22.6503 69.4886C23.1574 69.7784 23.5494 70.1982 23.8264 70.7479C24.1077 71.2976 24.2462 71.9645 24.2419 72.7486V79H21.928V73.1065C21.928 72.4503 21.7575 71.9368 21.4166 71.5661C21.08 71.1953 20.6134 71.0099 20.0168 71.0099C19.6119 71.0099 19.2519 71.0994 18.9365 71.2784C18.6254 71.4531 18.3804 71.7067 18.2014 72.0391C18.0267 72.3714 17.9394 72.7741 17.9394 73.2472ZM28.9081 65.9091V79H26.5942V65.9091H28.9081ZM31.2876 79V69.1818H33.6015V79H31.2876ZM32.4509 67.7884C32.0844 67.7884 31.7691 67.6669 31.5049 67.424C31.2407 67.1768 31.1086 66.8807 31.1086 66.5355C31.1086 66.1861 31.2407 65.8899 31.5049 65.647C31.7691 65.3999 32.0844 65.2763 32.4509 65.2763C32.8216 65.2763 33.137 65.3999 33.3969 65.647C33.6611 65.8899 33.7932 66.1861 33.7932 66.5355C33.7932 66.8807 33.6611 67.1768 33.3969 67.424C33.137 67.6669 32.8216 67.7884 32.4509 67.7884ZM38.2948 73.2472V79H35.9809V69.1818H38.1926V70.8501H38.3076C38.5335 70.3004 38.8936 69.8636 39.3879 69.5398C39.8865 69.2159 40.5022 69.054 41.2352 69.054C41.9127 69.054 42.5029 69.1989 43.0058 69.4886C43.5129 69.7784 43.9049 70.1982 44.1819 70.7479C44.4632 71.2976 44.6017 71.9645 44.5974 72.7486V79H42.2835V73.1065C42.2835 72.4503 42.113 71.9368 41.7721 71.5661C41.4355 71.1953 40.9688 71.0099 40.3722 71.0099C39.9674 71.0099 39.6073 71.0994 39.292 71.2784C38.9809 71.4531 38.7359 71.7067 38.5569 72.0391C38.3822 72.3714 38.2948 72.7741 38.2948 73.2472ZM51.2963 79.1918C50.3119 79.1918 49.4617 78.9872 48.7458 78.5781C48.0342 78.1648 47.4866 77.581 47.1031 76.8267C46.7195 76.0682 46.5278 75.1754 46.5278 74.1484C46.5278 73.1385 46.7195 72.2521 47.1031 71.4893C47.4909 70.7223 48.032 70.1257 48.7267 69.6996C49.4213 69.2692 50.2373 69.054 51.1748 69.054C51.7799 69.054 52.3509 69.152 52.8879 69.348C53.4291 69.5398 53.9063 69.8381 54.3197 70.2429C54.7373 70.6477 55.0654 71.1634 55.3041 71.7898C55.5427 72.4119 55.662 73.1534 55.662 74.0142V74.7237H47.6144V73.1641H53.444C53.4397 72.7209 53.3438 72.3267 53.1563 71.9815C52.9688 71.6321 52.7068 71.3572 52.3701 71.157C52.0377 70.9567 51.6499 70.8565 51.2068 70.8565C50.7338 70.8565 50.3183 70.9716 49.9603 71.2017C49.6024 71.4276 49.3232 71.7259 49.123 72.0966C48.9269 72.4631 48.8268 72.8658 48.8225 73.3047V74.6662C48.8225 75.2372 48.9269 75.7273 49.1357 76.1364C49.3445 76.5412 49.6365 76.8523 50.0115 77.0696C50.3865 77.2827 50.8254 77.3892 51.3282 77.3892C51.6649 77.3892 51.9695 77.3423 52.2423 77.2486C52.515 77.1506 52.7515 77.0078 52.9518 76.8203C53.1521 76.6328 53.3034 76.4006 53.4056 76.1236L55.5661 76.3665C55.4298 76.9375 55.1698 77.4361 54.7863 77.8622C54.407 78.2841 53.9213 78.6122 53.3289 78.8466C52.7366 79.0767 52.059 79.1918 51.2963 79.1918ZM62.1867 79V65.9091H70.7009V67.897H64.5582V71.451H70.2599V73.4389H64.5582V77.0121H70.752V79H62.1867ZM74.9101 69.1818L76.8916 72.8061L78.9051 69.1818H81.3532L78.3937 74.0909L81.4044 79H78.969L76.8916 75.4652L74.8334 79H72.3788L75.3703 74.0909L72.4555 69.1818H74.9101ZM85.4569 73.2472V79H83.143V65.9091H85.4058V70.8501H85.5209C85.751 70.2962 86.1068 69.8594 86.5883 69.5398C87.0741 69.2159 87.692 69.054 88.442 69.054C89.1238 69.054 89.7183 69.1967 90.2254 69.4822C90.7325 69.7678 91.1246 70.1854 91.4015 70.7351C91.6828 71.2848 91.8234 71.956 91.8234 72.7486V79H89.5095V73.1065C89.5095 72.446 89.339 71.9325 88.9981 71.5661C88.6615 71.1953 88.1885 71.0099 87.5791 71.0099C87.17 71.0099 86.8035 71.0994 86.4797 71.2784C86.1601 71.4531 85.9086 71.7067 85.7254 72.0391C85.5464 72.3714 85.4569 72.7741 85.4569 73.2472ZM94.1821 79V69.1818H96.496V79H94.1821ZM95.3454 67.7884C94.979 67.7884 94.6636 67.6669 94.3994 67.424C94.1352 67.1768 94.0031 66.8807 94.0031 66.5355C94.0031 66.1861 94.1352 65.8899 94.3994 65.647C94.6636 65.3999 94.979 65.2763 95.3454 65.2763C95.7162 65.2763 96.0315 65.3999 96.2915 65.647C96.5557 65.8899 96.6878 66.1861 96.6878 66.5355C96.6878 66.8807 96.5557 67.1768 96.2915 67.424C96.0315 67.6669 95.7162 67.7884 95.3454 67.7884ZM98.9777 79V65.9091H101.292V70.8054H101.388C101.507 70.5668 101.675 70.3132 101.892 70.0447C102.11 69.772 102.404 69.5398 102.775 69.348C103.145 69.152 103.618 69.054 104.194 69.054C104.952 69.054 105.636 69.2479 106.245 69.6357C106.859 70.0192 107.345 70.5881 107.703 71.3423C108.065 72.0923 108.246 73.0128 108.246 74.1037C108.246 75.1818 108.069 76.098 107.716 76.8523C107.362 77.6065 106.88 78.1818 106.271 78.5781C105.662 78.9744 104.971 79.1726 104.2 79.1726C103.638 79.1726 103.171 79.0788 102.8 78.8913C102.429 78.7038 102.131 78.478 101.905 78.2138C101.684 77.9453 101.511 77.6918 101.388 77.4531H101.253V79H98.9777ZM101.247 74.0909C101.247 74.7259 101.336 75.282 101.515 75.7592C101.699 76.2365 101.961 76.6094 102.302 76.8778C102.647 77.142 103.064 77.2741 103.554 77.2741C104.066 77.2741 104.494 77.1378 104.839 76.8651C105.184 76.5881 105.444 76.2109 105.619 75.7337C105.798 75.2521 105.888 74.7045 105.888 74.0909C105.888 73.4815 105.8 72.9403 105.625 72.4673C105.451 71.9943 105.191 71.6236 104.846 71.3551C104.5 71.0866 104.07 70.9524 103.554 70.9524C103.06 70.9524 102.64 71.0824 102.295 71.3423C101.95 71.6023 101.688 71.9666 101.509 72.4354C101.334 72.9041 101.247 73.456 101.247 74.0909ZM110.213 79V69.1818H112.527V79H110.213ZM111.377 67.7884C111.01 67.7884 110.695 67.6669 110.431 67.424C110.166 67.1768 110.034 66.8807 110.034 66.5355C110.034 66.1861 110.166 65.8899 110.431 65.647C110.695 65.3999 111.01 65.2763 111.377 65.2763C111.747 65.2763 112.063 65.3999 112.323 65.647C112.587 65.8899 112.719 66.1861 112.719 66.5355C112.719 66.8807 112.587 67.1768 112.323 67.424C112.063 67.6669 111.747 67.7884 111.377 67.7884ZM119.809 69.1818V70.9716H114.165V69.1818H119.809ZM115.559 66.8295H117.873V76.0469C117.873 76.358 117.919 76.5966 118.013 76.7628C118.111 76.9247 118.239 77.0355 118.397 77.0952C118.554 77.1548 118.729 77.1847 118.921 77.1847C119.066 77.1847 119.198 77.174 119.317 77.1527C119.441 77.1314 119.535 77.1122 119.598 77.0952L119.988 78.9041C119.865 78.9467 119.688 78.9936 119.458 79.0447C119.232 79.0959 118.955 79.1257 118.627 79.1342C118.047 79.1513 117.525 79.0639 117.061 78.8722C116.596 78.6761 116.228 78.3736 115.955 77.9645C115.687 77.5554 115.554 77.044 115.559 76.4304V66.8295ZM121.745 79V69.1818H124.059V79H121.745ZM122.908 67.7884C122.541 67.7884 122.226 67.6669 121.962 67.424C121.698 67.1768 121.566 66.8807 121.566 66.5355C121.566 66.1861 121.698 65.8899 121.962 65.647C122.226 65.3999 122.541 65.2763 122.908 65.2763C123.279 65.2763 123.594 65.3999 123.854 65.647C124.118 65.8899 124.25 66.1861 124.25 66.5355C124.25 66.8807 124.118 67.1768 123.854 67.424C123.594 67.6669 123.279 67.7884 122.908 67.7884ZM130.721 79.1918C129.762 79.1918 128.931 78.9808 128.228 78.5589C127.525 78.1371 126.979 77.5469 126.591 76.7884C126.208 76.0298 126.016 75.1435 126.016 74.1293C126.016 73.1151 126.208 72.2266 126.591 71.4638C126.979 70.701 127.525 70.1087 128.228 69.6868C128.931 69.2649 129.762 69.054 130.721 69.054C131.679 69.054 132.51 69.2649 133.214 69.6868C133.917 70.1087 134.46 70.701 134.843 71.4638C135.231 72.2266 135.425 73.1151 135.425 74.1293C135.425 75.1435 135.231 76.0298 134.843 76.7884C134.46 77.5469 133.917 78.1371 133.214 78.5589C132.51 78.9808 131.679 79.1918 130.721 79.1918ZM130.733 77.3381C131.253 77.3381 131.688 77.1953 132.037 76.9098C132.387 76.62 132.647 76.2322 132.817 75.7464C132.992 75.2607 133.079 74.7195 133.079 74.1229C133.079 73.522 132.992 72.9787 132.817 72.4929C132.647 72.0028 132.387 71.6129 132.037 71.3232C131.688 71.0334 131.253 70.8885 130.733 70.8885C130.201 70.8885 129.758 71.0334 129.404 71.3232C129.054 71.6129 128.792 72.0028 128.618 72.4929C128.447 72.9787 128.362 73.522 128.362 74.1229C128.362 74.7195 128.447 75.2607 128.618 75.7464C128.792 76.2322 129.054 76.62 129.404 76.9098C129.758 77.1953 130.201 77.3381 130.733 77.3381ZM139.703 73.2472V79H137.389V69.1818H139.601V70.8501H139.716C139.942 70.3004 140.302 69.8636 140.796 69.5398C141.295 69.2159 141.91 69.054 142.643 69.054C143.321 69.054 143.911 69.1989 144.414 69.4886C144.921 69.7784 145.313 70.1982 145.59 70.7479C145.871 71.2976 146.01 71.9645 146.006 72.7486V79H143.692V73.1065C143.692 72.4503 143.521 71.9368 143.18 71.5661C142.844 71.1953 142.377 71.0099 141.78 71.0099C141.376 71.0099 141.016 71.0994 140.7 71.2784C140.389 71.4531 140.144 71.7067 139.965 72.0391C139.79 72.3714 139.703 72.7741 139.703 73.2472Z" fill="#073141"/>
<g clip-path="url(#clip1_2006_394)">
<path d="M63.9012 103.727V127H60.3785V107.25H60.2421L54.6739 110.886V107.523L60.4807 103.727H63.9012ZM78.2989 127.386C76.5035 127.379 74.9694 126.905 73.6966 125.966C72.4239 125.027 71.4504 123.659 70.7762 121.864C70.1019 120.068 69.7648 117.905 69.7648 115.375C69.7648 112.852 70.1019 110.697 70.7762 108.909C71.458 107.121 72.4353 105.758 73.708 104.818C74.9883 103.879 76.5186 103.409 78.2989 103.409C80.0792 103.409 81.6057 103.883 82.8785 104.83C84.1512 105.769 85.1247 107.133 85.7989 108.92C86.4807 110.701 86.8216 112.852 86.8216 115.375C86.8216 117.913 86.4845 120.08 85.8103 121.875C85.136 123.663 84.1626 125.03 82.8898 125.977C81.6171 126.917 80.0868 127.386 78.2989 127.386ZM78.2989 124.352C79.8747 124.352 81.1057 123.583 81.9921 122.045C82.886 120.508 83.333 118.284 83.333 115.375C83.333 113.443 83.1285 111.811 82.7194 110.477C82.3179 109.136 81.7383 108.121 80.9807 107.432C80.2307 106.735 79.3368 106.386 78.2989 106.386C76.7307 106.386 75.4997 107.159 74.6057 108.705C73.7118 110.25 73.261 112.473 73.2535 115.375C73.2535 117.314 73.4542 118.955 73.8557 120.295C74.2648 121.629 74.8444 122.64 75.5944 123.33C76.3444 124.011 77.2459 124.352 78.2989 124.352ZM55.0716 169V166.455L62.9466 158.295C63.7876 157.409 64.4807 156.633 65.0262 155.966C65.5792 155.292 65.9921 154.652 66.2648 154.045C66.5376 153.439 66.6739 152.795 66.6739 152.114C66.6739 151.341 66.4921 150.674 66.1285 150.114C65.7648 149.545 65.2686 149.11 64.6398 148.807C64.011 148.496 63.3027 148.341 62.5148 148.341C61.6815 148.341 60.9542 148.511 60.333 148.852C59.7118 149.193 59.2345 149.674 58.9012 150.295C58.5679 150.917 58.4012 151.644 58.4012 152.477H55.0489C55.0489 151.061 55.3747 149.822 56.0262 148.761C56.6777 147.701 57.5716 146.879 58.708 146.295C59.8444 145.705 61.136 145.409 62.583 145.409C64.0451 145.409 65.333 145.701 66.4466 146.284C67.5679 146.86 68.4429 147.648 69.0716 148.648C69.7004 149.64 70.0148 150.761 70.0148 152.011C70.0148 152.875 69.8519 153.72 69.5262 154.545C69.208 155.371 68.6512 156.292 67.8557 157.307C67.0603 158.314 65.9542 159.538 64.5376 160.977L59.9126 165.818V165.989H70.3898V169H55.0716ZM82.7989 169.386C81.0035 169.379 79.4694 168.905 78.1966 167.966C76.9239 167.027 75.9504 165.659 75.2762 163.864C74.6019 162.068 74.2648 159.905 74.2648 157.375C74.2648 154.852 74.6019 152.697 75.2762 150.909C75.958 149.121 76.9353 147.758 78.208 146.818C79.4883 145.879 81.0186 145.409 82.7989 145.409C84.5792 145.409 86.1057 145.883 87.3785 146.83C88.6512 147.769 89.6247 149.133 90.2989 150.92C90.9807 152.701 91.3216 154.852 91.3216 157.375C91.3216 159.913 90.9845 162.08 90.3103 163.875C89.636 165.663 88.6626 167.03 87.3898 167.977C86.1171 168.917 84.5868 169.386 82.7989 169.386ZM82.7989 166.352C84.3747 166.352 85.6057 165.583 86.4921 164.045C87.386 162.508 87.833 160.284 87.833 157.375C87.833 155.443 87.6285 153.811 87.2194 152.477C86.8179 151.136 86.2383 150.121 85.4807 149.432C84.7307 148.735 83.8368 148.386 82.7989 148.386C81.2307 148.386 79.9997 149.159 79.1057 150.705C78.2118 152.25 77.761 154.473 77.7535 157.375C77.7535 159.314 77.9542 160.955 78.3557 162.295C78.7648 163.629 79.3444 164.64 80.0944 165.33C80.8444 166.011 81.7459 166.352 82.7989 166.352ZM63.1739 211.318C61.6133 211.318 60.2194 211.049 58.9921 210.511C57.7724 209.973 56.8065 209.227 56.0944 208.273C55.3898 207.311 55.011 206.197 54.958 204.932H58.5262C58.5716 205.621 58.8027 206.22 59.2194 206.727C59.6436 207.227 60.1966 207.614 60.8785 207.886C61.5603 208.159 62.3179 208.295 63.1512 208.295C64.0679 208.295 64.8785 208.136 65.583 207.818C66.2951 207.5 66.8519 207.057 67.2535 206.489C67.655 205.913 67.8557 205.25 67.8557 204.5C67.8557 203.72 67.655 203.034 67.2535 202.443C66.8595 201.845 66.28 201.375 65.5148 201.034C64.7573 200.693 63.8406 200.523 62.7648 200.523H60.7989V197.659H62.7648C63.6285 197.659 64.386 197.504 65.0376 197.193C65.6966 196.883 66.2118 196.451 66.583 195.898C66.9542 195.337 67.1398 194.682 67.1398 193.932C67.1398 193.212 66.9769 192.587 66.6512 192.057C66.333 191.519 65.8785 191.098 65.2876 190.795C64.7042 190.492 64.0148 190.341 63.2194 190.341C62.4618 190.341 61.7535 190.481 61.0944 190.761C60.4429 191.034 59.9126 191.428 59.5035 191.943C59.0944 192.451 58.8747 193.061 58.8444 193.773H55.4466C55.4845 192.515 55.8557 191.409 56.5603 190.455C57.2724 189.5 58.2118 188.754 59.3785 188.216C60.5451 187.678 61.8406 187.409 63.2648 187.409C64.7573 187.409 66.0451 187.701 67.1285 188.284C68.2194 188.86 69.0603 189.629 69.6512 190.591C70.2497 191.553 70.5451 192.606 70.5376 193.75C70.5451 195.053 70.1815 196.159 69.4466 197.068C68.7194 197.977 67.7497 198.587 66.5376 198.898V199.08C68.083 199.314 69.28 199.928 70.1285 200.92C70.9845 201.913 71.4088 203.144 71.4012 204.614C71.4088 205.894 71.0527 207.042 70.333 208.057C69.6209 209.072 68.6474 209.871 67.4126 210.455C66.1777 211.03 64.7648 211.318 63.1739 211.318ZM83.7989 211.386C82.0035 211.379 80.4694 210.905 79.1966 209.966C77.9239 209.027 76.9504 207.659 76.2762 205.864C75.6019 204.068 75.2648 201.905 75.2648 199.375C75.2648 196.852 75.6019 194.697 76.2762 192.909C76.958 191.121 77.9353 189.758 79.208 188.818C80.4883 187.879 82.0186 187.409 83.7989 187.409C85.5792 187.409 87.1057 187.883 88.3785 188.83C89.6512 189.769 90.6247 191.133 91.2989 192.92C91.9807 194.701 92.3216 196.852 92.3216 199.375C92.3216 201.913 91.9845 204.08 91.3103 205.875C90.636 207.663 89.6626 209.03 88.3898 209.977C87.1171 210.917 85.5868 211.386 83.7989 211.386ZM83.7989 208.352C85.3747 208.352 86.6057 207.583 87.4921 206.045C88.386 204.508 88.833 202.284 88.833 199.375C88.833 197.443 88.6285 195.811 88.2194 194.477C87.8179 193.136 87.2383 192.121 86.4807 191.432C85.7307 190.735 84.8368 190.386 83.7989 190.386C82.2307 190.386 80.9997 191.159 80.1057 192.705C79.2118 194.25 78.761 196.473 78.7535 199.375C78.7535 201.314 78.9542 202.955 79.3557 204.295C79.7648 205.629 80.3444 206.64 81.0944 207.33C81.8444 208.011 82.7459 208.352 83.7989 208.352ZM54.583 248.455V245.614L64.6398 229.727H66.8785V233.909H65.458L58.2648 245.295V245.477H72.0489V248.455H54.583ZM65.6171 253V247.591L65.6398 246.295V229.727H68.9694V253H65.6171ZM84.1114 253.386C82.316 253.379 80.7819 252.905 79.5091 251.966C78.2364 251.027 77.2629 249.659 76.5887 247.864C75.9144 246.068 75.5773 243.905 75.5773 241.375C75.5773 238.852 75.9144 236.697 76.5887 234.909C77.2705 233.121 78.2478 231.758 79.5205 230.818C80.8008 229.879 82.3311 229.409 84.1114 229.409C85.8917 229.409 87.4182 229.883 88.691 230.83C89.9637 231.769 90.9372 233.133 91.6114 234.92C92.2932 236.701 92.6341 238.852 92.6341 241.375C92.6341 243.913 92.297 246.08 91.6228 247.875C90.9485 249.663 89.9751 251.03 88.7023 251.977C87.4296 252.917 85.8993 253.386 84.1114 253.386ZM84.1114 250.352C85.6872 250.352 86.9182 249.583 87.8046 248.045C88.6985 246.508 89.1455 244.284 89.1455 241.375C89.1455 239.443 88.941 237.811 88.5319 236.477C88.1304 235.136 87.5508 234.121 86.7932 233.432C86.0432 232.735 85.1493 232.386 84.1114 232.386C82.5432 232.386 81.3122 233.159 80.4182 234.705C79.5243 236.25 79.0735 238.473 79.066 241.375C79.066 243.314 79.2667 244.955 79.6682 246.295C80.0773 247.629 80.6569 248.64 81.4069 249.33C82.1569 250.011 83.0584 250.352 84.1114 250.352ZM62.7535 295.318C61.3292 295.318 60.0489 295.045 58.9126 294.5C57.7838 293.947 56.8823 293.189 56.208 292.227C55.5338 291.265 55.1739 290.167 55.1285 288.932H58.5376C58.6209 289.932 59.0641 290.754 59.8671 291.398C60.6701 292.042 61.6323 292.364 62.7535 292.364C63.6474 292.364 64.4391 292.159 65.1285 291.75C65.8254 291.333 66.3709 290.761 66.7648 290.034C67.1663 289.307 67.3671 288.477 67.3671 287.545C67.3671 286.598 67.1626 285.754 66.7535 285.011C66.3444 284.269 65.78 283.686 65.0603 283.261C64.3482 282.837 63.53 282.621 62.6057 282.614C61.9012 282.614 61.1929 282.735 60.4807 282.977C59.7686 283.22 59.1929 283.538 58.7535 283.932L55.5376 283.455L56.8444 271.727H69.6398V274.739H59.7648L59.0262 281.25H59.1626C59.6171 280.811 60.2194 280.443 60.9694 280.148C61.7269 279.852 62.5376 279.705 63.4012 279.705C64.8179 279.705 66.0792 280.042 67.1853 280.716C68.2989 281.39 69.1739 282.311 69.8103 283.477C70.4542 284.636 70.7724 285.97 70.7648 287.477C70.7724 288.985 70.4315 290.33 69.7421 291.511C69.0603 292.693 68.1133 293.625 66.9012 294.307C65.6966 294.981 64.3141 295.318 62.7535 295.318ZM83.0177 295.386C81.2222 295.379 79.6881 294.905 78.4154 293.966C77.1427 293.027 76.1692 291.659 75.4949 289.864C74.8207 288.068 74.4836 285.905 74.4836 283.375C74.4836 280.852 74.8207 278.697 75.4949 276.909C76.1768 275.121 77.154 273.758 78.4268 272.818C79.7071 271.879 81.2374 271.409 83.0177 271.409C84.798 271.409 86.3245 271.883 87.5972 272.83C88.8699 273.769 89.8434 275.133 90.5177 276.92C91.1995 278.701 91.5404 280.852 91.5404 283.375C91.5404 285.913 91.2033 288.08 90.529 289.875C89.8548 291.663 88.8813 293.03 87.6086 293.977C86.3358 294.917 84.8055 295.386 83.0177 295.386ZM83.0177 292.352C84.5934 292.352 85.8245 291.583 86.7108 290.045C87.6048 288.508 88.0518 286.284 88.0518 283.375C88.0518 281.443 87.8472 279.811 87.4381 278.477C87.0366 277.136 86.4571 276.121 85.6995 275.432C84.9495 274.735 84.0555 274.386 83.0177 274.386C81.4495 274.386 80.2184 275.159 79.3245 276.705C78.4305 278.25 77.9798 280.473 77.9722 283.375C77.9722 285.314 78.173 286.955 78.5745 288.295C78.9836 289.629 79.5631 290.64 80.3131 291.33C81.0631 292.011 81.9646 292.352 83.0177 292.352Z" fill="#073141"/>
</g>
<defs>
<clipPath id="clip0_2006_394">
<rect width="50" height="50" fill="white" transform="translate(48.833)"/>
</clipPath>
<clipPath id="clip1_2006_394">
<rect width="42" height="36" fill="white" transform="translate(52.833 94)"/>
</clipPath>
</defs>
</svg>
