<svg width="222" height="49" viewBox="0 0 222 49" fill="none" xmlns="http://www.w3.org/2000/svg">
<path d="M33.9434 38.4667L5.23938 18.6667C2.33058 16.6603 3.31938 12.4827 6.94658 11.5003L37.4538 3.22032C38.1 2.98713 38.7925 2.91144 39.4739 2.99952C40.1552 3.0876 40.8058 3.33691 41.3715 3.72677C41.9371 4.11662 42.4018 4.63577 42.7266 5.24113C43.0514 5.84649 43.2272 6.52061 43.2394 7.20752L41.4314 35.2859C41.217 38.6187 36.8522 40.4731 33.9434 38.4667Z" fill="#E9327C"/>
<path d="M24.8433 43.3546L7.93285 10.2843C7.54629 9.52777 7.3762 8.67914 7.4413 7.83205C7.5064 6.98497 7.8042 6.17231 8.30181 5.48372C8.79944 4.79513 9.47757 4.25733 10.2614 3.92965C11.0453 3.60197 11.9044 3.49714 12.7441 3.62673L44.0833 8.46351C44.8047 8.57489 45.4895 8.85593 46.0814 9.28352C46.673 9.71114 47.1548 10.2731 47.4871 10.9232C47.8193 11.5733 47.9926 12.2929 47.9924 13.023C47.9922 13.7531 47.8188 14.4727 47.4865 15.1227L33.0497 43.3562C32.662 44.1106 32.0738 44.7436 31.3498 45.1854C30.6258 45.6273 29.7942 45.8609 28.946 45.8607C28.0978 45.8606 27.2662 45.6266 26.5423 45.1846C25.8185 44.7423 25.2306 44.1092 24.8433 43.3546Z" fill="#1DACE3"/>
<path d="M43.1645 8.32087L27.5421 5.90967L8.36133 11.1177L16.0173 26.0953L33.9453 38.4664C34.3408 38.7364 34.7759 38.9431 35.2349 39.0793L42.0445 25.7625L43.1645 8.32087Z" fill="#001A49"/>
<path d="M122.297 12.1865C122.297 11.6058 122.469 11.0382 122.792 10.5553C123.114 10.0725 123.573 9.6962 124.109 9.47397C124.646 9.25176 125.236 9.19362 125.806 9.3069C126.375 9.4202 126.898 9.69983 127.309 10.1104C127.72 10.521 127.999 11.0442 128.112 11.6137C128.226 12.1832 128.168 12.7736 127.945 13.3101C127.723 13.8465 127.347 14.3051 126.864 14.6277C126.381 14.9503 125.814 15.1225 125.233 15.1225C124.457 15.1146 123.714 14.8027 123.166 14.2538C122.617 13.7049 122.305 12.9627 122.297 12.1865ZM122.786 16.5577H127.681V32.8681H122.786V16.5577Z" fill="#001A49"/>
<path d="M148.816 24.7131C148.873 25.7912 148.716 26.8699 148.355 27.8872C147.993 28.9043 147.434 29.8402 146.71 30.6407C145.985 31.441 145.11 32.0903 144.134 32.5512C143.157 33.012 142.1 33.2754 141.021 33.3259C140.114 33.3752 139.207 33.2223 138.367 32.8781C137.526 32.5338 136.772 32.0069 136.16 31.3355V39.3931H131.268V16.5579H136.16V18.0907C136.773 17.4195 137.526 16.893 138.367 16.549C139.208 16.2051 140.114 16.0523 141.021 16.1019C142.1 16.1523 143.157 16.4154 144.133 16.876C145.11 17.3368 145.985 17.9859 146.71 18.7863C147.434 19.5866 147.993 20.5221 148.355 21.5394C148.716 22.5565 148.873 23.6351 148.816 24.7131ZM143.924 24.7131C143.904 23.9495 143.66 23.2085 143.222 22.5827C142.784 21.9571 142.171 21.4746 141.46 21.1957C140.749 20.9167 139.971 20.8538 139.224 21.0146C138.477 21.1754 137.795 21.5528 137.261 22.0997C136.728 22.6466 136.368 23.3387 136.226 24.0893C136.084 24.8399 136.167 25.6157 136.464 26.3195C136.76 27.0234 137.258 27.624 137.895 28.0464C138.531 28.4688 139.278 28.6939 140.042 28.6939C140.567 28.7176 141.09 28.6299 141.578 28.437C142.067 28.2439 142.509 27.9496 142.875 27.5738C143.242 27.1978 143.525 26.7487 143.705 26.2555C143.886 25.7626 143.961 25.2368 143.924 24.7131Z" fill="#001A49"/>
<path d="M163.919 27.9722C163.919 31.7242 160.657 33.3226 157.134 33.3226C155.711 33.4514 154.281 33.1502 153.031 32.4578C151.781 31.7657 150.767 30.7142 150.121 29.4394L154.361 27.0266C154.534 27.6159 154.903 28.1281 155.408 28.4775C155.912 28.827 156.522 28.9926 157.134 28.9466C158.308 28.9466 158.894 28.5866 158.894 27.9354C158.894 26.1402 150.87 27.0874 150.87 21.4426C150.87 17.8874 153.87 16.0938 157.27 16.0938C158.545 16.0538 159.808 16.3564 160.926 16.9702C162.046 17.5839 162.979 18.4863 163.63 19.5834L159.455 21.8346C159.273 21.4065 158.968 21.0415 158.58 20.7855C158.191 20.5294 157.735 20.3935 157.27 20.3946C156.422 20.3946 155.9 20.7146 155.9 21.3082C155.895 23.1802 163.919 21.9402 163.919 27.9722Z" fill="#001A49"/>
<path d="M181.8 16.5576V32.868H176.907V31.332C176.343 32.0087 175.624 32.5418 174.813 32.8879C174.003 33.2338 173.122 33.3827 172.242 33.3224C168.947 33.3224 166.143 30.9736 166.143 26.5688V16.5576H171.035V25.8552C170.994 26.244 171.039 26.6371 171.165 27.0071C171.291 27.377 171.496 27.7151 171.767 27.9976C172.037 28.2802 172.365 28.5003 172.728 28.6429C173.093 28.7856 173.483 28.8471 173.874 28.8232C175.667 28.8232 176.914 27.78 176.914 25.4632V16.5576H181.8Z" fill="#001A49"/>
<path d="M209.846 22.8522V32.8682H204.954V23.2778C204.954 21.6474 204.17 20.6026 202.605 20.6026C200.973 20.6026 200.061 21.745 200.061 23.6698V32.8682H195.166V23.2778C195.166 21.6474 194.384 20.6026 192.818 20.6026C191.187 20.6026 190.274 21.745 190.274 23.6698V32.8682H185.381V16.5578H190.282V18.0522C190.789 17.3867 191.454 16.859 192.218 16.5171C192.981 16.1754 193.819 16.0303 194.653 16.0954C195.49 16.0544 196.325 16.2311 197.074 16.6083C197.822 16.9854 198.461 17.5501 198.926 18.2474C199.469 17.5179 200.187 16.9378 201.014 16.5614C201.842 16.185 202.752 16.0247 203.658 16.0954C207.402 16.1018 209.846 18.7754 209.846 22.8522Z" fill="#001A49"/>
<path d="M213.991 16.4569C215.998 16.4569 217.623 14.8308 217.623 12.8249C217.623 10.819 215.998 9.19287 213.991 9.19287C211.985 9.19287 210.359 10.819 210.359 12.8249C210.359 14.8308 211.985 16.4569 213.991 16.4569Z" fill="#001A49"/>
<path d="M55.4922 9.05518H60.3866V32.8681H55.4922V9.05518ZM63.1578 24.7129C63.1525 23.0028 63.6546 21.3297 64.6007 19.9053C65.5467 18.4809 66.8943 17.3692 68.4725 16.7111C70.0509 16.053 71.7888 15.878 73.4667 16.2083C75.1445 16.5386 76.6866 17.3593 77.8976 18.5666C79.1087 19.7738 79.9343 21.3132 80.2698 22.99C80.6053 24.6668 80.4359 26.4053 79.7827 27.9857C79.1296 29.566 78.0223 30.917 76.6008 31.8676C75.1794 32.8181 73.5079 33.3257 71.7978 33.3257C70.6621 33.3377 69.5354 33.1234 68.4834 32.6953C67.4315 32.2671 66.4754 31.6335 65.6711 30.8317C64.8666 30.0298 64.2301 29.0757 63.7986 28.0252C63.3671 26.9746 63.1493 25.8485 63.1578 24.7129ZM75.5546 24.7129C75.5354 23.9751 75.2992 23.2596 74.8754 22.6556C74.4517 22.0516 73.8592 21.5858 73.1722 21.3167C72.485 21.0477 71.7339 20.9871 71.0127 21.1428C70.2914 21.2983 69.632 21.6633 69.117 22.1916C68.6019 22.7201 68.2543 23.3885 68.1171 24.1135C67.9802 24.8386 68.0599 25.5879 68.3466 26.2679C68.6331 26.9477 69.1139 27.5281 69.7287 27.9362C70.3434 28.3444 71.0648 28.5621 71.8026 28.5625C72.3079 28.5769 72.8107 28.4863 73.2792 28.2967C73.7479 28.1073 74.172 27.8226 74.5251 27.4609C74.8783 27.0993 75.1527 26.6684 75.3309 26.1954C75.5091 25.7223 75.5875 25.2175 75.561 24.7129H75.5546ZM99.953 16.5529V32.0489C99.953 37.5289 95.6794 39.8441 91.3418 39.8441C89.8151 39.9593 88.2859 39.6519 86.9221 38.9556C85.5584 38.2594 84.4127 37.201 83.6106 35.8969L87.785 33.4825C88.1219 34.1631 88.6587 34.7247 89.3235 35.0922C89.9883 35.4596 90.7493 35.6153 91.505 35.5385C91.9874 35.6042 92.4783 35.561 92.9416 35.4117C93.405 35.2625 93.8288 35.0113 94.1821 34.6762C94.5352 34.3413 94.8087 33.9314 94.9823 33.4765C95.1559 33.0218 95.2251 32.5338 95.185 32.0489V30.5481C94.6119 31.2489 93.8824 31.8057 93.0554 32.1738C92.2282 32.542 91.3263 32.7113 90.4218 32.6681C88.269 32.601 86.2266 31.6988 84.7274 30.1522C83.2282 28.6057 82.3898 26.5364 82.3898 24.3825C82.3898 22.2284 83.2282 20.1591 84.7274 18.6125C86.2266 17.066 88.269 16.1637 90.4218 16.0968C91.3263 16.0535 92.2282 16.2227 93.0554 16.5909C93.8824 16.9591 94.6119 17.5159 95.185 18.2169V16.5529H99.953ZM95.1914 24.3817C95.2237 23.5938 95.0195 22.8145 94.6053 22.1436C94.1911 21.4727 93.5856 20.941 92.8667 20.617C92.148 20.293 91.3487 20.1914 90.5717 20.3253C89.7947 20.4593 89.0755 20.8225 88.5066 21.3684C87.9376 21.9143 87.545 22.6178 87.3792 23.3885C87.2133 24.1594 87.2818 24.9621 87.5759 25.6938C87.8698 26.4253 88.376 27.0522 89.0291 27.4938C89.6823 27.9354 90.4527 28.1716 91.241 28.1721C91.7551 28.2081 92.2711 28.1362 92.7557 27.961C93.2403 27.7858 93.6829 27.5111 94.0551 27.1545C94.4271 26.798 94.7205 26.3674 94.9162 25.8908C95.1119 25.414 95.2056 24.9015 95.1914 24.3865V24.3817ZM102.724 24.7017C102.719 22.9916 103.221 21.3185 104.167 19.8941C105.113 18.4697 106.461 17.358 108.039 16.6999C109.617 16.0418 111.355 15.8668 113.033 16.1971C114.711 16.5274 116.253 17.3481 117.464 18.5554C118.675 19.7626 119.501 21.302 119.836 22.9788C120.172 24.6556 120.002 26.3941 119.349 27.9745C118.696 29.5548 117.589 30.9058 116.167 31.8564C114.746 32.8069 113.074 33.3145 111.364 33.3145C110.229 33.3265 109.104 33.1125 108.052 32.685C107.001 32.2577 106.046 31.625 105.241 30.8244C104.437 30.0237 103.801 29.0711 103.368 28.0217C102.936 26.9724 102.717 25.8476 102.724 24.7129V24.7017ZM115.121 24.7017C115.102 23.9636 114.866 23.2474 114.442 22.6428C114.018 22.0383 113.426 21.5722 112.738 21.3028C112.051 21.0333 111.299 20.9727 110.577 21.1284C109.856 21.2839 109.196 21.649 108.681 22.1777C108.165 22.7065 107.817 23.3754 107.68 24.1009C107.543 24.8263 107.623 25.5762 107.91 26.2564C108.197 26.9367 108.678 27.5172 109.293 27.9255C109.909 28.3337 110.631 28.5513 111.369 28.5513C111.873 28.5645 112.374 28.4738 112.841 28.2845C113.308 28.0953 113.731 27.8114 114.083 27.4511C114.435 27.0908 114.709 26.6615 114.888 26.1903C115.067 25.7191 115.146 25.2161 115.121 24.7129V24.7017Z" fill="#001A49"/>
</svg>
