<svg width="77" height="49" viewBox="0 0 77 49" fill="none" xmlns="http://www.w3.org/2000/svg">
<g clip-path="url(#clip0_2032_158)">
<path d="M71.4855 6.35247C71.4855 6.40843 71.4855 6.47839 71.4712 6.52037C71.3997 7.06606 71.3997 7.61174 71.4425 8.17142C71.4712 8.31134 71.4998 8.45126 71.6143 8.5632C71.8003 8.77307 72.0865 8.7311 72.201 8.47924C72.2583 8.35332 72.2583 8.22738 72.2296 8.10146C72.0865 7.56976 72.0579 7.01009 72.0436 6.4644C72.0436 6.43642 72.0436 6.39444 72.0436 6.35247C72.201 6.33847 72.3442 6.32448 72.4729 6.32448C72.5731 6.31049 72.659 6.2965 72.7306 6.25452C72.9451 6.14259 72.9451 5.90473 72.7162 5.79279C72.6303 5.75081 72.5159 5.73682 72.4157 5.73682C72.0579 5.75081 71.7002 5.75081 71.3424 5.75081C71.2137 5.75081 71.0848 5.76481 70.956 5.77879C70.8844 5.79279 70.7986 5.79279 70.7414 5.83477C70.6412 5.87674 70.584 5.9467 70.584 6.04464C70.5983 6.14259 70.6412 6.19855 70.7414 6.24053C70.7986 6.28251 70.8701 6.2965 70.9417 6.2965C71.1134 6.31049 71.2995 6.33847 71.4855 6.35247ZM75.4209 6.9961C75.4209 7.01009 75.4351 7.02408 75.4351 7.02408C75.4924 7.40186 75.5497 7.76566 75.5926 8.12944C75.607 8.25537 75.6213 8.3673 75.7071 8.46525C75.8931 8.70311 76.1794 8.67513 76.3081 8.42328C76.3654 8.29734 76.3797 8.17142 76.3511 8.0315C76.2652 7.61174 76.2222 7.19198 76.1364 6.78622C76.0791 6.53436 76.0077 6.2965 75.9361 6.07263C75.8931 5.93271 75.793 5.83476 75.6213 5.82077C75.4495 5.79279 75.3207 5.87674 75.2491 6.00267C75.1633 6.1146 75.0917 6.22654 75.0345 6.35247C74.9343 6.57634 74.8485 6.80021 74.734 7.01009C74.7196 7.06606 74.7053 7.10803 74.6767 7.15C74.6625 7.12202 74.6482 7.10803 74.6482 7.10803C74.4621 6.75823 74.2903 6.40843 74.1043 6.07263C74.0757 6.04464 74.0614 6.01666 74.0471 5.98867C73.9612 5.86275 73.8611 5.79279 73.7037 5.79279C73.5605 5.80678 73.446 5.89073 73.3745 6.01666C73.3458 6.07263 73.3458 6.1146 73.3315 6.17057C73.2743 6.61831 73.2027 7.06606 73.1455 7.5138C73.1169 7.76566 73.1026 8.0175 73.1026 8.26936C73.0883 8.32533 73.1026 8.39529 73.1311 8.45126C73.1598 8.56319 73.2457 8.63316 73.3601 8.64714C73.5033 8.66114 73.6034 8.61916 73.6464 8.50722C73.6893 8.42328 73.7037 8.35332 73.7179 8.28336C73.7752 8.0315 73.8181 7.79364 73.8611 7.55578C73.8897 7.41586 73.9039 7.30392 73.9469 7.15C73.9755 7.20598 74.0041 7.24795 74.0328 7.28992C74.1615 7.45783 74.2903 7.62574 74.4478 7.76566C74.6052 7.87758 74.734 7.8636 74.8627 7.73766C74.8914 7.70968 74.9057 7.6957 74.9343 7.6677C75.0631 7.47182 75.2206 7.27594 75.3493 7.08004C75.378 7.05206 75.3923 7.02408 75.4209 6.9961Z" fill="black"/>
<path d="M42.4459 6.6271C42.3464 6.89301 42.3274 7.08458 42.3733 7.24381C42.4241 7.46034 42.5557 7.53122 42.7344 7.47615C44.4153 7.06976 48.1012 8.22328 49.4658 8.54479C49.7876 8.61229 50.0494 8.20609 49.8298 7.8419C49.5093 7.48921 45.8251 5.97921 44.4193 5.89688C43.8683 5.86643 42.8832 5.72828 42.4459 6.6271Z" fill="black"/>
<path d="M56.8504 1.73943C57.0295 1.84053 57.1297 1.93697 57.1791 2.04471C57.2527 2.18605 57.2139 2.28384 57.0902 2.33374C55.9791 2.86394 54.5006 5.14657 53.9038 5.93383C53.7591 6.11493 53.4254 6.00969 53.375 5.71187C53.3854 5.37513 54.696 2.89797 55.4274 2.22327C55.7149 1.95985 56.1898 1.44299 56.8504 1.73943Z" fill="black"/>
<path d="M48.001 0.615562C48.2162 0.456969 48.4398 0.401393 48.5541 0.504459C50.2305 1.90622 51.1194 4.12604 51.6699 6.15822C51.6906 6.20557 51.6919 6.27351 51.6754 6.34439C51.6685 6.40497 51.6232 6.46896 51.5513 6.51848C51.4745 6.57314 51.4084 6.58979 51.3773 6.54268C50.6426 5.56559 46.4462 1.76388 48.001 0.615562Z" fill="black"/>
<path d="M12.5029 24.9187C12.9047 24.6262 13.3415 24.3827 13.8037 24.1938C14.2873 24.0586 14.8028 24.081 15.2722 24.2577C15.7415 24.4344 16.1393 24.7557 16.4053 25.1731C16.6432 25.5894 16.7363 26.07 16.6706 26.5426C16.6049 27.0151 16.384 27.454 16.0411 27.7931C15.7752 28.068 15.4733 28.3075 15.1436 28.5054C13.6737 29.4338 12.1907 30.3114 10.7078 31.2398C10.4043 31.4722 10.0825 31.6807 9.74518 31.8631C9.23216 32.1132 8.64586 32.1802 8.08765 32.0525C7.52945 31.9248 7.03447 31.6103 6.68828 31.1636C6.42948 30.8472 6.21107 30.5013 6.03787 30.1333C4.63299 27.2462 3.17609 24.3718 1.82325 21.4338C1.19885 20.162 0.691541 18.6993 0.197234 17.2876C-0.0166261 16.8774 -0.0583882 16.4018 0.0808404 15.962C0.220069 15.5221 0.529304 15.1528 0.942765 14.9324C1.35623 14.712 1.84129 14.6581 2.2948 14.7821C2.74832 14.906 3.1345 15.198 3.3712 15.596C4.09879 16.5414 4.74285 17.5456 5.29641 18.5976C6.70128 21.1413 8.04112 23.685 9.39396 26.1524C9.47273 26.2888 9.55959 26.4203 9.65412 26.5466C10.6724 26.1281 11.6301 25.5808 12.5029 24.9187Z" fill="black"/>
<path d="M27.0271 24.0311C23.8141 27.7067 18.4287 26.7783 15.7231 22.047C13.7978 18.6893 13.4597 13.144 17.6483 9.64637C18.5427 8.91411 19.6123 8.4153 20.7572 8.19644C22.161 7.99967 23.5925 8.24181 24.847 8.88826C26.1015 9.53471 27.115 10.5524 27.7426 11.7958C30.032 15.8658 29.7068 21.0549 27.0271 24.0311ZM25.7263 15.4588C25.3849 14.4586 24.7002 13.6048 23.7881 13.0422C23.2719 12.6825 22.6448 12.5076 22.0123 12.547C21.3797 12.5864 20.7803 12.8376 20.3149 13.2584C18.4548 14.8737 18.0645 18.702 19.4173 20.9787C19.5898 21.3499 19.843 21.6798 20.1595 21.9453C20.4759 22.2108 20.8479 22.4056 21.2494 22.5157C21.6509 22.626 22.0721 22.6492 22.4837 22.5836C22.8953 22.5179 23.2871 22.3652 23.6321 22.136C24.6404 21.3716 25.3801 20.3191 25.7484 19.1248C26.1168 17.9303 26.0954 16.6534 25.6873 15.4715L25.7263 15.4588Z" fill="black"/>
<path d="M40.1395 17.0614C39.8106 17.1305 39.4708 17.1347 39.1401 17.0735C38.8096 17.0123 38.4947 16.8872 38.2144 16.7053C37.969 16.5681 37.7578 16.3795 37.5959 16.1529C37.4342 15.9263 37.3257 15.6675 37.2785 15.395C37.2311 15.1226 37.2463 14.8433 37.3226 14.5773C37.3989 14.3112 37.5347 14.065 37.7201 13.8563C38.043 13.4369 38.5014 13.1367 39.0209 13.0042C40.3772 12.6193 41.7735 12.3847 43.1835 12.3047C43.4933 12.2695 43.8071 12.2951 44.1066 12.3801C44.4062 12.4652 44.6852 12.6077 44.9276 12.7997C45.1699 12.9916 45.3706 13.229 45.5179 13.4978C45.6651 13.7666 45.7559 14.0615 45.7851 14.3651C46.1915 15.8564 46.2361 17.42 45.9151 18.9311C44.7445 23.815 40.7119 25.4938 36.1851 23.9294C34.9144 23.5112 33.8002 22.7318 32.9851 21.691C31.8979 20.4375 31.1271 18.952 30.7347 17.354C30.4168 15.9309 30.4516 14.4542 30.8363 13.0471C31.221 11.6399 31.9444 10.3431 32.9461 9.26493C33.8967 8.09311 35.1305 7.17089 36.5363 6.5813C37.4247 6.10256 38.4642 5.96643 39.4502 6.19975C39.6738 6.26027 39.8768 6.3782 40.0382 6.5413C40.1995 6.70441 40.3133 6.90674 40.3677 7.12734C40.4222 7.34792 40.4152 7.57872 40.3477 7.79581C40.28 8.01289 40.1543 8.20835 39.9835 8.36191C39.6586 8.64942 39.3057 8.90502 38.9298 9.12502C37.7733 9.8451 36.767 10.773 35.9639 11.8595C35.4376 12.5626 35.0751 13.37 34.9021 14.2247C34.7289 15.0794 34.7495 15.9609 34.9624 16.8071C35.2574 17.9608 35.912 18.9964 36.8355 19.7704C39.6973 22.3142 43.4176 19.8595 42.7672 16.3873C41.8177 16.6163 40.9851 16.8579 40.1395 17.0614Z" fill="black"/>
<path d="M57.624 24.2344C53.3964 26.7782 48.5835 24.2344 47.5297 18.8927C46.7623 15.0771 48.2192 9.73529 53.3184 7.70032C54.4033 7.27667 55.5801 7.12792 56.7395 7.26789C58.1325 7.51721 59.4104 8.18772 60.3929 9.18488C61.3753 10.182 62.0131 11.4555 62.2159 12.8259C63.0744 17.3664 61.1232 22.2122 57.624 24.2344ZM59.094 15.6748C59.0927 14.6183 58.7105 13.5959 58.0144 12.7877C57.6423 12.2879 57.1043 11.9297 56.4923 11.7743C55.8802 11.6189 55.2321 11.6759 54.6582 11.9356C52.3688 12.9022 50.7558 16.4125 51.3412 18.9945C51.3859 19.3996 51.5205 19.7904 51.7357 20.1394C51.951 20.4884 52.2416 20.7872 52.5873 21.0149C52.9329 21.2426 53.3253 21.3938 53.7369 21.4579C54.1486 21.5218 54.5696 21.4971 54.9704 21.3855C56.1805 20.9722 57.2284 20.1997 57.9676 19.1759C58.7069 18.1521 59.1007 16.9281 59.094 15.6748Z" fill="black"/>
<path d="M66.491 25.3031C66.4272 25.7686 66.1769 26.1902 65.7951 26.4753C65.4133 26.7602 64.9313 26.8853 64.4553 26.8229C63.9792 26.7605 63.548 26.5157 63.2565 26.1424C62.9649 25.7692 62.837 25.298 62.9008 24.8325C62.9647 24.367 63.215 23.9453 63.5967 23.6603C63.9785 23.3752 64.4605 23.2502 64.9366 23.3126C65.4127 23.375 65.8439 23.6197 66.1355 23.993C66.427 24.3663 66.5549 24.8376 66.491 25.3031ZM65.3593 8.14568C65.6067 7.77624 65.9697 7.49491 66.394 7.34363C66.8183 7.19235 67.2813 7.17924 67.7138 7.30626C68.1536 7.41383 68.542 7.66584 68.8144 8.02009C69.0867 8.37435 69.2263 8.80933 69.2098 9.2522C69.1524 9.96257 69.0437 10.6681 68.8846 11.3635C68.4553 13.7164 68.039 16.0693 67.5838 18.3969C67.3756 19.3253 67.1025 20.2156 66.8032 21.1568C66.6992 21.451 66.5253 21.7168 66.296 21.9326C66.1534 22.0949 65.9713 22.2194 65.7664 22.2946C65.5616 22.3699 65.3406 22.3933 65.1241 22.3629C64.9076 22.3324 64.7022 22.2491 64.5274 22.1206C64.3525 21.992 64.2136 21.8223 64.1236 21.6274C63.9689 21.2776 63.8849 20.9018 63.8764 20.5209C63.8764 18.9437 63.8764 17.354 63.9805 15.7641C64.1573 13.4952 64.5051 11.2421 65.0211 9.02326C65.0819 8.72599 65.1963 8.44171 65.3593 8.18384V8.14568Z" fill="black"/>
<path fill-rule="evenodd" clip-rule="evenodd" d="M7.00651 35.5237C6.85292 35.859 6.8108 36.2327 6.88586 36.5924C6.93579 37.0665 7.04546 37.5329 7.21236 37.9808C7.42075 38.5293 7.65393 39.0717 7.94145 39.7402C8.00757 39.894 8.07667 40.0546 8.14898 40.2236C8.53671 41.1293 9.02321 42.2867 9.67214 43.9618C9.85581 44.4377 10.0189 44.9174 10.1832 45.4005C10.2495 45.5957 10.3161 45.7915 10.3843 45.9877C10.6286 46.6855 11.049 47.3123 11.6062 47.8091C11.8428 48.0822 12.1567 48.2811 12.5086 48.3806C12.8674 48.4821 13.249 48.4757 13.604 48.3622C13.959 48.2486 14.2708 48.0333 14.4989 47.7441C14.7225 47.4606 14.8555 47.1189 14.8813 46.7619C15.0264 46.0666 14.9769 45.3456 14.7378 44.6753C14.3582 43.5622 13.9259 42.4475 13.4274 41.3573L13.4251 41.3525C12.6049 39.6467 11.7713 37.9527 10.8981 36.2581L10.8916 36.2462C10.636 35.8047 10.3038 35.4101 9.91002 35.0799C9.65435 34.7853 9.3017 34.5865 8.91224 34.518C8.51448 34.4481 8.10426 34.5186 7.7548 34.717C7.42421 34.9016 7.16215 35.184 7.00651 35.5237Z" fill="black"/>
<path fill-rule="evenodd" clip-rule="evenodd" d="M19.5346 31.3233C18.2486 30.9977 16.9056 30.9502 15.5991 31.1843C14.5872 31.2817 13.592 31.51 12.9009 31.962C12.5494 32.1921 12.2652 32.4875 12.1072 32.863C11.9482 33.2406 11.9279 33.6724 12.0582 34.1534C12.296 35.0347 12.6048 35.8915 12.9126 36.7456L12.9624 36.8839L12.9636 36.8869C13.8902 39.3681 14.8257 41.8409 15.7697 44.3051C15.8797 44.6935 16.0354 45.0681 16.2335 45.4214L16.2372 45.428C16.4989 45.867 16.8346 46.2596 17.2301 46.5894C17.4278 46.7707 17.6724 46.8961 17.9376 46.9522C18.2054 47.0087 18.4839 46.9924 18.7428 46.9046C19.0018 46.817 19.2311 46.6616 19.4059 46.4552C19.5778 46.2522 19.6904 46.0076 19.7317 45.7473C19.9023 45.0402 19.8477 44.2989 19.575 43.623C19.4899 43.3955 19.4231 43.163 19.3528 42.9184C19.3293 42.8368 19.3055 42.7537 19.2804 42.6692C21.4412 41.8434 23.7403 40.7329 24.5488 38.1497C24.8653 37.257 24.8917 36.2903 24.6242 35.3822C24.3565 34.4732 23.8073 33.6674 23.0521 33.076C22.0244 32.248 20.8238 31.6497 19.5346 31.3233ZM15.9701 34.4918C16.0126 34.4798 16.0555 34.4687 16.0985 34.4584C17.5052 34.2421 18.9444 34.5302 20.1512 35.2694C20.683 35.6311 20.9009 36.0329 20.9383 36.4195C20.9769 36.8176 20.8289 37.2489 20.5315 37.6636C19.9696 38.4468 18.9441 39.0738 18.0178 39.1906C17.3425 37.6701 16.6568 36.0881 15.9701 34.4918Z" fill="black"/>
<path d="M28.105 28.5401C29.6364 27.8486 31.5334 27.7291 33.0178 28.2154C33.3916 28.3218 33.716 28.5521 33.9353 28.8669C34.1533 29.1796 34.2539 29.5565 34.2203 29.9333C34.2181 30.1779 34.1567 30.4186 34.0412 30.6357C33.9236 30.8567 33.7533 31.0467 33.5447 31.1898C33.3361 31.3329 33.0953 31.4248 32.8428 31.4577C32.5901 31.4906 32.3332 31.4635 32.0936 31.3788L32.0753 31.3723L32.0582 31.3635C31.9356 31.3008 31.8053 31.2535 31.6706 31.2228L31.6621 31.2209C30.6179 30.9497 29.6329 31.3991 29.2731 31.9512C29.1015 32.2144 29.0803 32.4802 29.2232 32.7219C29.3762 32.9808 29.7516 33.2713 30.5112 33.4783C30.7201 33.5344 30.9343 33.5885 31.1515 33.6435C31.7521 33.7956 32.3763 33.9535 32.9799 34.1725L32.9822 34.1734C35.7669 35.2093 36.8038 37.3548 36.4488 39.3727C36.0976 41.3683 34.3931 43.1845 31.8298 43.6129C30.8971 43.815 29.9264 43.7757 29.0138 43.4987C28.099 43.2208 27.2744 42.7139 26.6219 42.0279L26.6049 42.01C26.3989 41.7516 26.2604 41.448 26.1989 41.1258C26.1424 40.8351 26.1722 40.5347 26.2846 40.2599C26.3963 39.9867 26.5852 39.7503 26.8291 39.5781C27.0866 39.3828 27.3971 39.2656 27.7221 39.2412C28.046 39.2169 28.3701 39.2857 28.6545 39.4391C28.9385 39.5733 29.2028 39.7444 29.4399 39.948L29.4444 39.9517C29.864 40.3269 30.3716 40.4246 30.8583 40.3341C31.3522 40.2422 31.8166 39.9565 32.1153 39.5774C32.412 39.2007 32.5311 38.7532 32.3897 38.3188C32.2475 37.8813 31.8197 37.391 30.8799 36.9811C30.6343 36.8791 30.3795 36.7969 30.1145 36.7168C30.0431 36.6952 29.9704 36.6737 29.8969 36.6519C29.701 36.5938 29.4994 36.5339 29.3017 36.4679C29.1656 36.4225 29.0305 36.3795 28.8968 36.3369C28.5312 36.2205 28.1748 36.107 27.8318 35.9548C27.0853 35.7063 26.4404 35.2291 25.993 34.5939C25.5437 33.9562 25.3177 33.1935 25.3485 32.4198C25.3509 30.5344 26.5654 29.2355 28.105 28.5401Z" fill="black"/>
<path d="M47.5209 28.3392C47.224 28.1973 46.8956 28.13 46.5655 28.1432C46.2353 28.1565 45.9137 28.2499 45.6297 28.4152C45.3475 28.5793 45.1112 28.809 44.9419 29.084C44.7867 29.3156 44.6792 29.5746 44.6256 29.8466C44.5721 30.1183 44.5734 30.3976 44.6293 30.6687C44.6847 31.0171 44.746 31.356 44.8065 31.6901C44.9068 32.2431 45.0043 32.7836 45.0687 33.3348L45.0711 33.3487C45.2176 34.213 45.2943 35.0872 45.3011 35.9632L45.3018 35.9756C45.3519 36.9217 45.0222 37.8493 44.3835 38.5616L44.3733 38.5743C44.1655 38.8347 43.8876 39.0334 43.5707 39.1483C43.2539 39.2632 42.9107 39.2896 42.5794 39.2246C42.2481 39.1596 41.9419 39.0057 41.6949 38.7802C41.4479 38.5548 41.2698 38.2657 41.1809 37.947C40.9911 37.2753 40.8812 36.5845 40.8533 35.8882L41.1775 30.8414C41.1823 30.7755 41.1877 30.7078 41.1933 30.6396C41.2056 30.4863 41.2183 30.3302 41.2235 30.1845C41.2312 29.9703 41.2246 29.7499 41.1736 29.5413C41.1213 29.3282 41.0219 29.1254 40.8456 28.9527C40.6711 28.7817 40.4355 28.6556 40.1389 28.5698C39.6028 28.418 39.1494 28.4228 38.7716 28.5796C38.3936 28.7364 38.1346 29.0274 37.9513 29.3636C37.7695 29.697 37.6527 30.0917 37.5643 30.487C37.4987 30.7804 37.446 31.0884 37.396 31.3815C37.3786 31.4825 37.3617 31.5817 37.3446 31.678L37.3441 31.6808C37.0762 33.2884 36.9965 34.9206 37.1064 36.5458C37.1269 37.4241 37.3143 38.2911 37.659 39.1024C38.0479 40.1492 38.7523 41.0562 39.6792 41.7037C40.6081 42.3524 41.7166 42.7099 42.8579 42.7288C43.9992 42.7477 45.1195 42.427 46.0703 41.8095C47.0196 41.1928 47.7553 40.3089 48.1801 39.2749C48.7744 37.9576 49.0534 36.525 48.9958 35.0863C48.9609 34.036 48.9024 32.9776 48.8443 31.9245C48.8157 31.408 48.7872 30.8925 48.7617 30.3802C48.7488 29.8665 48.5756 29.369 48.2651 28.9543C48.073 28.6922 47.8173 28.4808 47.5209 28.3392Z" fill="black"/>
<path d="M58.0322 36.253C58.0021 36.2905 57.9703 36.3292 57.9372 36.3694C57.6956 35.0071 57.4718 33.6452 57.2476 32.2813C57.1672 31.7919 57.0864 31.3004 57.0051 30.8104L56.9959 30.7557L56.9662 30.7085C56.9103 30.6196 56.9047 30.5324 56.9047 30.3465V30.325L56.9013 30.3038C56.8407 29.9199 56.6631 29.5626 56.3918 29.2788C56.1212 28.9957 55.7698 28.7986 55.3833 28.7131C54.9975 28.6201 54.592 28.6406 54.2179 28.7721C53.8448 28.9034 53.5196 29.1392 53.2829 29.4501C53.0861 29.6887 52.9247 29.9534 52.8039 30.2361C52.5295 30.8453 52.2528 31.456 51.9752 32.0683L51.9704 32.0789C51.2776 33.6076 50.5801 35.1465 49.9028 36.6976L49.9007 36.7026C49.485 37.7083 49.1418 38.768 48.7998 39.8245C48.7315 40.0353 48.6632 40.2461 48.5944 40.4563C48.4709 40.7897 48.4169 41.1438 48.4354 41.4978C48.413 41.8147 48.4905 42.1309 48.6579 42.4035C48.8285 42.6817 49.0841 42.9005 49.3886 43.0293C49.7113 43.1677 50.072 43.197 50.4138 43.1128C50.7548 43.0287 51.0577 42.8363 51.2746 42.5657C51.5517 42.2324 51.7901 41.8689 51.9845 41.4839C52.5582 40.3364 53.1065 39.175 53.6523 38.0187C53.8635 37.5714 54.0687 37.1708 54.3021 36.7346C54.3182 36.7884 54.3345 36.8408 54.3514 36.8934C54.5961 37.9467 55.0092 38.9556 55.5752 39.883C55.6824 40.0795 55.8316 40.2512 56.0127 40.3864C56.1959 40.5232 56.4075 40.6192 56.6325 40.668C56.8576 40.7167 57.0908 40.7169 57.316 40.6686C57.5408 40.6204 57.753 40.5243 57.9364 40.3881L58.2993 40.1225L61.1164 37.8025L60.9498 38.8405C60.7212 40.2673 60.4942 41.6822 60.2531 43.0974C60.0954 43.7247 60.0956 44.3799 60.2538 45.0069C60.3223 45.3599 60.4969 45.6847 60.7552 45.9402C61.0157 46.1978 61.3493 46.3728 61.7128 46.4426C62.0763 46.5123 62.4529 46.4737 62.7935 46.3315C63.1293 46.1916 63.4149 45.9574 63.6146 45.6591C64.0791 45.0956 64.3682 44.4135 64.4476 43.6938C64.5672 42.6775 64.7022 41.6474 64.8374 40.6176C64.993 39.4305 65.1487 38.2438 65.2802 37.08L65.2806 37.0764C65.4071 35.8023 65.4684 34.523 65.4641 33.2429C65.4918 32.8384 65.3888 32.4354 65.1693 32.091C64.9491 31.7454 64.6229 31.4767 64.2374 31.323C63.8364 31.1448 63.3874 31.0971 62.9566 31.1872C62.5287 31.2766 62.1413 31.4972 61.8507 31.8168C61.3311 32.2866 60.8437 32.7894 60.3915 33.3219L60.3884 33.3255C59.8948 33.9269 59.4045 34.5401 58.9174 35.1494C58.6213 35.5197 58.3259 35.8892 58.0322 36.253Z" fill="black"/>
</g>
<defs>
<clipPath id="clip0_2032_158">
<rect width="76.3636" height="48" fill="white" transform="translate(0 0.452148)"/>
</clipPath>
</defs>
</svg>
