<svg width="186" height="49" viewBox="0 0 186 49" fill="none" xmlns="http://www.w3.org/2000/svg">
<g clip-path="url(#clip0_2032_144)">
<path d="M61.9001 12.793H57.6016V32.1889H69.5012V28.3884H61.9001V12.793Z" fill="#243A5A"/>
<path d="M69.9102 25.6101C69.9102 29.7514 72.6885 32.5035 76.8822 32.5035C81.0496 32.5035 83.828 29.7514 83.828 25.6101C83.828 21.4688 81.0496 18.6904 76.8822 18.6904C72.6885 18.6904 69.9102 21.4688 69.9102 25.6101ZM73.9728 25.5838C73.9728 23.6181 75.1261 22.3076 76.8822 22.3076C78.6121 22.3076 79.7654 23.6181 79.7654 25.5838C79.7654 27.576 78.6121 28.8865 76.8822 28.8865C75.1261 28.8865 73.9728 27.576 73.9728 25.5838Z" fill="#243A5A"/>
<path d="M84.4782 25.4001C84.4782 29.3578 87.0469 32.0313 90.6901 32.0313C92.4463 32.0313 93.9665 31.4022 94.7266 30.3801V32.1886C94.7266 33.9971 93.5995 35.2027 91.6075 35.2027C89.8252 35.2027 88.5933 34.3641 88.5147 32.8701H84.4258C84.7927 36.4609 87.5711 38.8722 91.3716 38.8722C95.8536 38.8722 98.6844 35.9629 98.6844 31.3498V19.0833H95.0411L94.8315 20.4199C94.0975 19.3453 92.5511 18.6377 90.7689 18.6377C87.0993 18.6377 84.4782 21.3898 84.4782 25.4001ZM88.5671 25.2952C88.5671 23.4079 89.8252 22.1499 91.4241 22.1499C93.285 22.1499 94.648 23.3818 94.648 25.2952C94.648 27.2086 93.3112 28.5191 91.4502 28.5191C89.8515 28.5191 88.5671 27.2086 88.5671 25.2952Z" fill="#243A5A"/>
<path d="M99.8613 25.6101C99.8613 29.7514 102.64 32.5035 106.833 32.5035C111.001 32.5035 113.779 29.7514 113.779 25.6101C113.779 21.4688 111.001 18.6904 106.833 18.6904C102.64 18.6904 99.8613 21.4688 99.8613 25.6101ZM103.924 25.5838C103.924 23.6181 105.077 22.3076 106.833 22.3076C108.563 22.3076 109.717 23.6181 109.717 25.5838C109.717 27.576 108.563 28.8865 106.833 28.8865C105.077 28.8865 103.924 27.576 103.924 25.5838Z" fill="#243A5A"/>
<path d="M117.26 17.039C118.518 17.039 119.54 16.0167 119.54 14.7325C119.54 13.4481 118.518 12.4521 117.26 12.4521C115.975 12.4521 114.953 13.4481 114.953 14.7325C114.953 16.0167 115.975 17.039 117.26 17.039ZM115.215 32.1888H119.278V19.0835H115.215V32.1888Z" fill="#243A5A"/>
<path d="M121.641 38.4793H125.625V30.8783C126.384 31.8743 128.115 32.5557 129.923 32.5557C133.828 32.5557 136.187 29.5677 136.083 25.4264C135.977 21.2065 133.54 18.6641 129.897 18.6641C128.035 18.6641 126.28 19.4766 125.545 20.6823L125.335 19.0835H121.641V38.4793ZM125.703 25.6361C125.703 23.6703 127.013 22.3598 128.901 22.3598C130.813 22.3598 132.019 23.6965 132.019 25.6361C132.019 27.5757 130.813 28.9124 128.901 28.9124C127.013 28.9124 125.703 27.6019 125.703 25.6361Z" fill="#243A5A"/>
<path d="M136.516 28.0475C136.62 30.6948 138.718 32.5295 142.02 32.5295C145.192 32.5295 147.394 30.852 147.394 28.1523C147.394 26.2128 146.24 24.9284 144.09 24.4041L141.758 23.8275C140.92 23.6179 140.395 23.4081 140.395 22.7267C140.395 22.0452 140.945 21.5996 141.758 21.5996C142.675 21.5996 143.278 22.2025 143.252 23.0936H146.896C146.79 20.3677 144.72 18.6641 141.836 18.6641C138.928 18.6641 136.752 20.394 136.752 23.015C136.752 24.7711 137.722 26.2128 140.316 26.8943L142.622 27.497C143.304 27.6805 143.592 27.995 143.592 28.4406C143.592 29.0959 142.99 29.5153 141.967 29.5153C140.788 29.5153 140.159 28.9649 140.159 28.0475H136.516Z" fill="#243A5A"/>
<path d="M153.569 32.5295C155.168 32.5295 156.767 31.7956 157.579 30.721L157.842 32.1888H161.642V19.0835H157.606V25.8983C157.606 27.864 157.03 28.9386 155.168 28.9386C153.726 28.9386 152.783 28.2834 152.783 25.8459V19.0835H148.746V27.3136C148.746 30.4327 150.476 32.5295 153.569 32.5295Z" fill="#243A5A"/>
<path d="M168.044 32.1886V25.0331C168.044 22.8313 169.223 22.2023 170.376 22.2023C171.66 22.2023 172.499 22.9887 172.499 24.6137V32.1886H176.483V25.0331C176.483 22.8052 177.636 22.1761 178.79 22.1761C180.074 22.1761 180.939 22.9624 180.939 24.6137V32.1886H184.871V23.6177C184.871 20.6297 183.298 18.6377 179.916 18.6377C178.03 18.6377 176.483 19.555 175.802 20.9704C175.016 19.555 173.652 18.6377 171.477 18.6377C170.036 18.6377 168.699 19.2929 167.913 20.3413L167.756 19.0833H163.98V32.1886H168.044Z" fill="#243A5A"/>
<path d="M0 24.4521C0 13.1384 0 7.48158 3.51472 3.96686C7.02943 0.452148 12.6863 0.452148 24 0.452148C35.3137 0.452148 40.9705 0.452148 44.4853 3.96686C48 7.48158 48 13.1384 48 24.4521C48 35.7659 48 41.4227 44.4853 44.9375C40.9705 48.4521 35.3137 48.4521 24 48.4521C12.6863 48.4521 7.02943 48.4521 3.51472 44.9375C0 41.4227 0 35.7659 0 24.4521Z" fill="#243A5A"/>
<path d="M28.8016 31.6523C29.4643 31.6523 30.0137 32.1949 29.8821 32.8444C29.6494 33.9916 29.0842 35.0549 28.2442 35.8949C27.1191 37.0202 25.5929 37.6523 24.0016 37.6523C22.4103 37.6523 20.8842 37.0202 19.759 35.8949C18.919 35.0549 18.3538 33.9916 18.1212 32.8444C17.9895 32.1949 18.5388 31.6523 19.2016 31.6523H28.8016Z" fill="#2DF8BB"/>
<path d="M31.3241 21.784C30.6839 21.9555 30.2918 22.6252 30.6164 23.203C30.9581 23.8112 31.4306 24.342 32.0055 24.7539C32.9082 25.4007 34.0071 25.7146 35.1153 25.6419C36.2234 25.5693 37.2721 25.1148 38.0826 24.3556C38.8932 23.5965 39.4153 22.5798 39.5603 21.4788C39.7052 20.3778 39.464 19.2606 38.8776 18.3175C38.2911 17.3745 37.3958 16.664 36.3443 16.307C35.2927 15.95 34.1499 15.9687 33.1106 16.3599C32.4487 16.609 31.8549 16.9994 31.3675 17.4984C30.9044 17.9725 31.1097 18.7209 31.6837 19.0522L32.2925 19.4037C33.2183 19.9383 33.0357 21.3254 32.003 21.6021L31.3241 21.784Z" fill="#2DF8BB"/>
<path d="M16.6777 21.784C17.3179 21.9555 17.7099 22.6252 17.3853 23.203C17.0437 23.8112 16.5711 24.342 15.9963 24.7539C15.0937 25.4007 13.9946 25.7146 12.8865 25.6419C11.7783 25.5693 10.7297 25.1148 9.91916 24.3556C9.10864 23.5965 8.58641 22.5798 8.44146 21.4788C8.29652 20.3778 8.5378 19.2606 9.12423 18.3175C9.71064 17.3745 10.6059 16.664 11.6575 16.307C12.709 15.95 13.8519 15.9687 14.8912 16.3599C15.553 16.609 16.1469 16.9994 16.6344 17.4984C17.0974 17.9725 16.892 18.7209 16.318 19.0522L15.7093 19.4037C14.7835 19.9383 14.9661 21.3254 15.9987 21.6021L16.6777 21.784Z" fill="#2DF8BB"/>
</g>
<defs>
<clipPath id="clip0_2032_144">
<rect width="186" height="48" fill="white" transform="translate(0 0.452148)"/>
</clipPath>
</defs>
</svg>
