<svg width="257" height="49" viewBox="0 0 257 49" fill="none" xmlns="http://www.w3.org/2000/svg">
<g clip-path="url(#clip0_2032_184)">
<path d="M101.537 9.87793H96.1641V34.1228H111.039V29.3722H101.537V9.87793Z" fill="#4845D2"/>
<path d="M111.551 25.8996C111.551 31.0763 115.024 34.5163 120.266 34.5163C125.475 34.5163 128.948 31.0763 128.948 25.8996C128.948 20.723 125.475 17.25 120.266 17.25C115.024 17.25 111.551 20.723 111.551 25.8996ZM116.629 25.8668C116.629 23.4096 118.071 21.7715 120.266 21.7715C122.428 21.7715 123.87 23.4096 123.87 25.8668C123.87 28.3569 122.428 29.9951 120.266 29.9951C118.071 29.9951 116.629 28.3569 116.629 25.8668Z" fill="#4845D2"/>
<path d="M129.761 25.6375C129.761 30.5847 132.972 33.9265 137.526 33.9265C139.721 33.9265 141.621 33.1402 142.571 31.8625V34.1232C142.571 36.3838 141.163 37.8909 138.673 37.8909C136.445 37.8909 134.905 36.8425 134.806 34.975H129.695C130.154 39.4636 133.627 42.4777 138.378 42.4777C143.98 42.4777 147.519 38.8411 147.519 33.0747V17.7415H142.964L142.702 19.4124C141.785 18.0691 139.852 17.1846 137.624 17.1846C133.037 17.1846 129.761 20.6247 129.761 25.6375ZM134.872 25.5064C134.872 23.1474 136.445 21.5748 138.443 21.5748C140.769 21.5748 142.473 23.1147 142.473 25.5064C142.473 27.8982 140.802 29.5363 138.476 29.5363C136.477 29.5363 134.872 27.8982 134.872 25.5064Z" fill="#4845D2"/>
<path d="M148.988 25.8996C148.988 31.0763 152.461 34.5163 157.704 34.5163C162.913 34.5163 166.386 31.0763 166.386 25.8996C166.386 20.723 162.913 17.25 157.704 17.25C152.461 17.25 148.988 20.723 148.988 25.8996ZM154.066 25.8668C154.066 23.4096 155.508 21.7715 157.704 21.7715C159.865 21.7715 161.307 23.4096 161.307 25.8668C161.307 28.3569 159.865 29.9951 157.704 29.9951C155.508 29.9951 154.066 28.3569 154.066 25.8668Z" fill="#4845D2"/>
<path d="M170.737 15.1857C172.309 15.1857 173.587 13.908 173.587 12.3026C173.587 10.6971 172.309 9.45215 170.737 9.45215C169.132 9.45215 167.854 10.6971 167.854 12.3026C167.854 13.908 169.132 15.1857 170.737 15.1857ZM168.181 34.1229H173.26V17.7413H168.181V34.1229Z" fill="#4845D2"/>
<path d="M176.215 41.9858H181.195V32.4845C182.144 33.7295 184.307 34.5814 186.568 34.5814C191.449 34.5814 194.398 30.8464 194.267 25.6697C194.135 20.3948 191.089 17.2168 186.535 17.2168C184.208 17.2168 182.014 18.2324 181.096 19.7396L180.833 17.741H176.215V41.9858ZM181.292 25.9318C181.292 23.4746 182.93 21.8365 185.29 21.8365C187.681 21.8365 189.188 23.5073 189.188 25.9318C189.188 28.3564 187.681 30.0272 185.29 30.0272C182.93 30.0272 181.292 28.3891 181.292 25.9318Z" fill="#4845D2"/>
<path d="M194.807 28.946C194.937 32.2552 197.559 34.5485 201.687 34.5485C205.652 34.5485 208.404 32.4517 208.404 29.0771C208.404 26.6527 206.963 25.0472 204.275 24.3919L201.36 23.6711C200.312 23.4091 199.656 23.1469 199.656 22.295C199.656 21.4432 200.343 20.8862 201.36 20.8862C202.506 20.8862 203.259 21.6398 203.228 22.7537H207.782C207.65 19.3463 205.062 17.2168 201.458 17.2168C197.822 17.2168 195.102 19.3792 195.102 22.6555C195.102 24.8506 196.314 26.6527 199.557 27.5045L202.44 28.258C203.292 28.4873 203.652 28.8805 203.652 29.4374C203.652 30.2566 202.899 30.7808 201.621 30.7808C200.147 30.7808 199.361 30.0928 199.361 28.946H194.807Z" fill="#4845D2"/>
<path d="M216.126 34.5487C218.126 34.5487 220.124 33.6313 221.139 32.2881L221.468 34.1229H226.218V17.7412H221.172V26.2597C221.172 28.7169 220.452 30.0601 218.126 30.0601C216.323 30.0601 215.144 29.2411 215.144 26.1942V17.7412H210.098V28.0288C210.098 31.9278 212.261 34.5487 216.126 34.5487Z" fill="#4845D2"/>
<path d="M234.22 34.1232V25.1788C234.22 22.4266 235.694 21.6403 237.136 21.6403C238.741 21.6403 239.789 22.6233 239.789 24.6546V34.1232H244.769V25.1788C244.769 22.3939 246.211 21.6076 247.652 21.6076C249.257 21.6076 250.339 22.5904 250.339 24.6546V34.1232H255.254V23.4096C255.254 19.6746 253.288 17.1846 249.061 17.1846C246.703 17.1846 244.769 18.3312 243.917 20.1004C242.935 18.3312 241.231 17.1846 238.511 17.1846C236.71 17.1846 235.039 18.0036 234.056 19.3141L233.86 17.7415H229.141V34.1232H234.22Z" fill="#4845D2"/>
<path d="M0.164062 24.4521C0.164062 11.1973 10.9092 0.452148 24.1641 0.452148H55.6641C68.919 0.452148 79.6641 11.1973 79.6641 24.4521V48.4521H24.1641C10.9092 48.4521 0.164062 37.7071 0.164062 24.4521Z" fill="#4845D2"/>
<path d="M55.6641 9.45215H24.1641C15.8798 9.45215 9.16406 16.1679 9.16406 24.4521C9.16406 32.7364 15.8798 39.4521 24.1641 39.4521H55.6641C63.9483 39.4521 70.6641 32.7364 70.6641 24.4521C70.6641 16.1679 63.9483 9.45215 55.6641 9.45215Z" fill="#A5B4FC"/>
<path d="M24.1641 31.9521C28.3062 31.9521 31.6641 28.5943 31.6641 24.4521C31.6641 20.31 28.3062 16.9521 24.1641 16.9521C20.0219 16.9521 16.6641 20.31 16.6641 24.4521C16.6641 28.5943 20.0219 31.9521 24.1641 31.9521Z" fill="black"/>
<path d="M21.1641 22.9521C21.9925 22.9521 22.6641 22.2806 22.6641 21.4521C22.6641 20.6237 21.9925 19.9521 21.1641 19.9521C20.3356 19.9521 19.6641 20.6237 19.6641 21.4521C19.6641 22.2806 20.3356 22.9521 21.1641 22.9521Z" fill="white"/>
<path d="M57.1641 31.9521C61.3062 31.9521 64.6641 28.5943 64.6641 24.4521C64.6641 20.31 61.3062 16.9521 57.1641 16.9521C53.0219 16.9521 49.6641 20.31 49.6641 24.4521C49.6641 28.5943 53.0219 31.9521 57.1641 31.9521Z" fill="black"/>
<path d="M54.1641 22.9521C54.9925 22.9521 55.6641 22.2806 55.6641 21.4521C55.6641 20.6237 54.9925 19.9521 54.1641 19.9521C53.3356 19.9521 52.6641 20.6237 52.6641 21.4521C52.6641 22.2806 53.3356 22.9521 54.1641 22.9521Z" fill="white"/>
</g>
<defs>
<clipPath id="clip0_2032_184">
<rect width="256.5" height="48" fill="white" transform="translate(0.164062 0.452148)"/>
</clipPath>
</defs>
</svg>
