<svg width="717" height="324" viewBox="0 0 717 324" fill="none" xmlns="http://www.w3.org/2000/svg">
<path d="M416.085 109H409.029V91H415.245C419.613 91 422.037 92.992 422.037 95.656C422.037 97.768 420.861 99.256 418.389 99.256V99.928C421.485 99.928 422.877 101.44 422.877 104.056C422.877 106.936 420.453 109 416.085 109ZM411.813 106.432H416.085C418.533 106.432 419.997 105.424 419.997 103.72C419.997 101.704 418.533 100.984 416.085 100.984H411.813V106.432ZM411.813 98.44H415.245C417.693 98.44 419.157 97.552 419.157 95.992C419.157 94.432 417.693 93.568 415.245 93.568H411.813V98.44ZM425.623 91H432.703C437.071 91 439.519 93.064 439.519 96.664C439.519 100.336 437.287 101.44 435.775 101.44C435.247 101.44 434.839 101.32 434.455 101.224L434.287 101.896C435.799 102.136 436.519 103.408 437.743 105.52L439.759 109H436.807L432.943 102.328H428.431V109H425.623V91ZM432.703 93.568H428.431V99.784H432.703C435.151 99.784 436.615 98.728 436.615 96.664C436.615 94.6 435.151 93.568 432.703 93.568ZM441.658 109L448.45 91H451.234L458.002 109H455.05L453.586 104.992H446.074L444.61 109H441.658ZM448.906 97.336L447.01 102.424H452.674L450.778 97.336C450.466 96.52 450.178 95.68 450.178 94.792V94.144H449.482V94.792C449.482 95.68 449.218 96.52 448.906 97.336ZM460.334 91H463.31L469.406 100.6C470.342 102.064 470.894 103.168 471.23 104.32L471.902 104.128C471.494 102.832 471.182 101.488 471.182 99.232V91H474.062V109H471.086L464.99 99.4C464.03 97.864 463.478 96.784 463.142 95.656L462.47 95.824C462.878 97.12 463.214 98.464 463.214 100.744V109H460.334V91ZM483.688 109H477.232V91H483.688C489.208 91 492.28 94.36 492.28 100C492.28 105.64 489.208 109 483.688 109ZM480.04 93.568V106.432H483.688C487.288 106.432 489.4 104.2 489.4 100C489.4 95.8 487.288 93.568 483.688 93.568H480.04ZM494.998 109V91H497.806V109H494.998ZM500.975 91H503.951L510.047 100.6C510.983 102.064 511.535 103.168 511.871 104.32L512.543 104.128C512.135 102.832 511.823 101.488 511.823 99.232V91H514.703V109H511.727L505.631 99.4C504.671 97.864 504.119 96.784 503.783 95.656L503.111 95.824C503.519 97.12 503.855 98.464 503.855 100.744V109H500.975V91ZM517.633 100C517.633 94.12 520.753 90.76 526.753 90.76C531.721 90.76 534.481 93.88 534.889 96.688L531.937 96.856C531.625 95.224 529.825 93.328 526.753 93.328C522.673 93.328 520.585 95.56 520.585 100C520.585 104.44 522.673 106.672 526.417 106.672C529.273 106.672 531.361 105.232 531.937 102.664H527.113V100.456H535.369V108.712H533.065V107.68C533.065 106.384 533.305 105.616 533.833 104.392L533.161 104.2C532.129 107.536 529.609 109.24 526.153 109.24C520.753 109.24 517.633 105.88 517.633 100ZM538.359 109H537.447V106.432H540.015V109L538.935 111.16H537.615L538.359 109ZM551.501 109H548.693V91H554.573C558.941 91 561.389 93.064 561.389 96.664C561.389 100.288 558.941 102.328 554.573 102.328H551.501V109ZM551.501 93.568V99.784H554.573C557.021 99.784 558.485 98.728 558.485 96.664C558.485 94.6 557.021 93.568 554.573 93.568H551.501ZM563.875 100C563.875 94.12 566.995 90.76 572.515 90.76C578.011 90.76 581.131 94.12 581.131 100C581.131 105.88 578.011 109.24 572.515 109.24C566.995 109.24 563.875 105.88 563.875 100ZM566.827 100C566.827 104.44 568.915 106.672 572.515 106.672C576.115 106.672 578.179 104.44 578.179 100C578.179 95.56 576.115 93.328 572.515 93.328C568.915 93.328 566.827 95.56 566.827 100ZM583.221 103.456H586.173C586.173 105.208 588.045 106.672 590.781 106.672C593.517 106.672 595.365 105.688 595.365 103.888C595.365 99.256 583.749 102.832 583.749 95.872C583.749 92.872 586.125 90.616 590.781 90.616C595.413 90.616 597.741 93.184 597.789 96.064H594.837C594.837 94.648 593.517 93.16 590.781 93.16C588.045 93.16 586.701 94.216 586.701 95.872C586.701 100.024 598.317 96.448 598.317 103.888C598.317 107.032 595.413 109.24 590.781 109.24C586.125 109.24 583.269 106.648 583.221 103.456ZM600.654 109V91H603.462V109H600.654ZM605.322 91H620.178V93.472H614.154V109H611.346V93.472H605.322V91ZM622.264 109V91H625.072V109H622.264ZM628 100C628 94.12 631.12 90.76 636.64 90.76C642.136 90.76 645.256 94.12 645.256 100C645.256 105.88 642.136 109.24 636.64 109.24C631.12 109.24 628 105.88 628 100ZM630.952 100C630.952 104.44 633.04 106.672 636.64 106.672C640.24 106.672 642.304 104.44 642.304 100C642.304 95.56 640.24 93.328 636.64 93.328C633.04 93.328 630.952 95.56 630.952 100ZM647.951 91H650.927L657.023 100.6C657.959 102.064 658.511 103.168 658.847 104.32L659.519 104.128C659.111 102.832 658.799 101.488 658.799 99.232V91H661.679V109H658.703L652.607 99.4C651.647 97.864 651.095 96.784 650.759 95.656L650.087 95.824C650.495 97.12 650.831 98.464 650.831 100.744V109H647.951V91ZM664.85 109V91H667.658V109H664.85ZM670.826 91H673.802L679.898 100.6C680.834 102.064 681.386 103.168 681.722 104.32L682.394 104.128C681.986 102.832 681.674 101.488 681.674 99.232V91H684.554V109H681.578L675.482 99.4C674.522 97.864 673.97 96.784 673.634 95.656L672.962 95.824C673.37 97.12 673.706 98.464 673.706 100.744V109H670.826V91ZM687.485 100C687.485 94.12 690.605 90.76 696.605 90.76C701.573 90.76 704.333 93.88 704.741 96.688L701.789 96.856C701.477 95.224 699.677 93.328 696.605 93.328C692.525 93.328 690.437 95.56 690.437 100C690.437 104.44 692.525 106.672 696.269 106.672C699.125 106.672 701.213 105.232 701.789 102.664H696.965V100.456H705.221V108.712H702.917V107.68C702.917 106.384 703.157 105.616 703.685 104.392L703.013 104.2C701.981 107.536 699.461 109.24 696.005 109.24C690.605 109.24 687.485 105.88 687.485 100ZM463.631 137L470.423 119H473.207L479.975 137H477.023L475.559 132.992H468.047L466.583 137H463.631ZM470.879 125.336L468.983 130.424H474.647L472.751 125.336C472.439 124.52 472.151 123.68 472.151 122.792V122.144H471.455V122.792C471.455 123.68 471.191 124.52 470.879 125.336ZM482.307 119H485.283L491.379 128.6C492.315 130.064 492.867 131.168 493.203 132.32L493.875 132.128C493.467 130.832 493.155 129.488 493.155 127.232V119H496.035V137H493.059L486.963 127.4C486.003 125.864 485.451 124.784 485.115 123.656L484.443 123.824C484.851 125.12 485.187 126.464 485.187 128.744V137H482.307V119ZM505.661 137H499.205V119H505.661C511.181 119 514.253 122.36 514.253 128C514.253 133.64 511.181 137 505.661 137ZM502.013 121.568V134.432H505.661C509.261 134.432 511.373 132.2 511.373 128C511.373 123.8 509.261 121.568 505.661 121.568H502.013ZM522.717 131.456H525.669C525.669 133.208 527.541 134.672 530.277 134.672C533.013 134.672 534.861 133.688 534.861 131.888C534.861 127.256 523.245 130.832 523.245 123.872C523.245 120.872 525.621 118.616 530.277 118.616C534.909 118.616 537.237 121.184 537.285 124.064H534.333C534.333 122.648 533.013 121.16 530.277 121.16C527.541 121.16 526.197 122.216 526.197 123.872C526.197 128.024 537.813 124.448 537.813 131.888C537.813 135.032 534.909 137.24 530.277 137.24C525.621 137.24 522.765 134.648 522.717 131.456ZM538.115 119H552.971V121.472H546.947V137H544.139V121.472H538.115V119ZM555.057 119H562.137C566.505 119 568.953 121.064 568.953 124.664C568.953 128.336 566.721 129.44 565.209 129.44C564.681 129.44 564.273 129.32 563.889 129.224L563.721 129.896C565.233 130.136 565.953 131.408 567.177 133.52L569.193 137H566.241L562.377 130.328H557.865V137H555.057V119ZM562.137 121.568H557.865V127.784H562.137C564.585 127.784 566.049 126.728 566.049 124.664C566.049 122.6 564.585 121.568 562.137 121.568ZM571.092 137L577.884 119H580.668L587.436 137H584.484L583.02 132.992H575.508L574.044 137H571.092ZM578.34 125.336L576.444 130.424H582.108L580.212 125.336C579.9 124.52 579.612 123.68 579.612 122.792V122.144H578.916V122.792C578.916 123.68 578.652 124.52 578.34 125.336ZM585.81 119H600.666V121.472H594.642V137H591.834V121.472H585.81V119ZM615.112 137H602.752V119H615.112V121.568H605.56V126.704H614.392V129.272H605.56V134.432H615.112V137ZM616.879 128C616.879 122.12 619.999 118.76 625.999 118.76C630.967 118.76 633.727 121.88 634.135 124.688L631.183 124.856C630.871 123.224 629.071 121.328 625.999 121.328C621.919 121.328 619.831 123.56 619.831 128C619.831 132.44 621.919 134.672 625.663 134.672C628.519 134.672 630.607 133.232 631.183 130.664H626.359V128.456H634.615V136.712H632.311V135.68C632.311 134.384 632.551 133.616 633.079 132.392L632.407 132.2C631.375 135.536 628.855 137.24 625.399 137.24C619.999 137.24 616.879 133.88 616.879 128ZM635.123 119H638.051L641.171 124.04C641.723 124.928 642.395 126.248 642.395 127.376V127.856H643.091V127.376C643.091 126.248 643.787 124.88 644.315 124.04L647.435 119H650.363L644.123 128.96V137H641.363V128.96L635.123 119Z" fill="#0A35A0"/>
<path d="M215.908 30L222.7 12H225.484L232.252 30H229.3L227.836 25.992H220.324L218.86 30H215.908ZM223.156 18.336L221.26 23.424H226.924L225.028 18.336C224.716 17.52 224.428 16.68 224.428 15.792V15.144H223.732V15.792C223.732 16.68 223.468 17.52 223.156 18.336ZM234.584 12H237.56L243.656 21.6C244.592 23.064 245.144 24.168 245.48 25.32L246.152 25.128C245.744 23.832 245.432 22.488 245.432 20.232V12H248.312V30H245.336L239.24 20.4C238.28 18.864 237.728 17.784 237.392 16.656L236.72 16.824C237.128 18.12 237.464 19.464 237.464 21.744V30H234.584V12ZM250.408 30L257.2 12H259.984L266.752 30H263.8L262.336 25.992H254.824L253.36 30H250.408ZM257.656 18.336L255.76 23.424H261.424L259.528 18.336C259.216 17.52 258.928 16.68 258.928 15.792V15.144H258.232V15.792C258.232 16.68 257.968 17.52 257.656 18.336ZM269.084 12H271.892V27.48H280.484V30H269.084V12ZM279.142 12H282.07L285.19 17.04C285.742 17.928 286.414 19.248 286.414 20.376V20.856H287.11V20.376C287.11 19.248 287.806 17.88 288.334 17.04L291.454 12H294.382L288.142 21.96V30H285.382V21.96L279.142 12ZM295.15 24.456H298.102C298.102 26.208 299.974 27.672 302.71 27.672C305.446 27.672 307.294 26.688 307.294 24.888C307.294 20.256 295.678 23.832 295.678 16.872C295.678 13.872 298.054 11.616 302.71 11.616C307.342 11.616 309.67 14.184 309.718 17.064H306.766C306.766 15.648 305.446 14.16 302.71 14.16C299.974 14.16 298.63 15.216 298.63 16.872C298.63 21.024 310.246 17.448 310.246 24.888C310.246 28.032 307.342 30.24 302.71 30.24C298.054 30.24 295.198 27.648 295.15 24.456ZM312.584 30V12H315.392V30H312.584ZM317.721 24.456H320.673C320.673 26.208 322.545 27.672 325.281 27.672C328.017 27.672 329.865 26.688 329.865 24.888C329.865 20.256 318.249 23.832 318.249 16.872C318.249 13.872 320.625 11.616 325.281 11.616C329.913 11.616 332.241 14.184 332.289 17.064H329.337C329.337 15.648 328.017 14.16 325.281 14.16C322.545 14.16 321.201 15.216 321.201 16.872C321.201 21.024 332.817 17.448 332.817 24.888C332.817 28.032 329.913 30.24 325.281 30.24C320.625 30.24 317.769 27.648 317.721 24.456ZM341.266 21C341.266 15.12 344.386 11.76 349.906 11.76C355.402 11.76 358.522 15.12 358.522 21C358.522 26.88 355.402 30.24 349.906 30.24C344.386 30.24 341.266 26.88 341.266 21ZM344.218 21C344.218 25.44 346.306 27.672 349.906 27.672C353.506 27.672 355.57 25.44 355.57 21C355.57 16.56 353.506 14.328 349.906 14.328C346.306 14.328 344.218 16.56 344.218 21ZM364.025 30H361.217V12H373.577V14.568H364.025V19.8H372.857V22.368H364.025V30ZM389.718 30H382.662V12H388.878C393.246 12 395.67 13.992 395.67 16.656C395.67 18.768 394.494 20.256 392.022 20.256V20.928C395.118 20.928 396.51 22.44 396.51 25.056C396.51 27.936 394.086 30 389.718 30ZM385.446 27.432H389.718C392.166 27.432 393.63 26.424 393.63 24.72C393.63 22.704 392.166 21.984 389.718 21.984H385.446V27.432ZM385.446 19.44H388.878C391.326 19.44 392.79 18.552 392.79 16.992C392.79 15.432 391.326 14.568 388.878 14.568H385.446V19.44ZM398.787 21.96V12H401.595V21.96C401.595 25.824 403.011 27.672 406.155 27.672C409.275 27.672 410.691 25.824 410.691 21.96V12H413.499V21.96C413.499 27.264 411.171 30.24 406.155 30.24C401.115 30.24 398.787 27.264 398.787 21.96ZM415.83 24.456H418.782C418.782 26.208 420.654 27.672 423.39 27.672C426.126 27.672 427.974 26.688 427.974 24.888C427.974 20.256 416.358 23.832 416.358 16.872C416.358 13.872 418.734 11.616 423.39 11.616C428.022 11.616 430.35 14.184 430.398 17.064H427.446C427.446 15.648 426.126 14.16 423.39 14.16C420.654 14.16 419.31 15.216 419.31 16.872C419.31 21.024 430.926 17.448 430.926 24.888C430.926 28.032 428.022 30.24 423.39 30.24C418.734 30.24 415.878 27.648 415.83 24.456ZM433.264 30V12H436.072V30H433.264ZM439.24 12H442.216L448.312 21.6C449.248 23.064 449.8 24.168 450.136 25.32L450.808 25.128C450.4 23.832 450.088 22.488 450.088 20.232V12H452.968V30H449.992L443.896 20.4C442.936 18.864 442.384 17.784 442.048 16.656L441.376 16.824C441.784 18.12 442.12 19.464 442.12 21.744V30H439.24V12ZM468.499 30H456.139V12H468.499V14.568H458.947V19.704H467.779V22.272H458.947V27.432H468.499V30ZM470.392 24.456H473.344C473.344 26.208 475.216 27.672 477.952 27.672C480.688 27.672 482.536 26.688 482.536 24.888C482.536 20.256 470.92 23.832 470.92 16.872C470.92 13.872 473.296 11.616 477.952 11.616C482.584 11.616 484.912 14.184 484.96 17.064H482.008C482.008 15.648 480.688 14.16 477.952 14.16C475.216 14.16 473.872 15.216 473.872 16.872C473.872 21.024 485.488 17.448 485.488 24.888C485.488 28.032 482.584 30.24 477.952 30.24C473.296 30.24 470.44 27.648 470.392 24.456ZM486.986 24.456H489.938C489.938 26.208 491.81 27.672 494.546 27.672C497.282 27.672 499.13 26.688 499.13 24.888C499.13 20.256 487.514 23.832 487.514 16.872C487.514 13.872 489.89 11.616 494.546 11.616C499.178 11.616 501.506 14.184 501.554 17.064H498.602C498.602 15.648 497.282 14.16 494.546 14.16C491.81 14.16 490.466 15.216 490.466 16.872C490.466 21.024 502.082 17.448 502.082 24.888C502.082 28.032 499.178 30.24 494.546 30.24C489.89 30.24 487.034 27.648 486.986 24.456ZM224.242 49C224.242 43.12 227.362 39.76 233.362 39.76C238.33 39.76 241.09 42.88 241.498 45.688L238.546 45.856C238.234 44.224 236.434 42.328 233.362 42.328C229.282 42.328 227.194 44.56 227.194 49C227.194 53.44 229.282 55.672 233.026 55.672C235.882 55.672 237.97 54.232 238.546 51.664H233.722V49.456H241.978V57.712H239.674V56.68C239.674 55.384 239.914 54.616 240.442 53.392L239.77 53.2C238.738 56.536 236.218 58.24 232.762 58.24C227.362 58.24 224.242 54.88 224.242 49ZM244.657 49C244.657 43.12 247.777 39.76 253.297 39.76C258.793 39.76 261.913 43.12 261.913 49C261.913 54.88 258.793 58.24 253.297 58.24C247.777 58.24 244.657 54.88 244.657 49ZM247.609 49C247.609 53.44 249.697 55.672 253.297 55.672C256.897 55.672 258.961 53.44 258.961 49C258.961 44.56 256.897 42.328 253.297 42.328C249.697 42.328 247.609 44.56 247.609 49ZM263.275 58L270.067 40H272.851L279.619 58H276.667L275.203 53.992H267.691L266.227 58H263.275ZM270.523 46.336L268.627 51.424H274.291L272.395 46.336C272.083 45.52 271.795 44.68 271.795 43.792V43.144H271.099V43.792C271.099 44.68 270.835 45.52 270.523 46.336ZM281.951 40H284.759V55.48H293.351V58H281.951V40ZM294.892 52.456H297.844C297.844 54.208 299.716 55.672 302.452 55.672C305.188 55.672 307.036 54.688 307.036 52.888C307.036 48.256 295.42 51.832 295.42 44.872C295.42 41.872 297.796 39.616 302.452 39.616C307.084 39.616 309.412 42.184 309.46 45.064H306.508C306.508 43.648 305.188 42.16 302.452 42.16C299.716 42.16 298.372 43.216 298.372 44.872C298.372 49.024 309.988 45.448 309.988 52.888C309.988 56.032 307.084 58.24 302.452 58.24C297.796 58.24 294.94 55.648 294.892 52.456ZM317.838 58L324.63 40H327.414L334.182 58H331.23L329.766 53.992H322.254L320.79 58H317.838ZM325.086 46.336L323.19 51.424H328.854L326.958 46.336C326.646 45.52 326.358 44.68 326.358 43.792V43.144H325.662V43.792C325.662 44.68 325.398 45.52 325.086 46.336ZM336.514 40H339.49L345.586 49.6C346.522 51.064 347.074 52.168 347.41 53.32L348.082 53.128C347.674 51.832 347.362 50.488 347.362 48.232V40H350.242V58H347.266L341.17 48.4C340.21 46.864 339.658 45.784 339.322 44.656L338.65 44.824C339.058 46.12 339.394 47.464 339.394 49.744V58H336.514V40ZM359.868 58H353.412V40H359.868C365.388 40 368.46 43.36 368.46 49C368.46 54.64 365.388 58 359.868 58ZM356.22 42.568V55.432H359.868C363.468 55.432 365.58 53.2 365.58 49C365.58 44.8 363.468 42.568 359.868 42.568H356.22ZM380.572 58H377.764V40H383.644C388.012 40 390.46 42.064 390.46 45.664C390.46 49.288 388.012 51.328 383.644 51.328H380.572V58ZM380.572 42.568V48.784H383.644C386.092 48.784 387.556 47.728 387.556 45.664C387.556 43.6 386.092 42.568 383.644 42.568H380.572ZM392.576 40H399.656C404.024 40 406.472 42.064 406.472 45.664C406.472 49.336 404.24 50.44 402.728 50.44C402.2 50.44 401.792 50.32 401.408 50.224L401.24 50.896C402.752 51.136 403.472 52.408 404.696 54.52L406.712 58H403.76L399.896 51.328H395.384V58H392.576V40ZM399.656 42.568H395.384V48.784H399.656C402.104 48.784 403.568 47.728 403.568 45.664C403.568 43.6 402.104 42.568 399.656 42.568ZM408.742 49C408.742 43.12 411.862 39.76 417.382 39.76C422.878 39.76 425.998 43.12 425.998 49C425.998 54.88 422.878 58.24 417.382 58.24C411.862 58.24 408.742 54.88 408.742 49ZM411.694 49C411.694 53.44 413.782 55.672 417.382 55.672C420.982 55.672 423.046 53.44 423.046 49C423.046 44.56 420.982 42.328 417.382 42.328C413.782 42.328 411.694 44.56 411.694 49ZM437.328 58.24C431.808 58.24 428.688 54.88 428.688 49C428.688 43.12 431.808 39.76 437.328 39.76C441.96 39.76 444.912 42.136 445.488 46.408H442.464C442.032 43.696 440.136 42.328 437.328 42.328C433.728 42.328 431.64 44.56 431.64 49C431.64 53.44 433.728 55.672 437.328 55.672C440.136 55.672 442.008 54.304 442.464 51.592H445.488C444.912 55.864 441.96 58.24 437.328 58.24ZM460.764 58H448.404V40H460.764V42.568H451.212V47.704H460.044V50.272H451.212V55.432H460.764V58ZM462.658 52.456H465.61C465.61 54.208 467.482 55.672 470.218 55.672C472.954 55.672 474.802 54.688 474.802 52.888C474.802 48.256 463.186 51.832 463.186 44.872C463.186 41.872 465.562 39.616 470.218 39.616C474.85 39.616 477.178 42.184 477.226 45.064H474.274C474.274 43.648 472.954 42.16 470.218 42.16C467.482 42.16 466.138 43.216 466.138 44.872C466.138 49.024 477.754 45.448 477.754 52.888C477.754 56.032 474.85 58.24 470.218 58.24C465.562 58.24 462.706 55.648 462.658 52.456ZM479.252 52.456H482.204C482.204 54.208 484.076 55.672 486.812 55.672C489.548 55.672 491.396 54.688 491.396 52.888C491.396 48.256 479.78 51.832 479.78 44.872C479.78 41.872 482.156 39.616 486.812 39.616C491.444 39.616 493.772 42.184 493.82 45.064H490.868C490.868 43.648 489.548 42.16 486.812 42.16C484.076 42.16 482.732 43.216 482.732 44.872C482.732 49.024 494.348 45.448 494.348 52.888C494.348 56.032 491.444 58.24 486.812 58.24C482.156 58.24 479.3 55.648 479.252 52.456Z" fill="#0A35A0"/>
<path d="M47.2792 185H50.2312L54.4072 196.64C54.7192 197.48 54.8632 198.32 54.8632 199.208V199.856H55.5592V199.208C55.5592 198.32 55.7512 197.408 56.0152 196.64L60.1912 185H63.1432L56.6152 203H53.8312L47.2792 185ZM65.2285 203V185H68.0365V203H65.2285ZM77.6611 203H71.2051V185H77.6611C83.1811 185 86.2531 188.36 86.2531 194C86.2531 199.64 83.1811 203 77.6611 203ZM74.0131 187.568V200.432H77.6611C81.2611 200.432 83.3731 198.2 83.3731 194C83.3731 189.8 81.2611 187.568 77.6611 187.568H74.0131ZM101.331 203H88.9707V185H101.331V187.568H91.7787V192.704H100.611V195.272H91.7787V200.432H101.331V203ZM102.629 194C102.629 188.12 105.749 184.76 111.269 184.76C116.765 184.76 119.885 188.12 119.885 194C119.885 199.88 116.765 203.24 111.269 203.24C105.749 203.24 102.629 199.88 102.629 194ZM105.581 194C105.581 198.44 107.669 200.672 111.269 200.672C114.869 200.672 116.933 198.44 116.933 194C116.933 189.56 114.869 187.328 111.269 187.328C107.669 187.328 105.581 189.56 105.581 194ZM128.326 203L135.118 185H137.902L144.67 203H141.718L140.254 198.992H132.742L131.278 203H128.326ZM135.574 191.336L133.678 196.424H139.342L137.446 191.336C137.134 190.52 136.846 189.68 136.846 188.792V188.144H136.15V188.792C136.15 189.68 135.886 190.52 135.574 191.336ZM147.002 185H149.978L156.074 194.6C157.01 196.064 157.562 197.168 157.898 198.32L158.57 198.128C158.162 196.832 157.85 195.488 157.85 193.232V185H160.73V203H157.754L151.658 193.4C150.698 191.864 150.146 190.784 149.81 189.656L149.138 189.824C149.546 191.12 149.882 192.464 149.882 194.744V203H147.002V185ZM170.356 203H163.9V185H170.356C175.876 185 178.948 188.36 178.948 194C178.948 199.64 175.876 203 170.356 203ZM166.708 187.568V200.432H170.356C173.956 200.432 176.068 198.2 176.068 194C176.068 189.8 173.956 187.568 170.356 187.568H166.708ZM191.06 203H188.252V185H194.132C198.5 185 200.948 187.064 200.948 190.664C200.948 194.288 198.5 196.328 194.132 196.328H191.06V203ZM191.06 187.568V193.784H194.132C196.58 193.784 198.044 192.728 198.044 190.664C198.044 188.6 196.58 187.568 194.132 187.568H191.06ZM205.872 203H203.064V185H205.872V192.44H214.2V185H217.008V203H214.2V195.008H205.872V203ZM219.934 194C219.934 188.12 223.054 184.76 228.574 184.76C234.07 184.76 237.19 188.12 237.19 194C237.19 199.88 234.07 203.24 228.574 203.24C223.054 203.24 219.934 199.88 219.934 194ZM222.886 194C222.886 198.44 224.974 200.672 228.574 200.672C232.174 200.672 234.238 198.44 234.238 194C234.238 189.56 232.174 187.328 228.574 187.328C224.974 187.328 222.886 189.56 222.886 194ZM237.849 185H252.705V187.472H246.681V203H243.873V187.472H237.849V185ZM252.864 194C252.864 188.12 255.984 184.76 261.504 184.76C267 184.76 270.12 188.12 270.12 194C270.12 199.88 267 203.24 261.504 203.24C255.984 203.24 252.864 199.88 252.864 194ZM255.816 194C255.816 198.44 257.904 200.672 261.504 200.672C265.104 200.672 267.168 198.44 267.168 194C267.168 189.56 265.104 187.328 261.504 187.328C257.904 187.328 255.816 189.56 255.816 194ZM80.9037 231H78.0957V213H83.9757C88.3437 213 90.7917 215.064 90.7917 218.664C90.7917 222.288 88.3437 224.328 83.9757 224.328H80.9037V231ZM80.9037 215.568V221.784H83.9757C86.4237 221.784 87.8877 220.728 87.8877 218.664C87.8877 216.6 86.4237 215.568 83.9757 215.568H80.9037ZM92.9082 213H99.9882C104.356 213 106.804 215.064 106.804 218.664C106.804 222.336 104.572 223.44 103.06 223.44C102.532 223.44 102.124 223.32 101.74 223.224L101.572 223.896C103.084 224.136 103.804 225.408 105.028 227.52L107.044 231H104.092L100.228 224.328H95.7162V231H92.9082V213ZM99.9882 215.568H95.7162V221.784H99.9882C102.436 221.784 103.9 220.728 103.9 218.664C103.9 216.6 102.436 215.568 99.9882 215.568ZM109.074 222C109.074 216.12 112.194 212.76 117.714 212.76C123.21 212.76 126.33 216.12 126.33 222C126.33 227.88 123.21 231.24 117.714 231.24C112.194 231.24 109.074 227.88 109.074 222ZM112.026 222C112.026 226.44 114.114 228.672 117.714 228.672C121.314 228.672 123.378 226.44 123.378 222C123.378 217.56 121.314 215.328 117.714 215.328C114.114 215.328 112.026 217.56 112.026 222ZM135.481 231H129.025V213H135.481C141.001 213 144.073 216.36 144.073 222C144.073 227.64 141.001 231 135.481 231ZM131.833 215.568V228.432H135.481C139.081 228.432 141.193 226.2 141.193 222C141.193 217.8 139.081 215.568 135.481 215.568H131.833ZM147.025 222.96V213H149.833V222.96C149.833 226.824 151.249 228.672 154.393 228.672C157.513 228.672 158.929 226.824 158.929 222.96V213H161.737V222.96C161.737 228.264 159.409 231.24 154.393 231.24C149.353 231.24 147.025 228.264 147.025 222.96ZM173.308 231.24C167.788 231.24 164.668 227.88 164.668 222C164.668 216.12 167.788 212.76 173.308 212.76C177.94 212.76 180.892 215.136 181.468 219.408H178.444C178.012 216.696 176.116 215.328 173.308 215.328C169.708 215.328 167.62 217.56 167.62 222C167.62 226.44 169.708 228.672 173.308 228.672C176.116 228.672 177.988 227.304 178.444 224.592H181.468C180.892 228.864 177.94 231.24 173.308 231.24ZM183.545 213H198.401V215.472H192.377V231H189.569V215.472H183.545V213ZM200.486 231V213H203.294V231H200.486ZM206.223 222C206.223 216.12 209.343 212.76 214.863 212.76C220.359 212.76 223.479 216.12 223.479 222C223.479 227.88 220.359 231.24 214.863 231.24C209.343 231.24 206.223 227.88 206.223 222ZM209.175 222C209.175 226.44 211.263 228.672 214.863 228.672C218.463 228.672 220.527 226.44 220.527 222C220.527 217.56 218.463 215.328 214.863 215.328C211.263 215.328 209.175 217.56 209.175 222ZM226.174 213H229.15L235.246 222.6C236.182 224.064 236.734 225.168 237.07 226.32L237.742 226.128C237.334 224.832 237.022 223.488 237.022 221.232V213H239.902V231H236.926L230.83 221.4C229.87 219.864 229.318 218.784 228.982 217.656L228.31 217.824C228.718 219.12 229.054 220.464 229.054 222.744V231H226.174V213Z" fill="#0A35A0"/>
<path d="M244.621 284.24C239.101 284.24 235.981 280.88 235.981 275C235.981 269.12 239.101 265.76 244.621 265.76C249.253 265.76 252.205 268.136 252.781 272.408H249.757C249.325 269.696 247.429 268.328 244.621 268.328C241.021 268.328 238.933 270.56 238.933 275C238.933 279.44 241.021 281.672 244.621 281.672C247.429 281.672 249.301 280.304 249.757 277.592H252.781C252.205 281.864 249.253 284.24 244.621 284.24ZM255.697 266H262.777C267.145 266 269.593 268.064 269.593 271.664C269.593 275.336 267.361 276.44 265.849 276.44C265.321 276.44 264.913 276.32 264.529 276.224L264.361 276.896C265.873 277.136 266.593 278.408 267.817 280.52L269.833 284H266.881L263.017 277.328H258.505V284H255.697V266ZM262.777 268.568H258.505V274.784H262.777C265.225 274.784 266.689 273.728 266.689 271.664C266.689 269.6 265.225 268.568 262.777 268.568ZM284.932 284H272.572V266H284.932V268.568H275.38V273.704H284.212V276.272H275.38V281.432H284.932V284ZM286.826 284L293.618 266H296.402L303.17 284H300.218L298.754 279.992H291.242L289.778 284H286.826ZM294.074 272.336L292.178 277.424H297.842L295.946 272.336C295.634 271.52 295.346 270.68 295.346 269.792V269.144H294.65V269.792C294.65 270.68 294.386 271.52 294.074 272.336ZM301.545 266H316.401V268.472H310.377V284H307.569V268.472H301.545V266ZM318.486 284V266H321.294V284H318.486ZM323.154 266H326.106L330.282 277.64C330.594 278.48 330.738 279.32 330.738 280.208V280.856H331.434V280.208C331.434 279.32 331.626 278.408 331.89 277.64L336.066 266H339.018L332.49 284H329.706L323.154 266ZM353.464 284H341.104V266H353.464V268.568H343.912V273.704H352.744V276.272H343.912V281.432H353.464V284ZM370.949 284.24C365.429 284.24 362.309 280.88 362.309 275C362.309 269.12 365.429 265.76 370.949 265.76C375.581 265.76 378.533 268.136 379.109 272.408H376.085C375.653 269.696 373.757 268.328 370.949 268.328C367.349 268.328 365.261 270.56 365.261 275C365.261 279.44 367.349 281.672 370.949 281.672C373.757 281.672 375.629 280.304 376.085 277.592H379.109C378.533 281.864 375.581 284.24 370.949 284.24ZM381.668 275C381.668 269.12 384.788 265.76 390.308 265.76C395.804 265.76 398.924 269.12 398.924 275C398.924 280.88 395.804 284.24 390.308 284.24C384.788 284.24 381.668 280.88 381.668 275ZM384.62 275C384.62 279.44 386.708 281.672 390.308 281.672C393.908 281.672 395.972 279.44 395.972 275C395.972 270.56 393.908 268.328 390.308 268.328C386.708 268.328 384.62 270.56 384.62 275ZM401.619 266H404.595L410.691 275.6C411.627 277.064 412.179 278.168 412.515 279.32L413.187 279.128C412.779 277.832 412.467 276.488 412.467 274.232V266H415.347V284H412.371L406.275 274.4C405.315 272.864 404.763 271.784 404.427 270.656L403.755 270.824C404.163 272.12 404.499 273.464 404.499 275.744V284H401.619V266ZM417.678 266H432.534V268.472H426.51V284H423.702V268.472H417.678V266ZM446.979 284H434.619V266H446.979V268.568H437.427V273.704H446.259V276.272H437.427V281.432H446.979V284ZM449.713 266H452.689L458.785 275.6C459.721 277.064 460.273 278.168 460.609 279.32L461.281 279.128C460.873 277.832 460.561 276.488 460.561 274.232V266H463.441V284H460.465L454.369 274.4C453.409 272.864 452.857 271.784 452.521 270.656L451.849 270.824C452.257 272.12 452.593 273.464 452.593 275.744V284H449.713V266ZM465.771 266H480.627V268.472H474.603V284H471.795V268.472H465.771V266ZM279.904 312H277.096V294H282.976C287.344 294 289.792 296.064 289.792 299.664C289.792 303.288 287.344 305.328 282.976 305.328H279.904V312ZM279.904 296.568V302.784H282.976C285.424 302.784 286.888 301.728 286.888 299.664C286.888 297.6 285.424 296.568 282.976 296.568H279.904ZM291.908 294H298.988C303.356 294 305.804 296.064 305.804 299.664C305.804 303.336 303.572 304.44 302.06 304.44C301.532 304.44 301.124 304.32 300.74 304.224L300.572 304.896C302.084 305.136 302.804 306.408 304.028 308.52L306.044 312H303.092L299.228 305.328H294.716V312H291.908V294ZM298.988 296.568H294.716V302.784H298.988C301.436 302.784 302.9 301.728 302.9 299.664C302.9 297.6 301.436 296.568 298.988 296.568ZM308.074 303C308.074 297.12 311.194 293.76 316.714 293.76C322.21 293.76 325.33 297.12 325.33 303C325.33 308.88 322.21 312.24 316.714 312.24C311.194 312.24 308.074 308.88 308.074 303ZM311.026 303C311.026 307.44 313.114 309.672 316.714 309.672C320.314 309.672 322.378 307.44 322.378 303C322.378 298.56 320.314 296.328 316.714 296.328C313.114 296.328 311.026 298.56 311.026 303ZM334.481 312H328.025V294H334.481C340.001 294 343.073 297.36 343.073 303C343.073 308.64 340.001 312 334.481 312ZM330.833 296.568V309.432H334.481C338.081 309.432 340.193 307.2 340.193 303C340.193 298.8 338.081 296.568 334.481 296.568H330.833ZM346.025 303.96V294H348.833V303.96C348.833 307.824 350.249 309.672 353.393 309.672C356.513 309.672 357.929 307.824 357.929 303.96V294H360.737V303.96C360.737 309.264 358.409 312.24 353.393 312.24C348.353 312.24 346.025 309.264 346.025 303.96ZM372.308 312.24C366.788 312.24 363.668 308.88 363.668 303C363.668 297.12 366.788 293.76 372.308 293.76C376.94 293.76 379.892 296.136 380.468 300.408H377.444C377.012 297.696 375.116 296.328 372.308 296.328C368.708 296.328 366.62 298.56 366.62 303C366.62 307.44 368.708 309.672 372.308 309.672C375.116 309.672 376.988 308.304 377.444 305.592H380.468C379.892 309.864 376.94 312.24 372.308 312.24ZM382.545 294H397.401V296.472H391.377V312H388.569V296.472H382.545V294ZM399.486 312V294H402.294V312H399.486ZM405.223 303C405.223 297.12 408.343 293.76 413.863 293.76C419.359 293.76 422.479 297.12 422.479 303C422.479 308.88 419.359 312.24 413.863 312.24C408.343 312.24 405.223 308.88 405.223 303ZM408.175 303C408.175 307.44 410.263 309.672 413.863 309.672C417.463 309.672 419.527 307.44 419.527 303C419.527 298.56 417.463 296.328 413.863 296.328C410.263 296.328 408.175 298.56 408.175 303ZM425.174 294H428.15L434.246 303.6C435.182 305.064 435.734 306.168 436.07 307.32L436.742 307.128C436.334 305.832 436.022 304.488 436.022 302.232V294H438.902V312H435.926L429.83 302.4C428.87 300.864 428.318 299.784 427.982 298.656L427.31 298.824C427.718 300.12 428.054 301.464 428.054 303.744V312H425.174V294Z" fill="#0A35A0"/>
<path d="M440.708 224H434.252V206H440.708C446.228 206 449.3 209.36 449.3 215C449.3 220.64 446.228 224 440.708 224ZM437.06 208.568V221.432H440.708C444.308 221.432 446.42 219.2 446.42 215C446.42 210.8 444.308 208.568 440.708 208.568H437.06ZM452.018 224V206H454.826V224H452.018ZM457.754 215C457.754 209.12 460.874 205.76 466.874 205.76C471.842 205.76 474.602 208.88 475.01 211.688L472.058 211.856C471.746 210.224 469.946 208.328 466.874 208.328C462.794 208.328 460.706 210.56 460.706 215C460.706 219.44 462.794 221.672 466.538 221.672C469.394 221.672 471.482 220.232 472.058 217.664H467.234V215.456H475.49V223.712H473.186V222.68C473.186 221.384 473.426 220.616 473.954 219.392L473.282 219.2C472.25 222.536 469.73 224.24 466.274 224.24C460.874 224.24 457.754 220.88 457.754 215ZM478.408 224V206H481.216V224H478.408ZM483.076 206H497.932V208.472H491.908V224H489.1V208.472H483.076V206ZM496.764 224L503.556 206H506.34L513.108 224H510.156L508.692 219.992H501.18L499.716 224H496.764ZM504.012 212.336L502.116 217.424H507.78L505.884 212.336C505.572 211.52 505.284 210.68 505.284 209.792V209.144H504.588V209.792C504.588 210.68 504.324 211.52 504.012 212.336ZM515.439 206H518.247V221.48H526.839V224H515.439V206ZM538.452 224H535.572V206H538.548L543.732 215.84C544.5 217.256 544.764 218.408 544.764 219.392V219.992H545.46V219.392C545.46 218.408 545.748 217.256 546.492 215.84L551.676 206H554.652V224H551.796V215.744C551.796 213.464 552.228 212.12 552.564 210.824L551.892 210.656C551.556 212 550.932 213.416 550.14 215.12L546.42 222.656H543.804L540.084 215.12C539.316 213.416 538.692 212 538.356 210.656L537.684 210.824C538.02 212.12 538.452 213.464 538.452 215.744V224ZM556.974 224L563.766 206H566.55L573.318 224H570.366L568.902 219.992H561.39L559.926 224H556.974ZM564.222 212.336L562.326 217.424H567.99L566.094 212.336C565.782 211.52 565.494 210.68 565.494 209.792V209.144H564.798V209.792C564.798 210.68 564.534 211.52 564.222 212.336ZM575.65 206H582.73C587.098 206 589.546 208.064 589.546 211.664C589.546 215.336 587.314 216.44 585.802 216.44C585.274 216.44 584.866 216.32 584.482 216.224L584.314 216.896C585.826 217.136 586.546 218.408 587.77 220.52L589.786 224H586.834L582.97 217.328H578.458V224H575.65V206ZM582.73 208.568H578.458V214.784H582.73C585.178 214.784 586.642 213.728 586.642 211.664C586.642 209.6 585.178 208.568 582.73 208.568ZM595.429 224H592.525V206H595.429V210.872C595.429 212.432 595.213 213.344 594.589 214.832L595.261 215C595.837 213.584 596.485 212.888 598.045 211.376L603.709 206H607.213L600.181 212.96L607.693 224H604.453L598.237 214.928L595.429 217.688V224ZM622.792 224H610.432V206H622.792V208.568H613.24V213.704H622.072V216.272H613.24V221.432H622.792V224ZM624.685 206H639.541V208.472H633.517V224H630.709V208.472H624.685V206ZM641.627 224V206H644.435V224H641.627ZM647.604 206H650.58L656.676 215.6C657.612 217.064 658.164 218.168 658.5 219.32L659.172 219.128C658.764 217.832 658.452 216.488 658.452 214.232V206H661.332V224H658.356L652.26 214.4C651.3 212.864 650.748 211.784 650.412 210.656L649.74 210.824C650.148 212.12 650.484 213.464 650.484 215.744V224H647.604V206ZM664.262 215C664.262 209.12 667.382 205.76 673.382 205.76C678.35 205.76 681.11 208.88 681.518 211.688L678.566 211.856C678.254 210.224 676.454 208.328 673.382 208.328C669.302 208.328 667.214 210.56 667.214 215C667.214 219.44 669.302 221.672 673.046 221.672C675.902 221.672 677.99 220.232 678.566 217.664H673.742V215.456H681.998V223.712H679.694V222.68C679.694 221.384 679.934 220.616 680.462 219.392L679.79 219.2C678.758 222.536 676.238 224.24 672.782 224.24C667.382 224.24 664.262 220.88 664.262 215Z" fill="#0A35A0"/>
<path d="M75.9033 114H69.4473V96H75.9033C81.4233 96 84.4953 99.36 84.4953 105C84.4953 110.64 81.4233 114 75.9033 114ZM72.2553 98.568V111.432H75.9033C79.5033 111.432 81.6153 109.2 81.6153 105C81.6153 100.8 79.5033 98.568 75.9033 98.568H72.2553ZM99.5729 114H87.2129V96H99.5729V98.568H90.0209V103.704H98.8529V106.272H90.0209V111.432H99.5729V114ZM101.232 96H104.184L108.36 107.64C108.672 108.48 108.816 109.32 108.816 110.208V110.856H109.512V110.208C109.512 109.32 109.704 108.408 109.968 107.64L114.144 96H117.096L110.568 114H107.784L101.232 96ZM131.542 114H119.182V96H131.542V98.568H121.99V103.704H130.822V106.272H121.99V111.432H131.542V114ZM134.275 96H137.083V111.48H145.675V114H134.275V96ZM146.387 105C146.387 99.12 149.507 95.76 155.027 95.76C160.523 95.76 163.643 99.12 163.643 105C163.643 110.88 160.523 114.24 155.027 114.24C149.507 114.24 146.387 110.88 146.387 105ZM149.339 105C149.339 109.44 151.427 111.672 155.027 111.672C158.627 111.672 160.691 109.44 160.691 105C160.691 100.56 158.627 98.328 155.027 98.328C151.427 98.328 149.339 100.56 149.339 105ZM169.146 114H166.338V96H172.218C176.586 96 179.034 98.064 179.034 101.664C179.034 105.288 176.586 107.328 172.218 107.328H169.146V114ZM169.146 98.568V104.784H172.218C174.666 104.784 176.13 103.728 176.13 101.664C176.13 99.6 174.666 98.568 172.218 98.568H169.146ZM184.03 114H181.15V96H184.126L189.31 105.84C190.078 107.256 190.342 108.408 190.342 109.392V109.992H191.038V109.392C191.038 108.408 191.326 107.256 192.07 105.84L197.254 96H200.23V114H197.374V105.744C197.374 103.464 197.806 102.12 198.142 100.824L197.47 100.656C197.134 102 196.51 103.416 195.718 105.12L191.998 112.656H189.382L185.662 105.12C184.894 103.416 184.27 102 183.934 100.656L183.262 100.824C183.598 102.12 184.03 103.464 184.03 105.744V114ZM215.753 114H203.393V96H215.753V98.568H206.201V103.704H215.033V106.272H206.201V111.432H215.753V114ZM218.486 96H221.462L227.558 105.6C228.494 107.064 229.046 108.168 229.382 109.32L230.054 109.128C229.646 107.832 229.334 106.488 229.334 104.232V96H232.214V114H229.238L223.142 104.4C222.182 102.864 221.63 101.784 221.294 100.656L220.622 100.824C221.03 102.12 221.366 103.464 221.366 105.744V114H218.486V96ZM234.545 96H249.401V98.472H243.377V114H240.569V98.472H234.545V96Z" fill="#0A35A0"/>
<path d="M158 71C158 51.1178 174.563 35.0001 194.995 35.0001M190.889 38L195 35L190.889 32" stroke="#0A35A0"/>
<path d="M522 35C541.878 35 557.993 51.1175 557.993 70.9994M555.001 67.0001L558.001 71L561 67.0001" stroke="#0A35A0"/>
<path d="M158.889 163.038L158.889 144.038M158.889 144.038L162 148M158.889 144.038L156 148" stroke="#0A35A0"/>
<path d="M557.889 158.962L557.889 177.962M557.889 177.962L555 174M557.889 177.962L561 174" stroke="#0A35A0"/>
<path d="M195 289C175.112 289 158.99 272.883 158.99 253.001M162.002 257L159.001 253L156 257" stroke="#0A35A0"/>
<path d="M558 253C558 272.882 541.885 289 522.007 289M525.999 286L522 289L525.999 292" stroke="#0A35A0"/>
</svg>
